<?xml version="1.0" encoding="utf-8"?>
<!-- Generator: Adobe Illustrator 24.2.1, SVG Export Plug-In . SVG Version: 6.00 Build 0)  -->
<svg version="1.1" id="_x2018_лой_x5F_1" xmlns="http://www.w3.org/2000/svg" xmlns:xlink="http://www.w3.org/1999/xlink"
	 x="0px" y="0px" viewBox="0 0 1797.8 1556.3" style="enable-background:new 0 0 1797.8 1556.3;" xml:space="preserve">
<style type="text/css">
	.st0{opacity:0.3;}
	.st1{fill:#AEC3FF;}
	.st2{fill:#CDE0FB;}
	.st3{fill:#AFCDFB;}
	.st4{opacity:0.5;}
	.st5{opacity:0.2;}
	.st6{fill:#FFB27D;}
	.st7{fill:#2B478B;}
	.st8{fill:#233862;}
	.st9{fill:#94B0ED;}
	.st10{fill:#F99746;}
	.st11{fill:#ED7D2B;}
	.st12{fill:#ED975D;}
	.st13{fill:#6376E5;}
	.st14{opacity:0.9;}
	.st15{fill:#FFFFFF;}
	.st16{opacity:0.8;}
	.st17{fill:#ED985F;}
	.st18{fill:#0D2644;}
	.st19{fill:#163560;}
	.st20{fill:#DB6B3A;}
	.st21{fill:#F78248;}
	.st22{fill:#EBF3FA;}
</style>
<g>
	<g>
		<g class="st0">
			<path class="st1" d="M1056.9,392.4c0,0,46.2-224.6,223-254.3c0,0,34.4-5.2,47,32.5c12.6,37.7-56.1,40-98.1,56.5
				C1186.8,243.6,1089.7,311.3,1056.9,392.4z"/>
		</g>
		<g class="st0">
			<path class="st1" d="M1051.6,350.7c0,0-23.8-184.2,103.9-253.6c0,0,25-13.1,44.6,12.5c19.6,25.6-32.4,45.4-60.3,69.1
				C1112,202.5,1055.4,280,1051.6,350.7z"/>
		</g>
	</g>
	<g>
		<path class="st2" d="M334.5,283.3c21.7-61.6,126.3-34.2,126.3-34.2s63.9,115.3,84.7,119.5c20.8,4.2-35.4-109.3-35.4-109.3
			c40.9-0.9,140.7,56.4,140.7,56.4s-16,127.9,5.2,126.8c21.1-1.1,8.4-114,8.4-114c38.4,14.7,71.7,63.2,71.7,63.2
			c40.3,78-61.9,125.8-61.9,125.8s-4.6,44.4,19.2,97.5l0,0c0,0,5.5,9.9,10.6,26.4l-10.7-0.8c-0.7-2.9-1.4-5.8-2.3-8.5c0,0,0,0,0-0.1
			c0,0,0-0.1,0-0.1c-0.6-1.7-1.5-4.1-2.6-7.1c0,0,0,0,0,0c0,0,0,0,0,0c-2.8-6.6-4.7-11.5-5.8-15.1c0,0,0,0,0,0
			c-8.3-20.8-20.5-48.1-29.5-54.3c0,0,1.3-1.6,2.7-4.7c-0.8,1.5-1.7,3.1-2.7,4.7c-21.2,37.9-113.4,37.7-163.7,23.5
			c-50.3-14.2-27-27,2.2-48.4c29.2-21.4,86.4-11,104.1-18.9c17.7-7.9-6.5-18.9-40.8-18.8c-34.2,0.1-53.8,32.9-109.2,34.1
			c-55.4,1.2-89.7-105.4-89.7-105.4c37.1,14.6,106.8-1.4,110.4-14.3c3.6-12.9-97.4-19-112.8-24.1C338,378.4,312.8,345,334.5,283.3z"
			/>
	</g>
	<g>
		<path class="st3" d="M174.1,1251.8c-37.9-66.2,66.2-137.7,66.2-137.7s150.7,31.5,170.3,16.3c19.5-15.2-123.6-52.1-123.6-52.1
			c30.4-36.9,157.3-81.3,157.3-81.3s100.8,111.7,116,92.2c15.2-19.5-94.3-94.4-94.3-94.4c42.3-22.8,110.6-15.2,110.6-15.2
			c99.8,23.9,63.9,150.8,63.9,150.8s35.8,38,100.8,57.5h0c0,0,12.9,2.7,31.4,10.7l-8.9,8.9c-3.1-1.7-6.2-3.2-9.3-4.5c0,0,0,0-0.1,0
			c0,0-0.1,0-0.1-0.1c-2-0.8-4.8-1.8-8.3-3.1c0,0,0,0,0,0c0,0,0,0,0,0c-8-2.6-13.8-4.7-17.8-6.4c0,0,0,0,0,0
			c-24.8-8.5-58.2-18.5-70.5-15.3c0,0-0.4-2.4-2.2-6c0.7,1.9,1.4,3.9,2.2,6c17.3,47.7-53.2,129-104.2,162.6
			c-51,33.6-44.5,3.2-41-38.9c3.4-42.1,56.3-84.7,62.8-106.4c6.5-21.7-21.7-8.7-47.7,21.7c-26,30.4-12,72.7-53.2,122.5
			c-41.2,49.9-161.6-1.1-161.6-1.1c41.2-21.7,80.3-95.4,71.6-108.4c-8.7-13-91.1,71.6-107.4,81.3
			C260.8,1321.3,212,1318,174.1,1251.8z"/>
	</g>
	<g class="st4">
		<path class="st3" d="M1626.9,369.6c-7.4-68.6-121.6-65.7-121.6-65.7s-93.6,103.1-116,102.3c-22.4-0.7,62.8-103.8,62.8-103.8
			c-41.8-10.9-158.3,24-158.3,24s-14.5,135.3-36,129.1c-21.5-6.2,18.9-119.2,18.9-119.2c-43,5.8-89,47.6-89,47.6
			c-60.3,70.5,33.2,144.3,33.2,144.3s-6,46.8-43.3,95.6l0,0c0,0-8.1,8.8-17.3,24.5l11.2,1.8c1.4-2.9,2.9-5.6,4.4-8.2c0,0,0,0,0,0
			c0,0,0-0.1,0.1-0.1c1-1.6,2.5-3.9,4.4-6.7c0,0,0,0,0,0c0,0,0,0,0,0c4.5-6.2,7.6-10.7,9.6-14.1c0,0,0,0,0,0
			c13.6-19.4,32.7-44.5,43.5-48.6c0,0-1-1.9-1.6-5.5c0.5,1.8,1,3.6,1.6,5.5c12.6,44.1,107.4,66.2,162.6,63.8
			c55.2-2.5,34.3-21.2,9.4-50.3s-86.2-32.2-102.5-44.6c-16.3-12.4,11.3-17.9,46.4-9.5c35.2,8.4,47.3,46.8,104,61.5
			s117.7-86.6,117.7-86.6c-41.7,6-109.4-27.2-110-41.4c-0.6-14.1,104.7,4,121.8,2.5S1634.3,438.2,1626.9,369.6z"/>
	</g>
	<g class="st5">
		<path class="st3" d="M1686.9,1203.8c75.7-62.1-16.7-195.4-16.7-195.4s-195.2-30.9-211.7-58c-16.5-27.1,172-6.2,172-6.2
			C1611,886.2,1479,775.1,1479,775.1s-171.9,88.1-181.2,57.8c-9.3-30.3,156.2-70.2,156.2-70.2c-40.4-46.6-125.8-68.6-125.8-68.6
			c-130.6-16.8-145.4,151.7-145.4,151.7s-60.2,29.2-147.2,23l0,0c0,0-16.8-2.7-42.6-1.5l6.6,14.7c4.5-0.6,8.9-1,13.2-1.1
			c0,0,0.1,0,0.1,0c0.1,0,0.1,0,0.2,0c2.7,0,6.6,0,11.3,0c0,0,0,0,0,0c0,0,0,0,0,0c10.8,0.5,18.6,0.6,24.2,0.5c0,0,0,0,0,0
			c33.6,1,78.2,4.2,91.6,13.8c0,0,1.6-2.7,5.3-6.2c-1.7,2-3.5,4-5.3,6.2c-42.5,49.4,5,179,50.8,242.6c45.8,63.5,51.9,24.1,67-28
			c15.1-52.1-28.9-127.3-26.8-156.3c2.1-29,30-0.5,47.4,47.7c17.4,48.3-18.8,92.6,8,171.2c26.7,78.6,194.4,72.3,194.4,72.3
			c-39.6-44.8-52.8-151-36.5-162.7c16.3-11.7,76.7,127.4,91.8,146.5C1551.2,1247.5,1611.3,1265.9,1686.9,1203.8z"/>
	</g>
	<g>
		<g id="man_2_">
			<g>
				<path class="st6" d="M523.9,737.9c-3.6,9.7-9.8,20.9-16.4,23.7c-7.4,3.2-10.5,7.6-10.5,7.6l-6-3.5l-7.1-4.2c0,0,0.2-0.8,0.5-2.1
					c0.3-1.3,0.9-3.1,1.6-5.1c0,0,2.2-2.8,0.8-6.4c-1.3-3.5-1.1-9,1.2-12.3c2.3-3.3,4.5-11.5,5.9-11.3c3.3,0.6-1.6,11.9-0.2,13.9
					c1.3,1.9,2.9,1.2,3.2,1.1c0,0,0,0,0.1,0c9.4-4.1,20.7-26.3,25.8-23.3C524.7,717.3,525.4,733.8,523.9,737.9z"/>
			</g>
			<g>
				<g>
					<path class="st7" d="M491.5,751.4l11.7,8.3c0.8,0.6,2,0.4,2.6-0.4l30.1-42.8c0.6-0.8,0.4-2-0.4-2.6l-11.7-8.3
						c-0.8-0.6-2-0.4-2.6,0.4L491,748.8C490.5,749.6,490.7,750.8,491.5,751.4z"/>
				</g>
				<g>
					<path class="st8" d="M502.2,758.9l6.9,4.8c0.6,0.4,1.5,0.3,2-0.3l30.6-43.5c0.4-0.6,0.3-1.5-0.3-2l-6.9-4.8
						c-0.6-0.4-1.5-0.3-2,0.3L501.9,757C501.5,757.6,501.6,758.5,502.2,758.9z"/>
				</g>
			</g>
			<g>
				<path class="st9" d="M323.1,690c0,0,59.7,104.2,81.4,123.4l79.5-59.2c0,0,11.5,3.5,16.6,15.1c0,0-48.3,98.3-95.8,102.5
					c-47.5,4.2-114.2-117.8-114.2-117.8L323.1,690z"/>
			</g>
			<g>
				<g>
					<path class="st8" d="M187.9,1398.7h-34.5c-4.3-2.4-8.2-7.8-9.4-15.8c-1.7-11.1-14.1-17.2-16.8-26.3
						c-2.7-9.1,11.1-21.9,11.1-21.9l2.3-3l2.4-3.1l22.9,5.4c0,0,0.6,5.5,0.9,12.4c0.3,5,0.4,10.8,0.1,15.9
						c-0.7,12.1,3.4,25.2,14.2,27.5C189,1391.6,188.6,1396.3,187.9,1398.7z"/>
				</g>
				<g>
					<path class="st8" d="M388.2,1398.7h-78.9c-3.8-4.6-2.4-21.7-1.8-27.3c0.1-1.1,0.2-1.8,0.2-1.8s27-21.6,30.7-5.1
						c0.1,0.5,0.2,1,0.4,1.5c4.7,15.4,25.6,22.5,37.7,24.4C384.2,1391.7,387.1,1395.8,388.2,1398.7z"/>
				</g>
				<g>
					<path class="st10" d="M373.2,958.1c0,0-4.1,51.1-8.9,112.5c-6.5,83.4-14.4,185.8-15.2,205.2c-1.3,33.7-6.7,87.6-6.7,87.6
						s-12.8,12.8-38.4,7.4c0,0-22.8-76.9-29.3-158.3c-0.1-1.3-0.2-2.7-0.3-4c-6.1-82.9-15.5-257.4-15.5-257.4L373.2,958.1z"/>
				</g>
				<g>
					<path class="st11" d="M373.2,958.1c0,0-4.1,51.1-8.9,112.5l-89.7,141.9c-0.1-1.3-0.2-2.7-0.3-4
						c-6.1-82.9-15.5-257.4-15.5-257.4L373.2,958.1z"/>
				</g>
				<g>
					<path class="st10" d="M354.5,964.1c0,0-73.8,184.9-122.3,271.9c-48.5,86.9-63.7,111.2-63.7,111.2s-27.8-11.1-30.3-18.7
						c0,0,18.6-167.8,51-208.7c18.4-23.1,39.9-92.5,40.9-116.7c1-24.3,6.6-72.3,6.6-72.3L354.5,964.1z"/>
				</g>
			</g>
			<g>
				<path class="st6" d="M336.1,694.5c-28.8,9.1-78.7-15.5-78.7-15.5s26.6-20,25.2-61.4l22.3,18l15.1,12.2c0,0-0.1,7.2-1.7,19.8
					c-0.4,3.3,3.3,10.6,6.5,14.7C333.6,693.4,336.1,694.5,336.1,694.5z"/>
			</g>
			<g>
				<path class="st12" d="M320,647.8c0,0-0.1,7.2-1.7,19.8c-16.8-2.9-35.8-30-35.8-30c8.5-2.5,16-2.9,22.4-2L320,647.8z"/>
			</g>
			<g>
				<path class="st6" d="M328.8,647.1c0,0-47.6,7.9-52.1-21.8c-4.5-29.7-13.6-48.7,16.6-55c30.2-6.3,37.8,4.1,41.7,13.7
					C339,593.5,341.1,644.3,328.8,647.1z"/>
			</g>
			<g>
				<path class="st1" d="M376.3,962.3c-0.9,0.7-1.9,1.2-3,1.2c-10.8-0.1-42.4,5.9-69.1,3.1c-22.5-2.2-42.5-8.8-63.9-18.4
					c-2.8-1.3-9.4-4.8-9.2-7.9c0.1-3.5,0.4-8.5,0.9-14.9c1.5-22.1,4.2-60.1,1.6-103.9c-0.5-8.2-0.7-16.3-0.7-24.2
					c-0.2-59.4,11.6-111.7,35.2-129.4c2-1.4,14.4,4.6,25.8,10.2c10.5,5.2,21.1,5.8,31,3.8l10,8.8c12.1,11.3,25.4,26.6,31.2,49.8
					c4.9,19.8,7.8,55.4,9.4,92.4c0.7,16.7,1.3,33.6,1.4,49.7v0.6c0.1,1.6,0.1,3.3,0.1,4.9C377.6,929.1,377.1,961.7,376.3,962.3z"/>
			</g>
			<g>
				<path class="st9" d="M232,925.3c1.5-22.1,4.2-60.1,1.6-103.9c-0.5-8.2-0.7-16.3-0.7-24.2c9.9-23.9,17.9-41.3,17.9-41.3h24.9
					C275.6,755.9,293.8,880.4,232,925.3z"/>
			</g>
			<g>
				<g>
					<path class="st8" d="M104.6,1066.4l106,15.1c13.8,2,26.7-7.7,28.7-21.5l6.5-45.9c2-13.8-7.7-26.7-21.5-28.7l-106-15.1
						c-13.8-2-26.7,7.7-28.7,21.5l-6.5,45.9C81.2,1051.6,90.8,1064.5,104.6,1066.4z"/>
				</g>
				<g>
					<path class="st7" d="M230.3,999.1L230.3,999.1c-3-7.5-9.4-13.3-17.6-15.3h0c0,0,0,0,0,0c-0.8-0.2-1.6-0.4-2.4-0.5l-21.1-3
						l1.4-9.9c0.3-2.2-0.3-4.4-1.6-6.2c-1.3-1.8-3.3-3-5.5-3.3l-5.5-0.8l-22.2-3.2l-4-0.6c-4.6-0.6-8.8,2.5-9.5,7.1l-1.4,9.9
						l-36.4-5.2c-13.8-2-26.8,7.7-28.8,21.6l-6.6,46.5c-2,13.8,7.7,26.8,21.6,28.8l105.8,15.1c1.9,0.3,3.7,0.3,5.5,0.2h0
						c0,0,0,0,0,0c2.9-0.2,5.7-0.9,8.3-2.1c7.8-3.4,13.7-10.7,15-19.7l6.6-46.5C232.5,1007.5,231.9,1003.1,230.3,999.1z
						 M147.5,964.2c0.2-1.4,1.3-2.4,2.6-2.6c0.3-0.1,0.6-0.1,0.9,0l4.7,0.7l17.4,2.5l9.5,1.4c1.7,0.2,2.9,1.8,2.7,3.5l-1.4,9.9
						l-37.9-5.4L147.5,964.2z"/>
				</g>
			</g>
			<g>
				<path class="st6" d="M185.3,929.6c0,0-5.6,7.4-5.8,10.4c-1.5,20.1,7.7,22.9-16.1,34c0,0-10.1,3.9-10.3-4c-0.2-7.9,7-8,5.7-19
					c-1.5-12.7-1.4-12.8,7-19.5l5.5-9.1L185.3,929.6z"/>
			</g>
			<g>
				<path class="st1" d="M171.1,935.3c9,1.7,18.7,1,18.7,1s26.6-82.1,30-89.6c3.4-7.5,78.9-96.3,78.9-96.3l-31.5-78.7
					c0,0-81.7,136.4-90,155.6c-13.7,31.7-18.5,102.7-18.5,102.7S164.1,933.9,171.1,935.3z"/>
			</g>
			<g>
				<path class="st7" d="M276.7,622.4c0,0,4.9-0.8,4.1-7.5c-0.8-6.7-0.8-15.5,4.7-13.9c5.5,1.6,5.7,6,8,3.5
					c2.2-2.6,2.3-13.3,18.6-14.1c16.3-0.8,22.9,4.9,30.5,1.6c7.6-3.3,8-14.8,8-14.8s-2.2,4.1-5.4,5.4c0,0,12.6-17.3-2-29.1
					c-14.6-11.8-29.5-4.1-38-3.6c-18.6,1.1-30.7,2.2-36.8,14.5C262.2,576.6,264.7,610.6,276.7,622.4z"/>
			</g>
			<g>
				<path class="st6" d="M176.5,938.4c0,0,5.4,5.6,5.7,7.9c1.1,7.5,3.6,10.7,2.3,11.5c-2.6,1.7-6-3.8-7.7-8.8
					C175.2,944.1,176.5,938.4,176.5,938.4z"/>
			</g>
		</g>
	</g>
	<g>
		<g>
			<path class="st13" d="M1165.2,1390.2H647.8c-32.5,0-58.9-26.4-58.9-58.9V341.6c0-32.5,26.4-58.9,58.9-58.9h517.4
				c32.5,0,58.9,26.4,58.9,58.9v989.7C1224,1363.8,1197.7,1390.2,1165.2,1390.2z"/>
		</g>
		<g>
			<path class="st7" d="M1165.2,1397.5H647.8c-36.5,0-66.3-29.7-66.3-66.3V341.6c0-36.5,29.7-66.3,66.3-66.3h517.4
				c36.5,0,66.3,29.7,66.3,66.3v989.7C1231.4,1367.8,1201.7,1397.5,1165.2,1397.5z M647.8,290.1c-28.4,0-51.5,23.1-51.5,51.5v989.7
				c0,28.4,23.1,51.5,51.5,51.5h517.4c28.4,0,51.5-23.1,51.5-51.5V341.6c0-28.4-23.1-51.5-51.5-51.5H647.8z"/>
		</g>
	</g>
	<g>
		<g>
			<g class="st14">
				<rect x="697.6" y="574.1" class="st15" width="417.7" height="417.7"/>
			</g>
			<g>
				<rect x="739.5" y="948" class="st7" width="16.6" height="16.6"/>
			</g>
			<g>
				<rect x="756.1" y="948" class="st7" width="16.6" height="16.6"/>
			</g>
			<g>
				<rect x="772.7" y="948" class="st7" width="16.6" height="16.6"/>
			</g>
			<g>
				<rect x="789.3" y="948" class="st7" width="16.6" height="16.6"/>
			</g>
			<g>
				<rect x="805.9" y="948" class="st7" width="16.6" height="16.6"/>
			</g>
			<g>
				<rect x="839.1" y="948" class="st7" width="16.6" height="16.6"/>
			</g>
			<g>
				<rect x="855.7" y="948" class="st7" width="16.6" height="16.6"/>
			</g>
			<g>
				<rect x="905.5" y="948" class="st7" width="16.6" height="16.6"/>
			</g>
			<g>
				<rect x="938.7" y="948" class="st7" width="17.6" height="16.6"/>
			</g>
			<g>
				<rect x="956.3" y="948" class="st7" width="16.6" height="16.6"/>
			</g>
			<g>
				<rect x="989.5" y="948" class="st7" width="16.6" height="16.6"/>
			</g>
			<g>
				<rect x="1006.1" y="948" class="st7" width="16.6" height="16.6"/>
			</g>
			<g>
				<rect x="1022.7" y="948" class="st7" width="16.6" height="16.6"/>
			</g>
			<g>
				<rect x="1039.3" y="948" class="st7" width="16.6" height="16.6"/>
			</g>
			<g>
				<rect x="1055.9" y="948" class="st7" width="16.6" height="16.6"/>
			</g>
			<g>
				<rect x="1072.5" y="948" class="st7" width="17.6" height="16.6"/>
			</g>
			<g>
				<rect x="722.9" y="948" class="st7" width="16.6" height="16.6"/>
			</g>
			<g>
				<rect x="805.9" y="931.4" class="st7" width="16.6" height="16.6"/>
			</g>
			<g>
				<rect x="855.7" y="931.4" class="st7" width="16.6" height="16.6"/>
			</g>
			<g>
				<rect x="888.9" y="931.4" class="st7" width="16.6" height="16.6"/>
			</g>
			<g>
				<rect x="905.5" y="931.4" class="st7" width="16.6" height="16.6"/>
			</g>
			<g>
				<rect x="922.1" y="931.4" class="st7" width="16.6" height="16.6"/>
			</g>
			<g>
				<rect x="938.7" y="931.4" class="st7" width="17.6" height="16.6"/>
			</g>
			<g>
				<rect x="989.5" y="931.4" class="st7" width="16.6" height="16.6"/>
			</g>
			<g>
				<rect x="1072.5" y="931.4" class="st7" width="17.6" height="16.6"/>
			</g>
			<g>
				<rect x="722.9" y="931.4" class="st7" width="16.6" height="16.6"/>
			</g>
			<g>
				<rect x="756.1" y="914.8" class="st7" width="16.6" height="16.6"/>
			</g>
			<g>
				<rect x="772.7" y="914.8" class="st7" width="16.6" height="16.6"/>
			</g>
			<g>
				<rect x="805.9" y="914.8" class="st7" width="16.6" height="16.6"/>
			</g>
			<g>
				<rect x="839.1" y="914.8" class="st7" width="16.6" height="16.6"/>
			</g>
			<g>
				<rect x="855.7" y="914.8" class="st7" width="16.6" height="16.6"/>
			</g>
			<g>
				<rect x="872.3" y="914.8" class="st7" width="16.6" height="16.6"/>
			</g>
			<g>
				<rect x="905.5" y="914.8" class="st7" width="16.6" height="16.6"/>
			</g>
			<g>
				<rect x="922.1" y="914.8" class="st7" width="16.6" height="16.6"/>
			</g>
			<g>
				<rect x="938.7" y="914.8" class="st7" width="17.6" height="16.6"/>
			</g>
			<g>
				<rect x="956.3" y="914.8" class="st7" width="16.6" height="16.6"/>
			</g>
			<g>
				<rect x="989.5" y="914.8" class="st7" width="16.6" height="16.6"/>
			</g>
			<g>
				<rect x="1022.7" y="914.8" class="st7" width="16.6" height="16.6"/>
			</g>
			<g>
				<rect x="1039.3" y="914.8" class="st7" width="16.6" height="16.6"/>
			</g>
			<g>
				<rect x="1072.5" y="914.8" class="st7" width="17.6" height="16.6"/>
			</g>
			<g>
				<rect x="722.9" y="914.8" class="st7" width="16.6" height="16.6"/>
			</g>
			<g>
				<rect x="756.1" y="898.2" class="st7" width="16.6" height="16.6"/>
			</g>
			<g>
				<rect x="772.7" y="898.2" class="st7" width="16.6" height="16.6"/>
			</g>
			<g>
				<rect x="805.9" y="898.2" class="st7" width="16.6" height="16.6"/>
			</g>
			<g>
				<rect x="839.1" y="898.2" class="st7" width="16.6" height="16.6"/>
			</g>
			<g>
				<rect x="872.3" y="898.2" class="st7" width="16.6" height="16.6"/>
			</g>
			<g>
				<rect x="905.5" y="898.2" class="st7" width="16.6" height="16.6"/>
			</g>
			<g>
				<rect x="989.5" y="898.2" class="st7" width="16.6" height="16.6"/>
			</g>
			<g>
				<rect x="1022.7" y="898.2" class="st7" width="16.6" height="16.6"/>
			</g>
			<g>
				<rect x="1039.3" y="898.2" class="st7" width="16.6" height="16.6"/>
			</g>
			<g>
				<rect x="1072.5" y="898.2" class="st7" width="17.6" height="16.6"/>
			</g>
			<g>
				<rect x="722.9" y="898.2" class="st7" width="16.6" height="16.6"/>
			</g>
			<g>
				<rect x="805.9" y="881.6" class="st7" width="16.6" height="16.6"/>
			</g>
			<g>
				<rect x="839.1" y="881.6" class="st7" width="16.6" height="16.6"/>
			</g>
			<g>
				<rect x="855.7" y="881.6" class="st7" width="16.6" height="16.6"/>
			</g>
			<g>
				<rect x="872.3" y="881.6" class="st7" width="16.6" height="16.6"/>
			</g>
			<g>
				<rect x="905.5" y="881.6" class="st7" width="16.6" height="16.6"/>
			</g>
			<g>
				<rect x="922.1" y="881.6" class="st7" width="16.6" height="16.6"/>
			</g>
			<g>
				<rect x="956.3" y="881.6" class="st7" width="16.6" height="16.6"/>
			</g>
			<g>
				<rect x="989.5" y="881.6" class="st7" width="16.6" height="16.6"/>
			</g>
			<g>
				<rect x="1072.5" y="881.6" class="st7" width="17.6" height="16.6"/>
			</g>
			<g>
				<rect x="722.9" y="881.6" class="st7" width="16.6" height="16.6"/>
			</g>
			<g>
				<rect x="739.5" y="865" class="st7" width="16.6" height="16.6"/>
			</g>
			<g>
				<rect x="756.1" y="865" class="st7" width="16.6" height="16.6"/>
			</g>
			<g>
				<rect x="772.7" y="865" class="st7" width="16.6" height="16.6"/>
			</g>
			<g>
				<rect x="789.3" y="865" class="st7" width="16.6" height="16.6"/>
			</g>
			<g>
				<rect x="805.9" y="865" class="st7" width="16.6" height="16.6"/>
			</g>
			<g>
				<rect x="839.1" y="865" class="st7" width="16.6" height="16.6"/>
			</g>
			<g>
				<rect x="872.3" y="865" class="st7" width="16.6" height="16.6"/>
			</g>
			<g>
				<rect x="888.9" y="865" class="st7" width="16.6" height="16.6"/>
			</g>
			<g>
				<rect x="922.1" y="865" class="st7" width="16.6" height="16.6"/>
			</g>
			<g>
				<rect x="989.5" y="865" class="st7" width="16.6" height="16.6"/>
			</g>
			<g>
				<rect x="1006.1" y="865" class="st7" width="16.6" height="16.6"/>
			</g>
			<g>
				<rect x="1022.7" y="865" class="st7" width="16.6" height="16.6"/>
			</g>
			<g>
				<rect x="1039.3" y="865" class="st7" width="16.6" height="16.6"/>
			</g>
			<g>
				<rect x="1055.9" y="865" class="st7" width="16.6" height="16.6"/>
			</g>
			<g>
				<rect x="1072.5" y="865" class="st7" width="17.6" height="16.6"/>
			</g>
			<g>
				<rect x="722.9" y="865" class="st7" width="16.6" height="16.6"/>
			</g>
			<g>
				<rect x="888.9" y="848.4" class="st7" width="16.6" height="16.6"/>
			</g>
			<g>
				<rect x="905.5" y="848.4" class="st7" width="16.6" height="16.6"/>
			</g>
			<g>
				<rect x="922.1" y="848.4" class="st7" width="16.6" height="16.6"/>
			</g>
			<g>
				<rect x="956.3" y="848.4" class="st7" width="16.6" height="16.6"/>
			</g>
			<g>
				<rect x="739.5" y="831.8" class="st7" width="16.6" height="16.6"/>
			</g>
			<g>
				<rect x="756.1" y="831.8" class="st7" width="16.6" height="16.6"/>
			</g>
			<g>
				<rect x="772.7" y="831.8" class="st7" width="16.6" height="16.6"/>
			</g>
			<g>
				<rect x="789.3" y="831.8" class="st7" width="16.6" height="16.6"/>
			</g>
			<g>
				<rect x="839.1" y="831.8" class="st7" width="16.6" height="16.6"/>
			</g>
			<g>
				<rect x="855.7" y="831.8" class="st7" width="16.6" height="16.6"/>
			</g>
			<g>
				<rect x="872.3" y="831.8" class="st7" width="16.6" height="16.6"/>
			</g>
			<g>
				<rect x="905.5" y="831.8" class="st7" width="16.6" height="16.6"/>
			</g>
			<g>
				<rect x="922.1" y="831.8" class="st7" width="16.6" height="16.6"/>
			</g>
			<g>
				<rect x="938.7" y="831.8" class="st7" width="17.6" height="16.6"/>
			</g>
			<g>
				<rect x="956.3" y="831.8" class="st7" width="16.6" height="16.6"/>
			</g>
			<g>
				<rect x="972.9" y="831.8" class="st7" width="16.6" height="16.6"/>
			</g>
			<g>
				<rect x="989.5" y="831.8" class="st7" width="16.6" height="16.6"/>
			</g>
			<g>
				<rect x="1006.1" y="831.8" class="st7" width="16.6" height="16.6"/>
			</g>
			<g>
				<rect x="1022.7" y="831.8" class="st7" width="16.6" height="16.6"/>
			</g>
			<g>
				<rect x="1055.9" y="831.8" class="st7" width="16.6" height="16.6"/>
			</g>
			<g>
				<rect x="1072.5" y="831.8" class="st7" width="17.6" height="16.6"/>
			</g>
			<g>
				<rect x="756.1" y="815.2" class="st7" width="16.6" height="16.6"/>
			</g>
			<g>
				<rect x="772.7" y="815.2" class="st7" width="16.6" height="16.6"/>
			</g>
			<g>
				<rect x="822.5" y="815.2" class="st7" width="16.6" height="16.6"/>
			</g>
			<g>
				<rect x="839.1" y="815.2" class="st7" width="16.6" height="16.6"/>
			</g>
			<g>
				<rect x="872.3" y="815.2" class="st7" width="16.6" height="16.6"/>
			</g>
			<g>
				<rect x="922.1" y="815.2" class="st7" width="16.6" height="16.6"/>
			</g>
			<g>
				<rect x="956.3" y="815.2" class="st7" width="16.6" height="16.6"/>
			</g>
			<g>
				<rect x="972.9" y="815.2" class="st7" width="16.6" height="16.6"/>
			</g>
			<g>
				<rect x="1006.1" y="815.2" class="st7" width="16.6" height="16.6"/>
			</g>
			<g>
				<rect x="1022.7" y="815.2" class="st7" width="16.6" height="16.6"/>
			</g>
			<g>
				<rect x="739.5" y="798.6" class="st7" width="16.6" height="16.6"/>
			</g>
			<g>
				<rect x="772.7" y="798.6" class="st7" width="16.6" height="16.6"/>
			</g>
			<g>
				<rect x="789.3" y="798.6" class="st7" width="16.6" height="16.6"/>
			</g>
			<g>
				<rect x="805.9" y="798.6" class="st7" width="16.6" height="16.6"/>
			</g>
			<g>
				<rect x="822.5" y="798.6" class="st7" width="16.6" height="16.6"/>
			</g>
			<g>
				<rect x="855.7" y="798.6" class="st7" width="16.6" height="16.6"/>
			</g>
			<g>
				<rect x="872.3" y="798.6" class="st7" width="16.6" height="16.6"/>
			</g>
			<g>
				<rect x="888.9" y="798.6" class="st7" width="16.6" height="16.6"/>
			</g>
			<g>
				<rect x="905.5" y="798.6" class="st7" width="16.6" height="16.6"/>
			</g>
			<g>
				<rect x="922.1" y="798.6" class="st7" width="16.6" height="16.6"/>
			</g>
			<g>
				<rect x="938.7" y="798.6" class="st7" width="17.6" height="16.6"/>
			</g>
			<g>
				<rect x="1022.7" y="798.6" class="st7" width="16.6" height="16.6"/>
			</g>
			<g>
				<rect x="1039.3" y="798.6" class="st7" width="16.6" height="16.6"/>
			</g>
			<g>
				<rect x="1072.5" y="798.6" class="st7" width="17.6" height="16.6"/>
			</g>
			<g>
				<rect x="722.9" y="798.6" class="st7" width="16.6" height="16.6"/>
			</g>
			<g>
				<rect x="739.5" y="782" class="st7" width="16.6" height="16.6"/>
			</g>
			<g>
				<rect x="756.1" y="782" class="st7" width="16.6" height="16.6"/>
			</g>
			<g>
				<rect x="772.7" y="782" class="st7" width="16.6" height="16.6"/>
			</g>
			<g>
				<rect x="839.1" y="782" class="st7" width="16.6" height="16.6"/>
			</g>
			<g>
				<rect x="855.7" y="782" class="st7" width="16.6" height="16.6"/>
			</g>
			<g>
				<rect x="922.1" y="782" class="st7" width="16.6" height="16.6"/>
			</g>
			<g>
				<rect x="972.9" y="782" class="st7" width="16.6" height="16.6"/>
			</g>
			<g>
				<rect x="989.5" y="782" class="st7" width="16.6" height="16.6"/>
			</g>
			<g>
				<rect x="1022.7" y="782" class="st7" width="16.6" height="16.6"/>
			</g>
			<g>
				<rect x="1039.3" y="782" class="st7" width="16.6" height="16.6"/>
			</g>
			<g>
				<rect x="1055.9" y="782" class="st7" width="16.6" height="16.6"/>
			</g>
			<g>
				<rect x="1072.5" y="782" class="st7" width="17.6" height="16.6"/>
			</g>
			<g>
				<rect x="722.9" y="782" class="st7" width="16.6" height="16.6"/>
			</g>
			<g>
				<rect x="772.7" y="765.4" class="st7" width="16.6" height="16.6"/>
			</g>
			<g>
				<rect x="789.3" y="765.4" class="st7" width="16.6" height="16.6"/>
			</g>
			<g>
				<rect x="805.9" y="765.4" class="st7" width="16.6" height="16.6"/>
			</g>
			<g>
				<rect x="822.5" y="765.4" class="st7" width="16.6" height="16.6"/>
			</g>
			<g>
				<rect x="839.1" y="765.4" class="st7" width="16.6" height="16.6"/>
			</g>
			<g>
				<rect x="855.7" y="765.4" class="st7" width="16.6" height="16.6"/>
			</g>
			<g>
				<rect x="905.5" y="765.4" class="st7" width="16.6" height="16.6"/>
			</g>
			<g>
				<rect x="956.3" y="765.4" class="st7" width="16.6" height="16.6"/>
			</g>
			<g>
				<rect x="972.9" y="765.4" class="st7" width="16.6" height="16.6"/>
			</g>
			<g>
				<rect x="1039.3" y="765.4" class="st7" width="16.6" height="16.6"/>
			</g>
			<g>
				<rect x="722.9" y="765.4" class="st7" width="16.6" height="16.6"/>
			</g>
			<g>
				<rect x="739.5" y="748.8" class="st7" width="16.6" height="16.6"/>
			</g>
			<g>
				<rect x="756.1" y="748.8" class="st7" width="16.6" height="16.6"/>
			</g>
			<g>
				<rect x="772.7" y="748.8" class="st7" width="16.6" height="16.6"/>
			</g>
			<g>
				<rect x="789.3" y="748.8" class="st7" width="16.6" height="16.6"/>
			</g>
			<g>
				<rect x="822.5" y="748.8" class="st7" width="16.6" height="16.6"/>
			</g>
			<g>
				<rect x="855.7" y="748.8" class="st7" width="16.6" height="16.6"/>
			</g>
			<g>
				<rect x="872.3" y="748.8" class="st7" width="16.6" height="16.6"/>
			</g>
			<g>
				<rect x="905.5" y="748.8" class="st7" width="16.6" height="16.6"/>
			</g>
			<g>
				<rect x="922.1" y="748.8" class="st7" width="16.6" height="16.6"/>
			</g>
			<g>
				<rect x="938.7" y="748.8" class="st7" width="17.6" height="16.6"/>
			</g>
			<g>
				<rect x="956.3" y="748.8" class="st7" width="16.6" height="16.6"/>
			</g>
			<g>
				<rect x="989.5" y="748.8" class="st7" width="16.6" height="16.6"/>
			</g>
			<g>
				<rect x="1006.1" y="748.8" class="st7" width="16.6" height="16.6"/>
			</g>
			<g>
				<rect x="1022.7" y="748.8" class="st7" width="16.6" height="16.6"/>
			</g>
			<g>
				<rect x="1039.3" y="748.8" class="st7" width="16.6" height="16.6"/>
			</g>
			<g>
				<rect x="1072.5" y="748.8" class="st7" width="17.6" height="16.6"/>
			</g>
			<g>
				<rect x="739.5" y="732.2" class="st7" width="16.6" height="16.6"/>
			</g>
			<g>
				<rect x="772.7" y="732.2" class="st7" width="16.6" height="16.6"/>
			</g>
			<g>
				<rect x="805.9" y="732.2" class="st7" width="16.6" height="16.6"/>
			</g>
			<g>
				<rect x="822.5" y="732.2" class="st7" width="16.6" height="16.6"/>
			</g>
			<g>
				<rect x="872.3" y="732.2" class="st7" width="16.6" height="16.6"/>
			</g>
			<g>
				<rect x="888.9" y="732.2" class="st7" width="16.6" height="16.6"/>
			</g>
			<g>
				<rect x="905.5" y="732.2" class="st7" width="16.6" height="16.6"/>
			</g>
			<g>
				<rect x="938.7" y="732.2" class="st7" width="17.6" height="16.6"/>
			</g>
			<g>
				<rect x="956.3" y="732.2" class="st7" width="16.6" height="16.6"/>
			</g>
			<g>
				<rect x="972.9" y="732.2" class="st7" width="16.6" height="16.6"/>
			</g>
			<g>
				<rect x="1006.1" y="732.2" class="st7" width="16.6" height="16.6"/>
			</g>
			<g>
				<rect x="1039.3" y="732.2" class="st7" width="16.6" height="16.6"/>
			</g>
			<g>
				<rect x="1055.9" y="732.2" class="st7" width="16.6" height="16.6"/>
			</g>
			<g>
				<rect x="1072.5" y="732.2" class="st7" width="17.6" height="16.6"/>
			</g>
			<g>
				<rect x="722.9" y="732.2" class="st7" width="16.6" height="16.6"/>
			</g>
			<g>
				<rect x="739.5" y="715.6" class="st7" width="16.6" height="16.6"/>
			</g>
			<g>
				<rect x="805.9" y="715.6" class="st7" width="16.6" height="16.6"/>
			</g>
			<g>
				<rect x="822.5" y="715.6" class="st7" width="16.6" height="16.6"/>
			</g>
			<g>
				<rect x="855.7" y="715.6" class="st7" width="16.6" height="16.6"/>
			</g>
			<g>
				<rect x="872.3" y="715.6" class="st7" width="16.6" height="16.6"/>
			</g>
			<g>
				<rect x="905.5" y="715.6" class="st7" width="16.6" height="16.6"/>
			</g>
			<g>
				<rect x="922.1" y="715.6" class="st7" width="16.6" height="16.6"/>
			</g>
			<g>
				<rect x="956.3" y="715.6" class="st7" width="16.6" height="16.6"/>
			</g>
			<g>
				<rect x="972.9" y="715.6" class="st7" width="16.6" height="16.6"/>
			</g>
			<g>
				<rect x="989.5" y="715.6" class="st7" width="16.6" height="16.6"/>
			</g>
			<g>
				<rect x="1006.1" y="715.6" class="st7" width="16.6" height="16.6"/>
			</g>
			<g>
				<rect x="1022.7" y="715.6" class="st7" width="16.6" height="16.6"/>
			</g>
			<g>
				<rect x="1039.3" y="715.6" class="st7" width="16.6" height="16.6"/>
			</g>
			<g>
				<rect x="722.9" y="715.6" class="st7" width="16.6" height="16.6"/>
			</g>
			<g>
				<rect x="855.7" y="699" class="st7" width="16.6" height="16.6"/>
			</g>
			<g>
				<rect x="888.9" y="699" class="st7" width="16.6" height="16.6"/>
			</g>
			<g>
				<rect x="905.5" y="699" class="st7" width="16.6" height="16.6"/>
			</g>
			<g>
				<rect x="938.7" y="699" class="st7" width="17.6" height="16.6"/>
			</g>
			<g>
				<rect x="956.3" y="699" class="st7" width="16.6" height="16.6"/>
			</g>
			<g>
				<rect x="972.9" y="699" class="st7" width="16.6" height="16.6"/>
			</g>
			<g>
				<rect x="739.5" y="682.4" class="st7" width="16.6" height="16.6"/>
			</g>
			<g>
				<rect x="756.1" y="682.4" class="st7" width="16.6" height="16.6"/>
			</g>
			<g>
				<rect x="772.7" y="682.4" class="st7" width="16.6" height="16.6"/>
			</g>
			<g>
				<rect x="789.3" y="682.4" class="st7" width="16.6" height="16.6"/>
			</g>
			<g>
				<rect x="805.9" y="682.4" class="st7" width="16.6" height="16.6"/>
			</g>
			<g>
				<rect x="839.1" y="682.4" class="st7" width="16.6" height="16.6"/>
			</g>
			<g>
				<rect x="855.7" y="682.4" class="st7" width="16.6" height="16.6"/>
			</g>
			<g>
				<rect x="905.5" y="682.4" class="st7" width="16.6" height="16.6"/>
			</g>
			<g>
				<rect x="972.9" y="682.4" class="st7" width="16.6" height="16.6"/>
			</g>
			<g>
				<rect x="989.5" y="682.4" class="st7" width="16.6" height="16.6"/>
			</g>
			<g>
				<rect x="1022.7" y="682.4" class="st7" width="16.6" height="16.6"/>
			</g>
			<g>
				<rect x="1072.5" y="682.4" class="st7" width="17.6" height="16.6"/>
			</g>
			<g>
				<rect x="722.9" y="682.4" class="st7" width="16.6" height="16.6"/>
			</g>
			<g>
				<rect x="805.9" y="665.8" class="st7" width="16.6" height="16.6"/>
			</g>
			<g>
				<rect x="938.7" y="665.8" class="st7" width="17.6" height="16.6"/>
			</g>
			<g>
				<rect x="956.3" y="665.8" class="st7" width="16.6" height="16.6"/>
			</g>
			<g>
				<rect x="989.5" y="665.8" class="st7" width="16.6" height="16.6"/>
			</g>
			<g>
				<rect x="1006.1" y="665.8" class="st7" width="16.6" height="16.6"/>
			</g>
			<g>
				<rect x="1039.3" y="665.8" class="st7" width="16.6" height="16.6"/>
			</g>
			<g>
				<rect x="1055.9" y="665.8" class="st7" width="16.6" height="16.6"/>
			</g>
			<g>
				<rect x="1072.5" y="665.8" class="st7" width="17.6" height="16.6"/>
			</g>
			<g>
				<rect x="722.9" y="665.8" class="st7" width="16.6" height="16.6"/>
			</g>
			<g>
				<rect x="756.1" y="649.2" class="st7" width="16.6" height="16.6"/>
			</g>
			<g>
				<rect x="772.7" y="649.2" class="st7" width="16.6" height="16.6"/>
			</g>
			<g>
				<rect x="805.9" y="649.2" class="st7" width="16.6" height="16.6"/>
			</g>
			<g>
				<rect x="839.1" y="649.2" class="st7" width="16.6" height="16.6"/>
			</g>
			<g>
				<rect x="855.7" y="649.2" class="st7" width="16.6" height="16.6"/>
			</g>
			<g>
				<rect x="888.9" y="649.2" class="st7" width="16.6" height="16.6"/>
			</g>
			<g>
				<rect x="905.5" y="649.2" class="st7" width="16.6" height="16.6"/>
			</g>
			<g>
				<rect x="938.7" y="649.2" class="st7" width="17.6" height="16.6"/>
			</g>
			<g>
				<rect x="1006.1" y="649.2" class="st7" width="16.6" height="16.6"/>
			</g>
			<g>
				<rect x="1022.7" y="649.2" class="st7" width="16.6" height="16.6"/>
			</g>
			<g>
				<rect x="1039.3" y="649.2" class="st7" width="16.6" height="16.6"/>
			</g>
			<g>
				<rect x="722.9" y="649.2" class="st7" width="16.6" height="16.6"/>
			</g>
			<g>
				<rect x="756.1" y="632.6" class="st7" width="16.6" height="16.6"/>
			</g>
			<g>
				<rect x="772.7" y="632.6" class="st7" width="16.6" height="16.6"/>
			</g>
			<g>
				<rect x="805.9" y="632.6" class="st7" width="16.6" height="16.6"/>
			</g>
			<g>
				<rect x="839.1" y="632.6" class="st7" width="16.6" height="16.6"/>
			</g>
			<g>
				<rect x="872.3" y="632.6" class="st7" width="16.6" height="16.6"/>
			</g>
			<g>
				<rect x="888.9" y="632.6" class="st7" width="16.6" height="16.6"/>
			</g>
			<g>
				<rect x="905.5" y="632.6" class="st7" width="16.6" height="16.6"/>
			</g>
			<g>
				<rect x="922.1" y="632.6" class="st7" width="16.6" height="16.6"/>
			</g>
			<g>
				<rect x="938.7" y="632.6" class="st7" width="17.6" height="16.6"/>
			</g>
			<g>
				<rect x="972.9" y="632.6" class="st7" width="16.6" height="16.6"/>
			</g>
			<g>
				<rect x="989.5" y="632.6" class="st7" width="16.6" height="16.6"/>
			</g>
			<g>
				<rect x="1006.1" y="632.6" class="st7" width="16.6" height="16.6"/>
			</g>
			<g>
				<rect x="1039.3" y="632.6" class="st7" width="16.6" height="16.6"/>
			</g>
			<g>
				<rect x="1055.9" y="632.6" class="st7" width="16.6" height="16.6"/>
			</g>
			<g>
				<rect x="1072.5" y="632.6" class="st7" width="17.6" height="16.6"/>
			</g>
			<g>
				<rect x="722.9" y="632.6" class="st7" width="16.6" height="16.6"/>
			</g>
			<g>
				<rect x="805.9" y="616" class="st7" width="16.6" height="16.6"/>
			</g>
			<g>
				<rect x="872.3" y="616" class="st7" width="16.6" height="16.6"/>
			</g>
			<g>
				<rect x="888.9" y="616" class="st7" width="16.6" height="16.6"/>
			</g>
			<g>
				<rect x="922.1" y="616" class="st7" width="16.6" height="16.6"/>
			</g>
			<g>
				<rect x="938.7" y="616" class="st7" width="17.6" height="16.6"/>
			</g>
			<g>
				<rect x="956.3" y="616" class="st7" width="16.6" height="16.6"/>
			</g>
			<g>
				<rect x="972.9" y="616" class="st7" width="16.6" height="16.6"/>
			</g>
			<g>
				<rect x="1055.9" y="616" class="st7" width="16.6" height="16.6"/>
			</g>
			<g>
				<rect x="722.9" y="616" class="st7" width="16.6" height="16.6"/>
			</g>
			<g>
				<rect x="739.5" y="599.4" class="st7" width="16.6" height="16.6"/>
			</g>
			<g>
				<rect x="756.1" y="599.4" class="st7" width="16.6" height="16.6"/>
			</g>
			<g>
				<rect x="772.7" y="599.4" class="st7" width="16.6" height="16.6"/>
			</g>
			<g>
				<rect x="789.3" y="599.4" class="st7" width="16.6" height="16.6"/>
			</g>
			<g>
				<rect x="805.9" y="599.4" class="st7" width="16.6" height="16.6"/>
			</g>
			<g>
				<rect x="839.1" y="599.4" class="st7" width="16.6" height="16.6"/>
			</g>
			<g>
				<rect x="855.7" y="599.4" class="st7" width="16.6" height="16.6"/>
			</g>
			<g>
				<rect x="938.7" y="599.4" class="st7" width="17.6" height="16.6"/>
			</g>
			<g>
				<rect x="972.9" y="599.4" class="st7" width="16.6" height="16.6"/>
			</g>
			<g>
				<rect x="1006.1" y="599.4" class="st7" width="16.6" height="16.6"/>
			</g>
			<g>
				<rect x="1022.7" y="599.4" class="st7" width="16.6" height="16.6"/>
			</g>
			<g>
				<rect x="1072.5" y="599.4" class="st7" width="17.6" height="16.6"/>
			</g>
			<g>
				<rect x="722.9" y="599.4" class="st7" width="16.6" height="16.6"/>
			</g>
		</g>
		<g class="st16">
			<g>
				<g>
					<path class="st15" d="M667.4,632.1c-3.3,0-5.9-2.6-5.9-5.9v-80.5c0-3.3,2.6-5.9,5.9-5.9h81.2c3.3,0,5.9,2.6,5.9,5.9
						s-2.6,5.9-5.9,5.9h-75.3v74.6C673.3,629.5,670.7,632.1,667.4,632.1z"/>
				</g>
			</g>
			<g>
				<g>
					<path class="st15" d="M1145.5,632.5c-3.3,0-5.9-2.6-5.9-5.9v-75.3H1065c-3.3,0-5.9-2.6-5.9-5.9c0-3.3,2.6-5.9,5.9-5.9h80.5
						c3.3,0,5.9,2.6,5.9,5.9v81.2C1151.4,629.8,1148.8,632.5,1145.5,632.5z"/>
				</g>
			</g>
		</g>
		<g class="st16">
			<g>
				<g>
					<path class="st15" d="M1145.5,1037.1h-81.2c-3.3,0-5.9-2.6-5.9-5.9c0-3.3,2.6-5.9,5.9-5.9h75.3v-74.6c0-3.3,2.6-5.9,5.9-5.9
						s5.9,2.6,5.9,5.9v80.5C1151.4,1034.4,1148.8,1037.1,1145.5,1037.1z"/>
				</g>
			</g>
			<g>
				<g>
					<path class="st15" d="M747.9,1037.4h-80.5c-3.3,0-5.9-2.6-5.9-5.9v-81.2c0-3.3,2.6-5.9,5.9-5.9c3.3,0,5.9,2.6,5.9,5.9v75.3
						h74.6c3.3,0,5.9,2.6,5.9,5.9S751.2,1037.4,747.9,1037.4z"/>
				</g>
			</g>
		</g>
	</g>
	<g>
		<g>
			<g>
				<path class="st15" d="M1115.3,1149.1v11.3c0,6.2-5,11.2-11.2,11.2H708.8c-6.2,0-11.2-5-11.2-11.2v-11.3c0-6.2,5-11.2,11.2-11.2
					h395.3C1110.3,1137.9,1115.3,1142.9,1115.3,1149.1z"/>
			</g>
			<g>
				<g>
					<path class="st11" d="M989.5,1137.9v33.7H708.8c-6.2,0-11.2-5-11.2-11.2v-11.3c0-6.2,5-11.2,11.2-11.2H989.5z"/>
				</g>
				<g>
					<g>
						<polygon class="st10" points="931,1137.9 899.9,1171.6 841.8,1171.6 872.9,1137.9 						"/>
					</g>
					<g>
						<polygon class="st10" points="989.5,1137.9 989.5,1171.6 935.6,1171.6 966.7,1137.9 						"/>
					</g>
					<g>
						<polygon class="st10" points="837.4,1137.9 806.4,1171.6 748.3,1171.6 779.3,1137.9 						"/>
					</g>
					<g>
						<path class="st10" d="M743.9,1137.9l-31.1,33.7h-4.3c-6.2,0-11.2-5-11.2-11.2v-11.3c0-6.2,5-11.2,11.2-11.2H743.9z"/>
					</g>
				</g>
			</g>
		</g>
		<g>
			<path class="st15" d="M863.6,1118.7l2.2-2.6c2,1.7,4,2.7,6.6,2.7c2.3,0,3.7-1,3.7-2.7c0-1.5-0.8-2.3-4.7-3.2c-4.4-1-7-2.4-7-6.3
				c0-3.6,3-6.1,7.1-6.1c3,0,5.5,0.9,7.6,2.6l-2,2.8c-1.9-1.4-3.8-2.1-5.7-2.1c-2.1,0-3.4,1.1-3.4,2.5c0,1.6,1,2.3,5,3.3
				c4.4,1.1,6.7,2.7,6.7,6.2c0,3.9-3.1,6.2-7.5,6.2C869.1,1122,866.1,1120.9,863.6,1118.7z"/>
			<path class="st15" d="M883.2,1111.3c0-5.9,4.4-10.8,10.8-10.8c3.8,0,6.2,1.3,8.2,3.3l-2.4,2.7c-1.7-1.6-3.5-2.6-5.8-2.6
				c-4,0-6.9,3.3-6.9,7.4c0,4.1,2.9,7.4,6.9,7.4c2.6,0,4.2-1,6-2.7l2.4,2.4c-2.2,2.3-4.6,3.7-8.5,3.7
				C887.7,1122.1,883.2,1117.3,883.2,1111.3z"/>
			<path class="st15" d="M913.5,1100.7h3.4l9.2,21h-3.9l-2.1-5h-9.9l-2.1,5h-3.8L913.5,1100.7z M918.8,1113.4l-3.6-8.4l-3.6,8.4
				H918.8z"/>
			<path class="st15" d="M929.7,1100.8h3.4l11.2,14.4v-14.4h3.6v20.9h-3.1l-11.5-14.9v14.9h-3.6V1100.8z"/>
		</g>
	</g>
	<g id="girl_2_3_">
		<g>
			<path class="st8" d="M1219.7,954c19.3-5.6,41,0.8,54.6,15.6c33.6,36.5,8.8,64.7,25.7,90.2c10.2,15.4,18.7,42.5-12.8,58.5
				c-14.6,7.4-58,46.1-66.8,47c-90,9.2-91.6-82.1-61.3-108.6C1201.7,1019.6,1162.7,970.7,1219.7,954z"/>
		</g>
		<g>
			<path class="st17" d="M1266.7,1095.2c0,0,82.2,39.8,97.6,39.1c15.4-0.7,111.6-34.5,111.6-34.5l-2.4,16.3c0,0-73.2,42.1-98.8,44.5
				c-25.2,2.4-111.3-22.6-119.6-27.9C1246.7,1127.5,1242.6,1100.6,1266.7,1095.2z"/>
		</g>
		<g>
			<path class="st6" d="M1275.8,1132.8c-7.4,5.2-16.8,9.4-28.5,12.1c-43.9,10.2-60.8-27-67.1-52.5c6-3.4,11.6-4.2,14.9-4.6
				c3.2-0.4,6.5-0.6,9.3-0.8c4.9-3.8,12.3-19.2,13.9-43.3l2.1,0.6l34.6,9.5c0,0-1.6,11-2.4,21.4c-0.6,8.1-0.7,15.9,0.8,17.8
				c2.7,0.6,4.3,1,4.3,1s0,0,0,0C1258.2,1094.9,1268.3,1111.4,1275.8,1132.8z"/>
		</g>
		<g>
			<path class="st17" d="M1255,1053.9c0,0-1.6,11-2.4,21.4c-19.6-2-28.7-20.6-32.3-30.9L1255,1053.9z"/>
		</g>
		<g>
			<path class="st6" d="M1260.8,1064.2c0,0-46.6-2.6-44.5-31.5c2-29-2.6-48.8,27.2-48.4c29.8,0.4,34.8,11.9,36.5,21.7
				C1281.7,1015.8,1273,1064.1,1260.8,1064.2z"/>
		</g>
		<g>
			<path class="st8" d="M1279.8,989.8c-6.6-9.2-12.1-7.7-15.4-5.3c-24.4-15.8-42.3,3.7-42.3,3.7c-4.6,20.6-20.4,31.4-20.4,31.4
				s8.3,6.6,28,2.2c25.3-5.6,33.9-27.5,35.1-30.9c2.7,2.8,6.1,4.5,8.7,10.5c3.1,7.1,5.1,11.2,5.1,22.9
				C1278.7,1024.2,1289.6,1003.6,1279.8,989.8z"/>
		</g>
		<g>
			<path class="st10" d="M1166.9,1227.5c-4.2-21.5-17.9-107.4-4.2-135c4.9-9.9,24.2-10.8,45.4-10c6.6,4.3,31.7,20.4,42.1,18.3
				c0.1,0,0.3-0.1,0.6-0.1c4.9-1.2,6.7-4.6,2.6-7.6c0,0,9.3,0.7,22.3,3.1c7.4,1.4,27.6,13.8,27.6,13.8s-9.2,14.3-23.9,20.5
				c2.5,22.4-1.2,32.3-24.5,84.2c-19.7,43.8,2.7,83.2,2.7,83.2s-115.8,93.1-116.4,45.7C1140.7,1308,1172.3,1254.9,1166.9,1227.5z"/>
		</g>
		<g>
			<path class="st9" d="M1263.3,1399.2c6.3-0.7,12-4.2,15.5-9.4c0.6-0.8,1.2-1.7,1.8-2.7c13.2-20,18.3-81.1,48-146.1
				c7.2-15.8,33.1-18.7,40.2-36.6c0,0,17.4-58.1-33.3-59.8s-135.8,161.6-137.1,178.7C1197.1,1339.8,1164.9,1410.3,1263.3,1399.2z"/>
		</g>
		<g>
			<path class="st18" d="M1464.8,1398.8h-72.2c0,0-2.7-11.8,2-19.9c4.2-7.1,2.6-11.2-0.5-17.1c3.3,1.4,7.5,2.6,12.2,2.3
				c3.6-0.2,7.4-1.9,10.7-3.9c3.1,3.6,16.4,19.1,20.6,22.2C1442.3,1386.1,1463.4,1384.8,1464.8,1398.8z"/>
		</g>
		<g>
			<path class="st9" d="M1370.4,1161.3c4.3,32.6,21.3,135.4,51.2,185.5c9.6,16.2-24.3,25.2-24.5,25.2c-4.6-1.2-12.1-8.5-15.6-11.6
				c-24.3-21.9-73.6-83.9-73.6-133.6c0-24.2-0.4-70.5,17.2-82.3C1336,1137.3,1368.7,1148.4,1370.4,1161.3z"/>
		</g>
		<g>
			<path class="st11" d="M1169.8,1132.7c0,0,14.6,29.8,83,50.8c68.3,21,29.3-31.8,29.3-31.8l-95.6-33.4L1169.8,1132.7z"/>
		</g>
		<g>
			<path class="st1" d="M1228.1,1399.2c0,0,3.7-5.5,6-13.6c3.9-13.6,5.3-23.5,12.7-44.7c7.8-22.3,17.1-49.6,28.7-78.1
				c3.6-8.8,7.4-17.7,11.4-26.6c7.2-15.8,27.1-13.7,34.2-31.6c0,0,27.6-62.1-23.1-63.8c-50.7-1.7-147,166.1-152.6,182.4
				C1139.4,1341,1117.6,1416.3,1228.1,1399.2z"/>
		</g>
		<g>
			<path class="st19" d="M1411.9,1398.8h-72.2c0,0-2.7-11.8,2-19.9c4.2-7.1,2.6-11.2-0.5-17.1c3.3,1.4,7.5,2.6,12.2,2.3
				c3.6-0.2,7.4-1.9,10.7-3.9c3.1,3.6,16.4,19.1,20.6,22.2C1389.4,1386.1,1410.4,1384.8,1411.9,1398.8z"/>
		</g>
		<g class="st4">
			<path class="st9" d="M1246.8,1340.9c7.8-22.3,17.1-49.6,28.7-78.1c-3-21.6-9.6-40.5-20.6-48.1
				C1255,1214.7,1228.3,1297.3,1246.8,1340.9z"/>
		</g>
		<g>
			<path class="st1" d="M1328.3,1159c4.3,32.6,10.5,137.7,40.4,187.8c9.6,16.2-24.3,25.2-24.5,25.2c-4.6-1.2-12.1-8.5-15.6-11.6
				c-24.3-21.9-73.6-83.9-73.6-133.6c0-24.2,28.4-68.6,46.1-80.4C1311.9,1139.2,1326.6,1146,1328.3,1159z"/>
		</g>
		<g>
			<g>
				<path class="st20" d="M1484.5,1057.9l-73.9-7.8c-2.2-0.2-4.2,1-5,3l-26.4,69.5c-1.2,3,1,6.3,4.3,6.5l73.3,3
					c2,0.1,3.8-1.1,4.6-2.9l27-64.6C1489.6,1061.5,1487.7,1058.2,1484.5,1057.9z"/>
			</g>
			<g>
				<path class="st21" d="M1490.9,1058.5l-73.9-7.8c-2.2-0.2-4.2,1-5,3l-26.4,69.5c-1.2,3,1,6.3,4.3,6.5l73.3,3
					c2,0.1,3.8-1.1,4.6-2.9l27-64.6C1496,1062.2,1494.1,1058.9,1490.9,1058.5z"/>
			</g>
			<g>
				<path class="st22" d="M1450,1091c0.9-2.5-0.4-4.5-2.9-4.5s-5.2,2-6.1,4.5s0.4,4.5,2.9,4.5S1449.1,1093.4,1450,1091z"/>
			</g>
			<g>
				<path class="st22" d="M1488.7,1065.1c0.4-1.2-0.2-2.2-1.4-2.2c-1.2,0-2.6,1-3,2.2c-0.4,1.2,0.2,2.2,1.4,2.2
					S1488.3,1066.3,1488.7,1065.1z"/>
			</g>
		</g>
		<g>
			<path class="st6" d="M1180.2,1092.4c0,0,102.4,37.7,117.8,36.9c9.9-0.5,92.6-29.6,92.6-29.6l7.4,14c0,0-80.5,51.7-102.6,51.5
				c-43.7-0.5-117.4-27.3-125.7-32.6C1161.4,1127.5,1156,1097.8,1180.2,1092.4z"/>
		</g>
		<g>
			<path class="st6" d="M1390.6,1099.8c0,0,7.4-11.4,14.8-11.8s20.2,5,24.5,5.9s16.8,4.9,13.1,10.9c-3.7,6-20.8,7.4-28.2,6
				c-7.4-1.3-16.8,3-16.8,3L1390.6,1099.8z"/>
		</g>
		<g>
			<path class="st6" d="M1403.4,1088.4c0,0,11.8-5.4,15.1-6.4c3.4-1,2.7,0,1.7,3.2c-1,3.2-7.1,6.2-7.1,7.2
				S1403.4,1088.4,1403.4,1088.4z"/>
		</g>
		<g>
			<path class="st6" d="M1483.3,1093.8c0,0-4.7-15.4-9.8-10.6c-5.4,5-2.1,10.1-1.4,16.5c1.3,12.3,3.7,11.8,5.3,11.2
				S1485,1100,1483.3,1093.8z"/>
		</g>
		<g>
			<path class="st6" d="M1483.6,1096.1c0,0,2.4,13.1-10.1,20l3.7-9L1483.6,1096.1z"/>
		</g>
		<g>
			<path class="st15" d="M1269.5,1047.6c0,0-4.4-1.7-16.8-0.7c0,0,0.7,4.8,9.8,5.3C1267.7,1052.4,1269.5,1047.6,1269.5,1047.6z"/>
		</g>
		<g>
			<path class="st10" d="M1232.9,1111c0,0-9.2,29-40.6,35.6c0,0-51.9-16-26.1-51.4C1166.2,1095.2,1191.8,1076.2,1232.9,1111z"/>
		</g>
		<g>
			<path class="st6" d="M1483.6,1098c0,0,2.2-7.2,2.3-8.5c0.1-1.3,0-1.9-1.1-1s-2.8,3.2-2.3,5.4S1483.6,1098,1483.6,1098z"/>
		</g>
	</g>
	<g>
		<g>
			<g>
				<g>
					<path class="st9" d="M682.2,160.3"/>
					<path class="st9" d="M767.1,168.9"/>
				</g>
				<g>
					<path class="st6" d="M785.1,161.3"/>
					<path class="st6" d="M767.1,145.8"/>
				</g>
			</g>
			<g>
				<g>
					<g>
						<line class="st7" x1="919.7" y1="175.3" x2="921.4" y2="171.1"/>
					</g>
				</g>
			</g>
		</g>
	</g>
</g>
</svg>
