<svg xmlns="http://www.w3.org/2000/svg" xmlns:xlink="http://www.w3.org/1999/xlink" viewBox="0 0 1549.98 1948.5"><defs><style>.cls-1{fill:none;}.cls-2{clip-path:url(#clip-path);}.cls-3{fill:#f7b593;}.cls-4{fill:#2a658f;}.cls-5{fill:#fff;}.cls-6{fill:#374047;}</style><clipPath id="clip-path" transform="translate(-196.02 -25)"><rect class="cls-1" x="-276" y="-222" width="2000" height="2000"/></clipPath></defs><g id="_3" data-name=" 3"><g class="cls-2"><path class="cls-3" d="M433.16,1113.53s189.06,242,269,320.41c102,100.07,205.48,110.93,296.15,196.88,165.61,157,269.49,342.68,269.49,342.68l454.72-6.62L1746,1706s-341.18-341.08-353.37-379.63c-16.05-50.75-32.65-195-46.47-357.1-4.88-57.32-11.84-108.48-18.7-162.71-16.64-131.57-76.22-273.8-82.7-365.26-8.87-124.8,3.06-233-64.19-225.88-97.41,10.25-115,118.66-115,118.66ZM1031.45,748.1l15.06-210.53c2.1,7.15,63.77,209.4,50.71,229.74C1084,788,1031.45,748.1,1031.45,748.1Z" transform="translate(-196.02 -25)"/><path class="cls-3" d="M395.44,410.57c-78.06-49.26-153-89.66-189.88-42.19S240.44,518,395.44,611C487.75,666.39,465.69,454.91,395.44,410.57Z" transform="translate(-196.02 -25)"/></g><rect class="cls-4" x="121.24" width="754.04" height="1368.66" rx="88.16"/><rect class="cls-5" x="182.71" y="89.5" width="641.46" height="1162.66"/><rect class="cls-6" x="914.71" y="936.71" width="23.29" height="23.29" transform="translate(1656.69 1871.71) rotate(180)"/><rect class="cls-6" x="868.14" y="936.71" width="23.29" height="23.29" transform="translate(1563.55 1871.71) rotate(180)"/><rect class="cls-6" x="821.57" y="936.71" width="23.29" height="23.29" transform="translate(1470.41 1871.71) rotate(180)"/><rect class="cls-6" x="798.29" y="936.71" width="23.29" height="23.29" transform="translate(1423.83 1871.71) rotate(180)"/><rect class="cls-6" x="775" y="936.71" width="23.29" height="23.29" transform="translate(1377.26 1871.71) rotate(180)"/><rect class="cls-6" x="751.71" y="936.71" width="23.29" height="23.29" transform="translate(1330.69 1871.71) rotate(180)"/><rect class="cls-6" x="728.43" y="936.71" width="23.29" height="23.29" transform="translate(1284.12 1871.71) rotate(180)"/><rect class="cls-6" x="705.14" y="936.71" width="23.29" height="23.29" transform="translate(1237.55 1871.71) rotate(180)"/><rect class="cls-6" x="658.57" y="936.71" width="23.29" height="23.29" transform="translate(1144.41 1871.71) rotate(180)"/><rect class="cls-6" x="542.14" y="936.71" width="23.29" height="23.29" transform="translate(911.55 1871.71) rotate(180)"/><rect class="cls-6" x="635.29" y="936.71" width="23.29" height="23.29" transform="translate(1097.83 1871.71) rotate(180)"/><rect class="cls-6" x="588.71" y="936.71" width="23.29" height="23.29" transform="translate(1004.69 1871.71) rotate(180)"/><rect class="cls-6" x="565.43" y="936.71" width="23.29" height="23.29" transform="translate(958.12 1871.71) rotate(180)"/><rect class="cls-6" x="518.86" y="936.71" width="23.29" height="23.29" transform="translate(864.98 1871.71) rotate(180)"/><rect class="cls-6" x="495.57" y="936.71" width="23.29" height="23.29" transform="translate(818.41 1871.71) rotate(180)"/><rect class="cls-6" x="472.29" y="936.71" width="23.29" height="23.29" transform="translate(771.83 1871.71) rotate(180)"/><rect class="cls-6" x="449" y="936.71" width="23.29" height="23.29" transform="translate(725.26 1871.71) rotate(180)"/><rect class="cls-6" x="868.14" y="913.43" width="23.29" height="23.29" transform="translate(1563.55 1825.14) rotate(180)"/><rect class="cls-6" x="844.86" y="913.43" width="23.29" height="23.29" transform="translate(1516.98 1825.14) rotate(180)"/><rect class="cls-6" x="821.57" y="913.43" width="23.29" height="23.29" transform="translate(1470.41 1825.14) rotate(180)"/><rect class="cls-6" x="798.29" y="913.43" width="23.29" height="23.29" transform="translate(1423.83 1825.14) rotate(180)"/><rect class="cls-6" x="751.71" y="913.43" width="23.29" height="23.29" transform="translate(1330.69 1825.14) rotate(180)"/><rect class="cls-6" x="705.14" y="913.43" width="23.29" height="23.29" transform="translate(1237.55 1825.14) rotate(180)"/><rect class="cls-6" x="658.57" y="913.43" width="23.29" height="23.29" transform="translate(1144.41 1825.14) rotate(180)"/><rect class="cls-6" x="635.29" y="913.43" width="23.29" height="23.29" transform="translate(1097.83 1825.14) rotate(180)"/><rect class="cls-6" x="588.71" y="913.43" width="23.29" height="23.29" transform="translate(1004.69 1825.14) rotate(180)"/><rect class="cls-6" x="449" y="913.43" width="23.29" height="23.29" transform="translate(725.26 1825.14) rotate(180)"/><rect class="cls-6" x="868.14" y="890.14" width="23.29" height="23.29" transform="translate(1563.55 1778.57) rotate(180)"/><rect class="cls-6" x="775" y="890.14" width="23.29" height="23.29" transform="translate(1377.26 1778.57) rotate(180)"/><rect class="cls-6" x="751.71" y="890.14" width="23.29" height="23.29" transform="translate(1330.69 1778.57) rotate(180)"/><rect class="cls-6" x="542.14" y="890.14" width="23.29" height="23.29" transform="translate(911.55 1778.57) rotate(180)"/><rect class="cls-6" x="588.71" y="890.14" width="23.29" height="23.29" transform="translate(1004.69 1778.57) rotate(180)"/><rect class="cls-6" x="518.86" y="890.14" width="23.29" height="23.29" transform="translate(864.98 1778.57) rotate(180)"/><rect class="cls-6" x="495.57" y="890.14" width="23.29" height="23.29" transform="translate(818.41 1778.57) rotate(180)"/><rect class="cls-6" x="449" y="890.14" width="23.29" height="23.29" transform="translate(725.26 1778.57) rotate(180)"/><rect class="cls-6" x="914.71" y="866.86" width="23.29" height="23.29" transform="translate(1656.69 1732) rotate(180)"/><rect class="cls-6" x="891.43" y="866.86" width="23.29" height="23.29" transform="translate(1610.12 1732) rotate(180)"/><rect class="cls-6" x="821.57" y="866.86" width="23.29" height="23.29" transform="translate(1470.41 1732) rotate(180)"/><rect class="cls-6" x="798.29" y="866.86" width="23.29" height="23.29" transform="translate(1423.83 1732) rotate(180)"/><rect class="cls-6" x="751.71" y="866.86" width="23.29" height="23.29" transform="translate(1330.69 1732) rotate(180)"/><rect class="cls-6" x="728.43" y="866.86" width="23.29" height="23.29" transform="translate(1284.12 1732) rotate(180)"/><rect class="cls-6" x="658.57" y="866.86" width="23.29" height="23.29" transform="translate(1144.41 1732) rotate(180)"/><rect class="cls-6" x="542.14" y="866.86" width="23.29" height="23.29" transform="translate(911.55 1732) rotate(180)"/><rect class="cls-6" x="588.71" y="866.86" width="23.29" height="23.29" transform="translate(1004.69 1732) rotate(180)"/><rect class="cls-6" x="518.86" y="866.86" width="23.29" height="23.29" transform="translate(864.98 1732) rotate(180)"/><rect class="cls-6" x="495.57" y="866.86" width="23.29" height="23.29" transform="translate(818.41 1732) rotate(180)"/><rect class="cls-6" x="449" y="866.86" width="23.29" height="23.29" transform="translate(725.26 1732) rotate(180)"/><rect class="cls-6" x="914.71" y="843.57" width="23.29" height="23.29" transform="translate(1656.69 1685.43) rotate(180)"/><rect class="cls-6" x="891.43" y="843.57" width="23.29" height="23.29" transform="translate(1610.12 1685.43) rotate(180)"/><rect class="cls-6" x="868.14" y="843.57" width="23.29" height="23.29" transform="translate(1563.55 1685.43) rotate(180)"/><rect class="cls-6" x="844.86" y="843.57" width="23.29" height="23.29" transform="translate(1516.98 1685.43) rotate(180)"/><rect class="cls-6" x="821.57" y="843.57" width="23.29" height="23.29" transform="translate(1470.41 1685.43) rotate(180)"/><rect class="cls-6" x="798.29" y="843.57" width="23.29" height="23.29" transform="translate(1423.83 1685.43) rotate(180)"/><rect class="cls-6" x="775" y="843.57" width="23.29" height="23.29" transform="translate(1377.26 1685.43) rotate(180)"/><rect class="cls-6" x="751.71" y="843.57" width="23.29" height="23.29" transform="translate(1330.69 1685.43) rotate(180)"/><rect class="cls-6" x="705.14" y="843.57" width="23.29" height="23.29" transform="translate(1237.55 1685.43) rotate(180)"/><rect class="cls-6" x="542.14" y="843.57" width="23.29" height="23.29" transform="translate(911.55 1685.43) rotate(180)"/><rect class="cls-6" x="635.29" y="843.57" width="23.29" height="23.29" transform="translate(1097.83 1685.43) rotate(180)"/><rect class="cls-6" x="588.71" y="843.57" width="23.29" height="23.29" transform="translate(1004.69 1685.43) rotate(180)"/><rect class="cls-6" x="518.86" y="843.57" width="23.29" height="23.29" transform="translate(864.98 1685.43) rotate(180)"/><rect class="cls-6" x="495.57" y="843.57" width="23.29" height="23.29" transform="translate(818.41 1685.43) rotate(180)"/><rect class="cls-6" x="449" y="843.57" width="23.29" height="23.29" transform="translate(725.26 1685.43) rotate(180)"/><rect class="cls-6" x="914.71" y="820.29" width="23.29" height="23.29" transform="translate(1656.69 1638.86) rotate(180)"/><rect class="cls-6" x="891.43" y="820.29" width="23.29" height="23.29" transform="translate(1610.12 1638.86) rotate(180)"/><rect class="cls-6" x="844.86" y="820.29" width="23.29" height="23.29" transform="translate(1516.98 1638.86) rotate(180)"/><rect class="cls-6" x="821.57" y="820.29" width="23.29" height="23.29" transform="translate(1470.41 1638.86) rotate(180)"/><rect class="cls-6" x="728.43" y="820.29" width="23.29" height="23.29" transform="translate(1284.12 1638.86) rotate(180)"/><rect class="cls-6" x="705.14" y="820.29" width="23.29" height="23.29" transform="translate(1237.55 1638.86) rotate(180)"/><rect class="cls-6" x="658.57" y="820.29" width="23.29" height="23.29" transform="translate(1144.41 1638.86) rotate(180)"/><rect class="cls-6" x="635.29" y="820.29" width="23.29" height="23.29" transform="translate(1097.83 1638.86) rotate(180)"/><rect class="cls-6" x="588.71" y="820.29" width="23.29" height="23.29" transform="translate(1004.69 1638.86) rotate(180)"/><rect class="cls-6" x="449" y="820.29" width="23.29" height="23.29" transform="translate(725.26 1638.86) rotate(180)"/><rect class="cls-6" x="914.71" y="797" width="23.29" height="23.29" transform="translate(1656.69 1592.29) rotate(180)"/><rect class="cls-6" x="821.57" y="797" width="23.29" height="23.29" transform="translate(1470.41 1592.29) rotate(180)"/><rect class="cls-6" x="775" y="797" width="23.29" height="23.29" transform="translate(1377.26 1592.29) rotate(180)"/><rect class="cls-6" x="728.43" y="797" width="23.29" height="23.29" transform="translate(1284.12 1592.29) rotate(180)"/><rect class="cls-6" x="705.14" y="797" width="23.29" height="23.29" transform="translate(1237.55 1592.29) rotate(180)"/><rect class="cls-6" x="681.86" y="797" width="23.29" height="23.29" transform="translate(1190.98 1592.29) rotate(180)"/><rect class="cls-6" x="542.14" y="797" width="23.29" height="23.29" transform="translate(911.55 1592.29) rotate(180)"/><rect class="cls-6" x="635.29" y="797" width="23.29" height="23.29" transform="translate(1097.83 1592.29) rotate(180)"/><rect class="cls-6" x="588.71" y="797" width="23.29" height="23.29" transform="translate(1004.69 1592.29) rotate(180)"/><rect class="cls-6" x="565.43" y="797" width="23.29" height="23.29" transform="translate(958.12 1592.29) rotate(180)"/><rect class="cls-6" x="518.86" y="797" width="23.29" height="23.29" transform="translate(864.98 1592.29) rotate(180)"/><rect class="cls-6" x="495.57" y="797" width="23.29" height="23.29" transform="translate(818.41 1592.29) rotate(180)"/><rect class="cls-6" x="472.29" y="797" width="23.29" height="23.29" transform="translate(771.83 1592.29) rotate(180)"/><rect class="cls-6" x="449" y="797" width="23.29" height="23.29" transform="translate(725.26 1592.29) rotate(180)"/><rect class="cls-6" x="914.71" y="773.71" width="23.29" height="23.29" transform="translate(1656.69 1545.71) rotate(180)"/><rect class="cls-6" x="891.43" y="773.71" width="23.29" height="23.29" transform="translate(1610.12 1545.71) rotate(180)"/><rect class="cls-6" x="868.14" y="773.71" width="23.29" height="23.29" transform="translate(1563.55 1545.71) rotate(180)"/><rect class="cls-6" x="844.86" y="773.71" width="23.29" height="23.29" transform="translate(1516.98 1545.71) rotate(180)"/><rect class="cls-6" x="821.57" y="773.71" width="23.29" height="23.29" transform="translate(1470.41 1545.71) rotate(180)"/><rect class="cls-6" x="681.86" y="773.71" width="23.29" height="23.29" transform="translate(1190.98 1545.71) rotate(180)"/><rect class="cls-6" x="658.57" y="773.71" width="23.29" height="23.29" transform="translate(1144.41 1545.71) rotate(180)"/><rect class="cls-6" x="635.29" y="773.71" width="23.29" height="23.29" transform="translate(1097.83 1545.71) rotate(180)"/><rect class="cls-6" x="914.71" y="750.43" width="23.29" height="23.29" transform="translate(1656.69 1499.14) rotate(180)"/><rect class="cls-6" x="891.43" y="750.43" width="23.29" height="23.29" transform="translate(1610.12 1499.14) rotate(180)"/><rect class="cls-6" x="844.86" y="750.43" width="23.29" height="23.29" transform="translate(1516.98 1499.14) rotate(180)"/><rect class="cls-6" x="821.57" y="750.43" width="23.29" height="23.29" transform="translate(1470.41 1499.14) rotate(180)"/><rect class="cls-6" x="775" y="750.43" width="23.29" height="23.29" transform="translate(1377.26 1499.14) rotate(180)"/><rect class="cls-6" x="751.71" y="750.43" width="23.29" height="23.29" transform="translate(1330.69 1499.14) rotate(180)"/><rect class="cls-6" x="728.43" y="750.43" width="23.29" height="23.29" transform="translate(1284.12 1499.14) rotate(180)"/><rect class="cls-6" x="705.14" y="750.43" width="23.29" height="23.29" transform="translate(1237.55 1499.14) rotate(180)"/><rect class="cls-6" x="658.57" y="750.43" width="23.29" height="23.29" transform="translate(1144.41 1499.14) rotate(180)"/><rect class="cls-6" x="612" y="750.43" width="23.29" height="23.29" transform="translate(1051.26 1499.14) rotate(180)"/><rect class="cls-6" x="588.71" y="750.43" width="23.29" height="23.29" transform="translate(1004.69 1499.14) rotate(180)"/><rect class="cls-6" x="518.86" y="750.43" width="23.29" height="23.29" transform="translate(864.98 1499.14) rotate(180)"/><rect class="cls-6" x="472.29" y="750.43" width="23.29" height="23.29" transform="translate(771.83 1499.14) rotate(180)"/><rect class="cls-6" x="914.71" y="727.14" width="23.29" height="23.29" transform="translate(1656.69 1452.57) rotate(180)"/><rect class="cls-6" x="821.57" y="727.14" width="23.29" height="23.29" transform="translate(1470.41 1452.57) rotate(180)"/><rect class="cls-6" x="798.29" y="727.14" width="23.29" height="23.29" transform="translate(1423.83 1452.57) rotate(180)"/><rect class="cls-6" x="705.14" y="727.14" width="23.29" height="23.29" transform="translate(1237.55 1452.57) rotate(180)"/><rect class="cls-6" x="681.86" y="727.14" width="23.29" height="23.29" transform="translate(1190.98 1452.57) rotate(180)"/><rect class="cls-6" x="658.57" y="727.14" width="23.29" height="23.29" transform="translate(1144.41 1452.57) rotate(180)"/><rect class="cls-6" x="612" y="727.14" width="23.29" height="23.29" transform="translate(1051.26 1452.57) rotate(180)"/><rect class="cls-6" x="495.57" y="727.14" width="23.29" height="23.29" transform="translate(818.41 1452.57) rotate(180)"/><rect class="cls-6" x="891.43" y="703.86" width="23.29" height="23.29" transform="translate(1610.12 1406) rotate(180)"/><rect class="cls-6" x="868.14" y="703.86" width="23.29" height="23.29" transform="translate(1563.55 1406) rotate(180)"/><rect class="cls-6" x="844.86" y="703.86" width="23.29" height="23.29" transform="translate(1516.98 1406) rotate(180)"/><rect class="cls-6" x="821.57" y="703.86" width="23.29" height="23.29" transform="translate(1470.41 1406) rotate(180)"/><rect class="cls-6" x="728.43" y="703.86" width="23.29" height="23.29" transform="translate(1284.12 1406) rotate(180)"/><rect class="cls-6" x="612" y="703.86" width="23.29" height="23.29" transform="translate(1051.26 1406) rotate(180)"/><rect class="cls-6" x="588.71" y="703.86" width="23.29" height="23.29" transform="translate(1004.69 1406) rotate(180)"/><rect class="cls-6" x="495.57" y="703.86" width="23.29" height="23.29" transform="translate(818.41 1406) rotate(180)"/><rect class="cls-6" x="449" y="703.86" width="23.29" height="23.29" transform="translate(725.26 1406) rotate(180)"/><rect class="cls-6" x="891.43" y="680.57" width="23.29" height="23.29" transform="translate(1610.12 1359.43) rotate(180)"/><rect class="cls-6" x="844.86" y="680.57" width="23.29" height="23.29" transform="translate(1516.98 1359.43) rotate(180)"/><rect class="cls-6" x="844.86" y="657.29" width="23.29" height="23.29" transform="translate(1516.98 1312.86) rotate(180)"/><rect class="cls-6" x="821.57" y="680.57" width="23.29" height="23.29" transform="translate(1470.41 1359.43) rotate(180)"/><rect class="cls-6" x="798.29" y="680.57" width="23.29" height="23.29" transform="translate(1423.83 1359.43) rotate(180)"/><rect class="cls-6" x="728.43" y="680.57" width="23.29" height="23.29" transform="translate(1284.12 1359.43) rotate(180)"/><rect class="cls-6" x="658.57" y="680.57" width="23.29" height="23.29" transform="translate(1144.41 1359.43) rotate(180)"/><rect class="cls-6" x="542.14" y="680.57" width="23.29" height="23.29" transform="translate(911.55 1359.43) rotate(180)"/><rect class="cls-6" x="635.29" y="680.57" width="23.29" height="23.29" transform="translate(1097.83 1359.43) rotate(180)"/><rect class="cls-6" x="472.29" y="680.57" width="23.29" height="23.29" transform="translate(771.83 1359.43) rotate(180)"/><rect class="cls-6" x="914.71" y="657.29" width="23.29" height="23.29" transform="translate(1656.69 1312.86) rotate(180)"/><rect class="cls-6" x="891.43" y="657.29" width="23.29" height="23.29" transform="translate(1610.12 1312.86) rotate(180)"/><rect class="cls-6" x="798.29" y="657.29" width="23.29" height="23.29" transform="translate(1423.83 1312.86) rotate(180)"/><rect class="cls-6" x="751.71" y="657.29" width="23.29" height="23.29" transform="translate(1330.69 1312.86) rotate(180)"/><rect class="cls-6" x="705.14" y="657.29" width="23.29" height="23.29" transform="translate(1237.55 1312.86) rotate(180)"/><rect class="cls-6" x="542.14" y="657.29" width="23.29" height="23.29" transform="translate(911.55 1312.86) rotate(180)"/><rect class="cls-6" x="518.86" y="657.29" width="23.29" height="23.29" transform="translate(864.98 1312.86) rotate(180)"/><rect class="cls-6" x="635.29" y="657.29" width="23.29" height="23.29" transform="translate(1097.83 1312.86) rotate(180)"/><rect class="cls-6" x="612" y="657.29" width="23.29" height="23.29" transform="translate(1051.26 1312.86) rotate(180)"/><rect class="cls-6" x="588.71" y="657.29" width="23.29" height="23.29" transform="translate(1004.69 1312.86) rotate(180)"/><rect class="cls-6" x="565.43" y="657.29" width="23.29" height="23.29" transform="translate(958.12 1312.86) rotate(180)"/><rect class="cls-6" x="472.29" y="657.29" width="23.29" height="23.29" transform="translate(771.83 1312.86) rotate(180)"/><rect class="cls-6" x="449" y="657.29" width="23.29" height="23.29" transform="translate(725.26 1312.86) rotate(180)"/><rect class="cls-6" x="705.14" y="634" width="23.29" height="23.29" transform="translate(1237.55 1266.29) rotate(180)"/><rect class="cls-6" x="658.57" y="634" width="23.29" height="23.29" transform="translate(1144.41 1266.29) rotate(180)"/><rect class="cls-6" x="914.71" y="610.71" width="23.29" height="23.29" transform="translate(1656.69 1219.71) rotate(180)"/><rect class="cls-6" x="891.43" y="610.71" width="23.29" height="23.29" transform="translate(1610.12 1219.71) rotate(180)"/><rect class="cls-6" x="868.14" y="610.71" width="23.29" height="23.29" transform="translate(1563.55 1219.71) rotate(180)"/><rect class="cls-6" x="844.86" y="610.71" width="23.29" height="23.29" transform="translate(1516.98 1219.71) rotate(180)"/><rect class="cls-6" x="821.57" y="610.71" width="23.29" height="23.29" transform="translate(1470.41 1219.71) rotate(180)"/><rect class="cls-6" x="798.29" y="610.71" width="23.29" height="23.29" transform="translate(1423.83 1219.71) rotate(180)"/><rect class="cls-6" x="775" y="610.71" width="23.29" height="23.29" transform="translate(1377.26 1219.71) rotate(180)"/><rect class="cls-6" x="728.43" y="587.43" width="23.29" height="23.29" transform="translate(1284.12 1173.14) rotate(180)"/><rect class="cls-6" x="728.43" y="610.71" width="23.29" height="23.29" transform="translate(1284.12 1219.71) rotate(180)"/><rect class="cls-6" x="681.86" y="610.71" width="23.29" height="23.29" transform="translate(1190.98 1219.71) rotate(180)"/><rect class="cls-6" x="542.14" y="610.71" width="23.29" height="23.29" transform="translate(911.55 1219.71) rotate(180)"/><rect class="cls-6" x="635.29" y="610.71" width="23.29" height="23.29" transform="translate(1097.83 1219.71) rotate(180)"/><rect class="cls-6" x="588.71" y="610.71" width="23.29" height="23.29" transform="translate(1004.69 1219.71) rotate(180)"/><rect class="cls-6" x="565.43" y="610.71" width="23.29" height="23.29" transform="translate(958.12 1219.71) rotate(180)"/><rect class="cls-6" x="518.86" y="610.71" width="23.29" height="23.29" transform="translate(864.98 1219.71) rotate(180)"/><rect class="cls-6" x="495.57" y="610.71" width="23.29" height="23.29" transform="translate(818.41 1219.71) rotate(180)"/><rect class="cls-6" x="472.29" y="610.71" width="23.29" height="23.29" transform="translate(771.83 1219.71) rotate(180)"/><rect class="cls-6" x="449" y="610.71" width="23.29" height="23.29" transform="translate(725.26 1219.71) rotate(180)"/><rect class="cls-6" x="914.71" y="587.43" width="23.29" height="23.29" transform="translate(1656.69 1173.14) rotate(180)"/><rect class="cls-6" x="775" y="587.43" width="23.29" height="23.29" transform="translate(1377.26 1173.14) rotate(180)"/><rect class="cls-6" x="681.86" y="587.43" width="23.29" height="23.29" transform="translate(1190.98 1173.14) rotate(180)"/><rect class="cls-6" x="635.29" y="587.43" width="23.29" height="23.29" transform="translate(1097.83 1173.14) rotate(180)"/><rect class="cls-6" x="635.29" y="564.14" width="23.29" height="23.29" transform="translate(1097.83 1126.57) rotate(180)"/><rect class="cls-6" x="588.71" y="587.43" width="23.29" height="23.29" transform="translate(1004.69 1173.14) rotate(180)"/><rect class="cls-6" x="449" y="587.43" width="23.29" height="23.29" transform="translate(725.26 1173.14) rotate(180)"/><rect class="cls-6" x="914.71" y="564.14" width="23.29" height="23.29" transform="translate(1656.69 1126.57) rotate(180)"/><rect class="cls-6" x="868.14" y="564.14" width="23.29" height="23.29" transform="translate(1563.55 1126.57) rotate(180)"/><rect class="cls-6" x="844.86" y="564.14" width="23.29" height="23.29" transform="translate(1516.98 1126.57) rotate(180)"/><rect class="cls-6" x="821.57" y="564.14" width="23.29" height="23.29" transform="translate(1470.41 1126.57) rotate(180)"/><rect class="cls-6" x="775" y="564.14" width="23.29" height="23.29" transform="translate(1377.26 1126.57) rotate(180)"/><rect class="cls-6" x="705.14" y="564.14" width="23.29" height="23.29" transform="translate(1237.55 1126.57) rotate(180)"/><rect class="cls-6" x="542.14" y="564.14" width="23.29" height="23.29" transform="translate(911.55 1126.57) rotate(180)"/><rect class="cls-6" x="588.71" y="564.14" width="23.29" height="23.29" transform="translate(1004.69 1126.57) rotate(180)"/><rect class="cls-6" x="518.86" y="564.14" width="23.29" height="23.29" transform="translate(864.98 1126.57) rotate(180)"/><rect class="cls-6" x="495.57" y="564.14" width="23.29" height="23.29" transform="translate(818.41 1126.57) rotate(180)"/><rect class="cls-6" x="449" y="564.14" width="23.29" height="23.29" transform="translate(725.26 1126.57) rotate(180)"/><rect class="cls-6" x="914.71" y="540.86" width="23.29" height="23.29" transform="translate(1656.69 1080) rotate(180)"/><rect class="cls-6" x="868.14" y="540.86" width="23.29" height="23.29" transform="translate(1563.55 1080) rotate(180)"/><rect class="cls-6" x="844.86" y="540.86" width="23.29" height="23.29" transform="translate(1516.98 1080) rotate(180)"/><rect class="cls-6" x="821.57" y="540.86" width="23.29" height="23.29" transform="translate(1470.41 1080) rotate(180)"/><rect class="cls-6" x="775" y="540.86" width="23.29" height="23.29" transform="translate(1377.26 1080) rotate(180)"/><rect class="cls-6" x="681.86" y="540.86" width="23.29" height="23.29" transform="translate(1190.98 1080) rotate(180)"/><rect class="cls-6" x="542.14" y="540.86" width="23.29" height="23.29" transform="translate(911.55 1080) rotate(180)"/><rect class="cls-6" x="588.71" y="540.86" width="23.29" height="23.29" transform="translate(1004.69 1080) rotate(180)"/><rect class="cls-6" x="518.86" y="540.86" width="23.29" height="23.29" transform="translate(864.98 1080) rotate(180)"/><rect class="cls-6" x="495.57" y="540.86" width="23.29" height="23.29" transform="translate(818.41 1080) rotate(180)"/><rect class="cls-6" x="449" y="540.86" width="23.29" height="23.29" transform="translate(725.26 1080) rotate(180)"/><rect class="cls-6" x="914.71" y="517.57" width="23.29" height="23.29" transform="translate(1656.69 1033.43) rotate(180)"/><rect class="cls-6" x="868.14" y="517.57" width="23.29" height="23.29" transform="translate(1563.55 1033.43) rotate(180)"/><rect class="cls-6" x="844.86" y="517.57" width="23.29" height="23.29" transform="translate(1516.98 1033.43) rotate(180)"/><rect class="cls-6" x="821.57" y="517.57" width="23.29" height="23.29" transform="translate(1470.41 1033.43) rotate(180)"/><rect class="cls-6" x="775" y="517.57" width="23.29" height="23.29" transform="translate(1377.26 1033.43) rotate(180)"/><rect class="cls-6" x="728.43" y="517.57" width="23.29" height="23.29" transform="translate(1284.12 1033.43) rotate(180)"/><rect class="cls-6" x="681.86" y="517.57" width="23.29" height="23.29" transform="translate(1190.98 1033.43) rotate(180)"/><rect class="cls-6" x="542.14" y="517.57" width="23.29" height="23.29" transform="translate(911.55 1033.43) rotate(180)"/><rect class="cls-6" x="635.29" y="517.57" width="23.29" height="23.29" transform="translate(1097.83 1033.43) rotate(180)"/><rect class="cls-6" x="588.71" y="517.57" width="23.29" height="23.29" transform="translate(1004.69 1033.43) rotate(180)"/><rect class="cls-6" x="518.86" y="517.57" width="23.29" height="23.29" transform="translate(864.98 1033.43) rotate(180)"/><rect class="cls-6" x="495.57" y="517.57" width="23.29" height="23.29" transform="translate(818.41 1033.43) rotate(180)"/><rect class="cls-6" x="449" y="517.57" width="23.29" height="23.29" transform="translate(725.26 1033.43) rotate(180)"/><rect class="cls-6" x="914.71" y="494.29" width="23.29" height="23.29" transform="translate(1656.69 986.86) rotate(180)"/><rect class="cls-6" x="775" y="494.29" width="23.29" height="23.29" transform="translate(1377.26 986.86) rotate(180)"/><rect class="cls-6" x="728.43" y="494.29" width="23.29" height="23.29" transform="translate(1284.12 986.86) rotate(180)"/><rect class="cls-6" x="705.14" y="494.29" width="23.29" height="23.29" transform="translate(1237.55 986.86) rotate(180)"/><rect class="cls-6" x="681.86" y="494.29" width="23.29" height="23.29" transform="translate(1190.98 986.86) rotate(180)"/><rect class="cls-6" x="635.29" y="494.29" width="23.29" height="23.29" transform="translate(1097.83 986.86) rotate(180)"/><rect class="cls-6" x="588.71" y="494.29" width="23.29" height="23.29" transform="translate(1004.69 986.86) rotate(180)"/><rect class="cls-6" x="449" y="494.29" width="23.29" height="23.29" transform="translate(725.26 986.86) rotate(180)"/><rect class="cls-6" x="914.71" y="471" width="23.29" height="23.29" transform="translate(1656.69 940.29) rotate(180)"/><rect class="cls-6" x="891.43" y="471" width="23.29" height="23.29" transform="translate(1610.12 940.29) rotate(180)"/><rect class="cls-6" x="868.14" y="471" width="23.29" height="23.29" transform="translate(1563.55 940.29) rotate(180)"/><rect class="cls-6" x="844.86" y="471" width="23.29" height="23.29" transform="translate(1516.98 940.29) rotate(180)"/><rect class="cls-6" x="821.57" y="471" width="23.29" height="23.29" transform="translate(1470.41 940.29) rotate(180)"/><rect class="cls-6" x="798.29" y="471" width="23.29" height="23.29" transform="translate(1423.83 940.29) rotate(180)"/><rect class="cls-6" x="775" y="471" width="23.29" height="23.29" transform="translate(1377.26 940.29) rotate(180)"/><rect class="cls-6" x="705.14" y="471" width="23.29" height="23.29" transform="translate(1237.55 940.29) rotate(180)"/><rect class="cls-6" x="542.14" y="471" width="23.29" height="23.29" transform="translate(911.55 940.29) rotate(180)"/><rect class="cls-6" x="635.29" y="471" width="23.29" height="23.29" transform="translate(1097.83 940.29) rotate(180)"/><rect class="cls-6" x="588.71" y="471" width="23.29" height="23.29" transform="translate(1004.69 940.29) rotate(180)"/><rect class="cls-6" x="565.43" y="471" width="23.29" height="23.29" transform="translate(958.12 940.29) rotate(180)"/><rect class="cls-6" x="518.86" y="471" width="23.29" height="23.29" transform="translate(864.98 940.29) rotate(180)"/><rect class="cls-6" x="495.57" y="471" width="23.29" height="23.29" transform="translate(818.41 940.29) rotate(180)"/><rect class="cls-6" x="472.29" y="471" width="23.29" height="23.29" transform="translate(771.83 940.29) rotate(180)"/><rect class="cls-6" x="449" y="471" width="23.29" height="23.29" transform="translate(725.26 940.29) rotate(180)"/><path class="cls-3" d="M1327.46,806.56c-16.64-131.57-76.22-273.8-82.7-365.26-8.87-124.8,3.06-233-64.19-225.88-97.41,10.25-115,118.66-115,118.66-7,45.92-21.47,101.71-12.77,195.84,6.93,70,57.43,217.05,44.37,237.39Z" transform="translate(-196.02 -25)"/><path class="cls-3" d="M277.84,604.61c-34.88,10.22-72.2,73.51-59.68,97.15,25.3,47.76,108.19,84.82,133.54,84.3,43.11-.88,67.48-58,57.2-87.62S309.41,595.36,277.84,604.61Z" transform="translate(-196.02 -25)"/><path class="cls-3" d="M252.88,786.49c-24.28,5.65-60.59,86.51-41.74,105.26,25.52,25.4,101.4,50.21,124.43,47.32,45.33-5.7,63.58-58.54,46.4-94C369.4,819.11,283.43,779.4,252.88,786.49Z" transform="translate(-196.02 -25)"/><path class="cls-3" d="M255.29,935.23c-29.39,4.07-59.17,67.85-42.83,85.32,22.67,24.24,74,46.78,94.87,45.44,41-2.63,60.29-41.38,46.81-74.18C344.28,967.83,279,932,255.29,935.23Z" transform="translate(-196.02 -25)"/></g></svg>