<?xml version="1.0" encoding="utf-8"?><svg xmlns="http://www.w3.org/2000/svg" xmlns:xlink="http://www.w3.org/1999/xlink" width="400" height="440.00" viewBox="0 0 400 440.00" style="fill: #000000"><rect x="28.82" y="28.82" width="341.88" height="341.88" fill="#ffffff" /><g transform="scale(16.67) translate(0 0)"><path d="M24,21h-1.7V1.7H1.7V21H0l1,2l-1,2h1v2h22v-2h1l-1-2L24,21z M2,2h20v19v1H2v-1V2z" />
                            
                        </g><g transform="scale(0.80) translate(50.00 50.00)"><svg xmlns="http://www.w3.org/2000/svg" version="1.1" width="400" height="400" viewBox="0 0 400 400"><g transform="scale(14.815)"><g transform="translate(1,1)"><path d="M11 0L11 2L10 2L10 3L9 3L9 2L8 2L8 8L9 8L9 11L7 11L7 10L8 10L8 9L7 9L7 8L2 8L2 9L1 9L1 8L0 8L0 9L1 9L1 10L0 10L0 17L1 17L1 13L2 13L2 12L3 12L3 10L2 10L2 9L7 9L7 10L5 10L5 11L7 11L7 12L5 12L5 13L7 13L7 14L6 14L6 15L8 15L8 13L9 13L9 15L10 15L10 13L12 13L12 16L13 16L13 17L11 17L11 16L10 16L10 18L9 18L9 17L8 17L8 16L6 16L6 17L8 17L8 18L9 18L9 19L8 19L8 23L9 23L9 24L8 24L8 25L11 25L11 24L12 24L12 23L13 23L13 24L14 24L14 23L15 23L15 22L17 22L17 21L18 21L18 22L19 22L19 21L20 21L20 23L17 23L17 24L22 24L22 25L25 25L25 24L24 24L24 23L25 23L25 21L23 21L23 22L22 22L22 23L21 23L21 21L22 21L22 19L25 19L25 15L23 15L23 14L22 14L22 15L23 15L23 16L24 16L24 18L22 18L22 19L21 19L21 17L22 17L22 16L18 16L18 15L19 15L19 14L20 14L20 15L21 15L21 13L22 13L22 12L17 12L17 11L19 11L19 10L20 10L20 11L21 11L21 9L23 9L23 8L18 8L18 9L17 9L17 10L15 10L15 9L16 9L16 8L17 8L17 6L16 6L16 5L13 5L13 2L15 2L15 0L14 0L14 1L13 1L13 2L12 2L12 0ZM16 0L16 1L17 1L17 0ZM11 2L11 3L10 3L10 4L12 4L12 2ZM16 2L16 3L14 3L14 4L17 4L17 2ZM9 5L9 8L10 8L10 9L11 9L11 7L12 7L12 6L11 6L11 5ZM10 6L10 7L11 7L11 6ZM13 6L13 9L12 9L12 11L11 11L11 10L10 10L10 11L11 11L11 12L12 12L12 11L13 11L13 12L14 12L14 13L13 13L13 14L14 14L14 16L16 16L16 15L15 15L15 14L14 14L14 13L15 13L15 12L16 12L16 11L15 11L15 12L14 12L14 11L13 11L13 10L14 10L14 8L16 8L16 6L15 6L15 7L14 7L14 6ZM18 9L18 10L19 10L19 9ZM24 9L24 10L25 10L25 9ZM1 10L1 12L2 12L2 10ZM22 10L22 11L23 11L23 10ZM23 12L23 13L24 13L24 14L25 14L25 12ZM3 13L3 14L4 14L4 13ZM16 13L16 14L19 14L19 13ZM3 15L3 16L2 16L2 17L3 17L3 16L5 16L5 15ZM13 17L13 18L16 18L16 17ZM17 17L17 20L20 20L20 17ZM10 18L10 20L9 20L9 23L11 23L11 21L12 21L12 22L15 22L15 21L14 21L14 20L16 20L16 19L14 19L14 20L13 20L13 19L12 19L12 20L11 20L11 18ZM18 18L18 19L19 19L19 18ZM12 20L12 21L13 21L13 20ZM23 22L23 23L22 23L22 24L23 24L23 23L24 23L24 22ZM0 0L7 0L7 7L0 7ZM1 1L1 6L6 6L6 1ZM2 2L5 2L5 5L2 5ZM25 0L25 7L18 7L18 0ZM24 1L19 1L19 6L24 6ZM23 2L23 5L20 5L20 2ZM0 25L0 18L7 18L7 25ZM1 24L6 24L6 19L1 19ZM2 23L2 20L5 20L5 23Z" style="fill-rule: evenodd; fill: #000000" /></g></g></svg></g><svg><text x="50%" y="92%" style="dominant-baseline: middle; text-anchor: middle; font-weight: bold; font-size: 46.15px; fill: #ffffff; font-family: Arial, sans-serif">SCAN ME</text></svg></svg>