<svg id="Layer_1" data-name="Layer 1" xmlns="http://www.w3.org/2000/svg" viewBox="0 0 594.77 686.09"><defs><style>.cls-1{fill:#f6b593;}.cls-2{fill:#fefefe;}.cls-3{fill:#2a658f;}.cls-4{fill:#747a7f;}.cls-5{fill:#6a7176;}.cls-6{fill:#394148;}.cls-7{fill:#abaeb2;}.cls-8{fill:#fcfcfc;}.cls-9{fill:#fafafa;}.cls-10{fill:#3a4349;}.cls-11{fill:#444c52;}.cls-12{fill:#656c71;}.cls-13{fill:#3a434a;}.cls-14{fill:#fdfdfe;}.cls-15{fill:#93979b;}.cls-16{fill:#686f74;}.cls-17{fill:#696f75;}.cls-18{fill:#3d454c;}.cls-19{fill:#91969a;}.cls-20{fill:#374047;}.cls-21{fill:#81878b;}.cls-22{fill:#f9f9fa;}.cls-23{fill:#384148;}.cls-24{fill:#3b444a;}.cls-25{fill:#fbfbfb;}.cls-26{fill:#82888c;}.cls-27{fill:#999ea1;}.cls-28{fill:#40484f;}.cls-29{fill:#fff;}.cls-30{fill:#2e668f;}.cls-31{fill:#3f474e;}.cls-32{fill:#424b51;}.cls-33{fill:#3b434a;}.cls-34{fill:#888d91;}.cls-35{fill:#7a8084;}.cls-36{fill:#4b535a;}.cls-37{fill:#3e464d;}.cls-38{fill:#a0a4a7;}.cls-39{fill:#767b81;}.cls-40{fill:#969b9f;}.cls-41{fill:#3e474e;}.cls-42{fill:#4b545a;}.cls-43{fill:#3c454c;}.cls-44{fill:#434b52;}.cls-45{fill:#394248;}.cls-46{fill:#a5a9ac;}.cls-47{fill:#485057;}.cls-48{fill:#464e54;}.cls-49{fill:#f9f9f9;}.cls-50{fill:#f4f4f5;}.cls-51{fill:#3f484e;}.cls-52{fill:#394249;}.cls-53{fill:#545c62;}.cls-54{fill:#555c62;}</style></defs><path class="cls-1" d="M102.88.73h13l7.14,0q8.68,0,17.36,0l14.13,0,40.08,0h4.37q17.51,0,35-.05,18,0,36,0,10.1,0,20.19,0,9.51,0,19,0h7c3.17,0,6.35,0,9.52,0l2.77,0A36.23,36.23,0,0,1,354,11c6.08,8.05,9.29,15.05,9.32,25.21l0,2.42q0,3.94.06,7.89l.06,5.49q.07,7.22.13,14.41.06,7.36.14,14.72.15,14.43.26,28.86l1.18-2.44,1.59-3.23,1.56-3.19A49.69,49.69,0,0,1,394.81,77.5c7.12-2.06,15.4-3.47,22.46-.57,7.79,5.73,9.89,16.57,11.3,25.57.74,6,1,12.07,1.32,18.13.11,2.37.24,4.73.36,7.1q.5,9.17.95,18.35c1.46,28.82,7.78,55.55,15.45,83.27,8.76,31.68,16.82,62.92,19.94,95.72.48,4.56,1,9.12,1.59,13.68,2.08,16.79,4.06,33.56,5.38,50.44,2.67,33.92,5.77,68.06,11.5,101.62l.46,2.68c2.3,12.83,5.36,23.57,14.17,33.39l1.6,1.82q2.34,2.65,4.71,5.3l2.54,2.84,4.46,4.95c1.8,2,3.56,4,5.31,6,6.78,7.78,13.78,15.38,21.14,22.61,1.64,1.67,3.16,3.42,4.68,5.21,3.76,4.38,7.86,8.41,12,12.45,2.83,2.79,5.52,5.63,8.11,8.65,3.64,4.18,7.48,8.1,11.43,12l2.14,2.13,6.7,6.65,8.84,8.78,2,2c3.83,3.82,7.47,7.74,11,11.86a12.53,12.53,0,0,0,3.73,3.43c2.86,3.64,2.42,6.86,2.31,11.36l0,2.61c0,2.74-.07,5.48-.12,8.22,0,1.86,0,3.72,0,5.58q-.08,6.84-.2,13.67-43.66.4-87.34.61l-10.32,0h-2.08q-16.61.08-33.23.26-17.05.17-34.12.2-9.57,0-19.15.14-9,.12-18,.09-3.32,0-6.61.07c-17.49.35-17.49.35-22.8-4A57.33,57.33,0,0,1,371,673c-1.19-1.39-2.39-2.78-3.62-4.12L365.72,667c-3.52-4-7.12-8-10.72-12l-1.54-1.7A178.08,178.08,0,0,0,336,635.69c-1.51-1.28-3-2.61-4.4-4-14.24-13.53-31.49-22.4-48.75-31.48-23-12.09-44.51-24.6-63.66-42.29l-1.78-1.64-1.74-1.65-1.74-1.6a17.22,17.22,0,0,1-3.41-4.55c-2.59-3.93-5.08-6.89-9.81-8.07-7.19-.93-14.44-.67-21.68-.55l-7.09,0q-9.31,0-18.63.11c-8.75.07-17.5.07-26.25.08q-7,0-14,.07l-6.4,0-2.89,0c-11.28,0-19.35-2.27-27.76-10-11.45-12.07-10.73-25.14-10.54-40.82q0-3.43,0-6.88,0-9,.13-18c0-6.14.07-12.28.1-18.42Q65.84,428,66,410l1.65-.77,2.17-1.05,2.15-1c3.93-2.25,6.08-5.52,8.34-9.41,1.62-6.46,1.56-12.9-1.69-18.82-2.14-2.54-4.6-4.1-7.37-5.93-5.06-3.38-5.06-3.38-6-6.28A21.26,21.26,0,0,1,66,361l2.56-.23C78.38,359.64,83.15,356.85,90,350V494H343V36H90V250c-5.09-2.55-9-6.05-13.31-9.78a8.92,8.92,0,0,0-3.93-2.1A15.74,15.74,0,0,1,66,233c-1.4-6.42-1.18-12.8-1.09-19.34q0-3,0-6c0-5.44,0-10.88.07-16.32,0-5.7,0-11.4,0-17.1q0-14.35.11-28.72.11-16.57.1-33.16,0-17.68.08-35.35c0-3.39,0-6.77,0-10.16q0-8,.08-16c0-1.95,0-3.9,0-5.86,0-14.23,1-24.06,11.23-34.77C84.53,2.87,92.27.7,102.88.73Z" transform="translate(-17.71 -0.47)"/><path class="cls-2" d="M90,36H343V494H90L89,352l-8,7c-5.57,3.37-12.23,2.53-18.39,1.35-32.23-8-32.23-8-39.86-19.19-2.95-8.52.93-18.2,4.5-25.91,3-5.64,6.37-10.67,11.75-14.25,9.28-1.27,18.66.83,27,5v-9l-2.52-.75c-14.2-5.09-28.72-14.93-36.54-28.08-2.21-5.1-1.78-9,.17-14.09C32,243.68,38.48,234.26,49,229c10.88-1.45,20,4.55,28.37,10.87,2.58,2,5.11,4.06,7.63,6.13l5,4Z" transform="translate(-17.71 -0.47)"/><path class="cls-3" d="M102.88.73h13l7.14,0q8.68,0,17.36,0l14.13,0,40.08,0h4.37q17.51,0,35-.05,18,0,36,0,10.1,0,20.19,0,9.51,0,19,0h7c3.17,0,6.35,0,9.52,0l2.77,0A36.23,36.23,0,0,1,354,11c6.13,8.11,9.3,15.12,9.29,25.35l0,2.48c0,2.69,0,5.39,0,8.08,0,1.9,0,3.79,0,5.69,0,4,0,7.95,0,11.92,0,5,0,10.08.06,15.12q0,5.88,0,11.76c0,1.85,0,3.7,0,5.56a150.69,150.69,0,0,1-4,36c-6,27-6.36,59.31.58,86.13,3.57,14.14,3.54,28,3.49,42.52q0,4.1,0,8.21,0,9.92,0,19.84,0,8.07,0,16.13v7q0,21.9,0,43.8,0,18.76,0,37.53,0,21.85,0,43.71v4.66c0,1.14,0,1.14,0,2.31q0,8.07,0,16.12,0,9.81,0,19.63c0,3.34,0,6.67,0,10q0,5.41,0,10.85c0,1.57,0,1.57,0,3.17a35.79,35.79,0,0,1-10.17,25.13c-12.09,11.44-24.77,11-40.5,10.85h-7.05q-9.56,0-19.09,0-9,0-18,0-17.81,0-35.61-.06-17.26-.06-34.52-.06H187.92q-17.49,0-35,0l-11.9,0q-9.34,0-18.71,0h-6.86l-9.37,0h-2.73c-11.08-.09-19.08-2.49-27.34-10.07-11.45-12.07-10.73-25.14-10.54-40.82q0-3.43,0-6.88,0-9,.13-18c0-6.14.07-12.28.1-18.42Q65.84,428,66,410l1.65-.77,2.17-1.05,2.15-1c3.93-2.25,6.08-5.52,8.34-9.41,1.62-6.46,1.56-12.9-1.69-18.82-2.14-2.54-4.6-4.1-7.37-5.93-5.06-3.38-5.06-3.38-6-6.28A21.26,21.26,0,0,1,66,361l2.56-.23C78.38,359.64,83.15,356.85,90,350V494H343V36H90V250c-5.09-2.55-9-6.05-13.31-9.78a8.92,8.92,0,0,0-3.93-2.1A15.74,15.74,0,0,1,66,233c-1.4-6.42-1.18-12.8-1.09-19.34q0-3,0-6c0-5.44,0-10.88.07-16.32,0-5.7,0-11.4,0-17.1q0-14.35.11-28.72.11-16.57.1-33.16,0-17.68.08-35.35c0-3.39,0-6.77,0-10.16q0-8,.08-16c0-1.95,0-3.9,0-5.86,0-14.23,1-24.06,11.23-34.77C84.53,2.87,92.27.7,102.88.73Z" transform="translate(-17.71 -0.47)"/><path class="cls-4" d="M191,213h10v27h8V222h10v-9h9v9h9v19h-9v18h-9V241h-9v9h-9v9h9v10H192v26h8V277h28v9h27v-9h10v-9h-9V250h9v9h9v-9h9v18h9V250h18v9h-8v18h9q0,12.5.05,25c0,3.87,0,7.73,0,11.6s0,7.46,0,11.19c0,1.42,0,2.85,0,4.27v9.41C311,341,311,341,310,342c-1.34.09-2.69.11-4,.1h-2.2l-2.82,0L292,342v27h-9v-9h-9v9H219V351h9v9h9V342h18v9h-9v9h10v-9h27V341h9v-8H274v8H256v-9H237v-9h-9v9h-9V314h-9v10h-9v8h9v10H200v-9h-9V296H173V286h9v-9h-9v-9h18v-9H164v9H154v-9h-8v-9h54v-9h-9Z" transform="translate(-17.71 -0.47)"/><path class="cls-1" d="M58,229c10.26,3.82,18.67,10,27,17l2.79,2.29c5.85,5,14.48,12.58,15.45,20.71A36.52,36.52,0,0,1,99,288q-2,2.08-4.11,4.05c-4.24,4.64-4.81,8.11-4.74,14.29l.16,3.29,0,3.31A35.5,35.5,0,0,0,94,329c1.27,8.79-.43,15.68-5.32,23-3.94,5.08-8.49,8.31-14.89,9.41-15.9.82-35.31-7.58-48-16.7a10.8,10.8,0,0,1-4-8.42C22.57,323.65,27.15,312.17,36,303c4.73-3.15,9.46-2.54,15-2a69.94,69.94,0,0,1,15,5v-9l-2.52-.75c-14.2-5.09-28.72-14.93-36.54-28.08-2.21-5.1-1.78-9,.17-14.09C32.85,241.88,42.58,226.47,58,229Z" transform="translate(-17.71 -0.47)"/><path class="cls-5" d="M246,176l31.94-.06,10.09,0h19.42C310,176,310,176,311,177c.09,2,.12,4,.11,6v3.94c0,1.39,0,2.78,0,4.17v3.81q0,7.08,0,14.15c0,10.54,0,21.08-.06,31.94H246Z" transform="translate(-17.71 -0.47)"/><path class="cls-6" d="M118,176h64v65H118Z" transform="translate(-17.71 -0.47)"/><path class="cls-2" d="M118,305h64v64H118Z" transform="translate(-17.71 -0.47)"/><path class="cls-1" d="M54.12,301.62C67.26,305.32,84.19,312.19,92,324c3,6.11,3.08,13,1.31,19.54-3,7.38-7.69,13.56-15.13,16.8C64.37,364.53,46.33,356.1,34,350c-10.25-5.93-10.25-5.93-12-11-.88-12.85,4.39-24.54,12.39-34.33C39.76,299.1,47,300.21,54.12,301.62Z" transform="translate(-17.71 -0.47)"/><path class="cls-7" d="M191,213h10v27h8V222h10v-9h9v9h9v19h-9v18h-9V241h-9v9h-9v9h9v10H192v26h8v37h-9V296H173V286h9v-9h-9v-9h18v-9H164v9H154v-9h-8v-9h54v-9h-9Z" transform="translate(-17.71 -0.47)"/><path class="cls-1" d="M66,135v75c-18-9-37.55-30.31-45-49l-.89-2.16c-2.56-6.79-3.53-13.2-.61-20a22.82,22.82,0,0,1,12.36-10.44C44.46,126.21,54.81,129.4,66,135Z" transform="translate(-17.71 -0.47)"/><path class="cls-1" d="M51.15,360.88A85.49,85.49,0,0,1,72,372l1.88,1.28a20.71,20.71,0,0,1,8.5,14.18c.32,6.91-1.32,12.13-6,17.3-5.18,4.83-10.91,6.84-18.07,6.62-12.6-2-25.24-9.67-34.35-18.38-2-4.06-1.4-8.43-.32-12.69C28.24,366.72,35.89,356.61,51.15,360.88Z" transform="translate(-17.71 -0.47)"/><path class="cls-8" d="M127,186h46v45H127Z" transform="translate(-17.71 -0.47)"/><path class="cls-9" d="M256,186h45v45H256Z" transform="translate(-17.71 -0.47)"/><path class="cls-10" d="M118,305h64v64H118Zm9,9v46h46V314Z" transform="translate(-17.71 -0.47)"/><path class="cls-11" d="M256,250h9v9h9v-9h9v18h9V250h18v9h-9v18H274v9h9v10h9v9H274v9h9v10h9v8H273v-8h-8V286h-9v-9h9v-9h-9Z" transform="translate(-17.71 -0.47)"/><path class="cls-12" d="M274,277h27v9l9,1v45H292v-8h-9V314h-9v-9h18v-9h-9V286h-9Z" transform="translate(-17.71 -0.47)"/><path class="cls-13" d="M237,342h18v9h-9v9h10v-9h27v-9h9v27h-9v-9h-9v9H219V351h9v9h9Z" transform="translate(-17.71 -0.47)"/><path class="cls-14" d="M210,241h9v18h18v18H200v18h-8V269h18V259h-9v-9h9Z" transform="translate(-17.71 -0.47)"/><path class="cls-2" d="M256,287h8v36H237V305H219v-9h37Z" transform="translate(-17.71 -0.47)"/><path class="cls-15" d="M228,323h9v9h19v9h18v-8h18v8h-9v10H256v9H246v-9h9v-9H228v-9h-9v-1h9Z" transform="translate(-17.71 -0.47)"/><path class="cls-16" d="M301,259h1v18h9q0,12.5.05,25c0,3.87,0,7.73,0,11.6s0,7.46,0,11.19c0,1.42,0,2.85,0,4.27v9.41C311,341,311,341,310,342c-2,.09-4,.11-6,.1h-3.69l-3.87,0h-3.89L283,342v-1h9v-8H274v8H256v-9H237v-9l13.5-.06,3.84,0A115.16,115.16,0,0,1,273,324v8h28v-8h1v8h8V287H292v-1h9Z" transform="translate(-17.71 -0.47)"/><path class="cls-17" d="M136,323h28v28H136Z" transform="translate(-17.71 -0.47)"/><path class="cls-18" d="M136,195h28v27H136Z" transform="translate(-17.71 -0.47)"/><path class="cls-19" d="M246,176l25-.05,11.6,0h11.19l4.27,0h9.41C310,176,310,176,311,177c.09,2,.12,4,.11,6v3.88c0,1.41,0,2.82,0,4.23s0,2.86,0,4.3q0,5.67,0,11.34t0,11.56q0,11.35-.05,22.7h-1v-9H255V186h1v45h45V186H265v-1h36v-8H246Z" transform="translate(-17.71 -0.47)"/><path class="cls-20" d="M265,195h27v27H265Z" transform="translate(-17.71 -0.47)"/><path class="cls-10" d="M146,250h54v18h-9v-9H164v9H154v-9h-8Z" transform="translate(-17.71 -0.47)"/><path class="cls-21" d="M219,177h9v8h9v19h-9v-9h-9v18H209q0-6.72-.06-13.44l0-3.87v-7.1C209,186,209,186,210,185c1.52-.07,3-.08,4.56-.06l2.51,0,1.93,0Z" transform="translate(-17.71 -0.47)"/><path class="cls-22" d="M219,213h9v9h9v19h-9v18h-9Z" transform="translate(-17.71 -0.47)"/><path class="cls-23" d="M210,296h9v9h18v18h-9v9h-9V314h-9Z" transform="translate(-17.71 -0.47)"/><path class="cls-23" d="M118,195h9v37h18v8H118Z" transform="translate(-17.71 -0.47)"/><path class="cls-24" d="M118,176h64v1H155v8h18v1H127v9h-9Z" transform="translate(-17.71 -0.47)"/><path class="cls-25" d="M274,333h18v8h-9v10H256v-9h18Z" transform="translate(-17.71 -0.47)"/><path class="cls-26" d="M301,259h1v18h9q0,12.5.05,25c0,3.87,0,7.73,0,11.6s0,7.46,0,11.19c0,1.42,0,2.85,0,4.27v9.41C311,341,311,341,310,342c-2,.09-4,.11-6,.1h-3.69l-3.87,0h-3.89L283,342v-1h9v-8H274v-1h27v-8h1v8h8V287H292v-1h9Z" transform="translate(-17.71 -0.47)"/><path class="cls-9" d="M363,238a43.86,43.86,0,0,1,3.66,10.57l.44,1.92c.32,1.34.62,2.68.93,4q.69,3,1.4,6.05C375,284.7,375,284.7,374,292l-2,3h-9Z" transform="translate(-17.71 -0.47)"/><path class="cls-27" d="M136,268h10v18h8c1,1,1,1,1.1,3.07L155,296H145v-9h-9v9h-9V286h9Z" transform="translate(-17.71 -0.47)"/><path class="cls-28" d="M191,351h19v18H191Z" transform="translate(-17.71 -0.47)"/><path class="cls-22" d="M274,277h27v9h-9v10h-9V286h-9Z" transform="translate(-17.71 -0.47)"/><path class="cls-29" d="M274,305h27v9h-9v9h-9v-9h-9Z" transform="translate(-17.71 -0.47)"/><path class="cls-30" d="M66,297l2.59,1a30.79,30.79,0,0,0,10,1.2l3.32,0c3.46-.11,3.46-.11,8.12-1.17v23l-9-6c-1.74-1.1-3.49-2.19-5.25-3.25l-2.39-1.45A55.12,55.12,0,0,0,66,307Z" transform="translate(-17.71 -0.47)"/><path class="cls-31" d="M191,296h9v36h-9Z" transform="translate(-17.71 -0.47)"/><path class="cls-32" d="M219,287h36v9H219Z" transform="translate(-17.71 -0.47)"/><path class="cls-33" d="M155,177h27v18h-9V185H155Z" transform="translate(-17.71 -0.47)"/><path class="cls-23" d="M265,177h36v8H265Z" transform="translate(-17.71 -0.47)"/><path class="cls-34" d="M191,176h9c1,1,1,1,1.11,3.59v7.1l0,3.87v3.89c0,3.18,0,6.37-.05,9.55H191Z" transform="translate(-17.71 -0.47)"/><path class="cls-35" d="M127,231h46v1h-9v8h18v1H118v-1h27v-8H127Z" transform="translate(-17.71 -0.47)"/><path class="cls-36" d="M191,213h9v28h-9Z" transform="translate(-17.71 -0.47)"/><path class="cls-37" d="M173,268h18v18h-9v-9h-9Z" transform="translate(-17.71 -0.47)"/><path class="cls-20" d="M118,250h18v18h-9v-9h-9Z" transform="translate(-17.71 -0.47)"/><path class="cls-38" d="M201,305h9v19h-9v8h9v10H200v-9h-9v-1h9v-9h9v-9h-8Z" transform="translate(-17.71 -0.47)"/><path class="cls-20" d="M302,296h8v27h-8Z" transform="translate(-17.71 -0.47)"/><path class="cls-20" d="M265,296h8v27h-8Z" transform="translate(-17.71 -0.47)"/><path class="cls-20" d="M265,232h27v8H265Z" transform="translate(-17.71 -0.47)"/><path class="cls-20" d="M302,195h8v27h-8Z" transform="translate(-17.71 -0.47)"/><path class="cls-20" d="M247,195h8v27h-8Z" transform="translate(-17.71 -0.47)"/><path class="cls-39" d="M118,176h64v1H155v8h18v1H127v-1h19v-8H118Z" transform="translate(-17.71 -0.47)"/><path class="cls-40" d="M301,259h1v18h9v64h-1V287H292v-1h9Z" transform="translate(-17.71 -0.47)"/><path class="cls-41" d="M228,222h9v19h-9Z" transform="translate(-17.71 -0.47)"/><path class="cls-42" d="M210,222h9v19h-9Z" transform="translate(-17.71 -0.47)"/><path class="cls-20" d="M274,296h18v9H274Z" transform="translate(-17.71 -0.47)"/><path class="cls-43" d="M173,287h18v9H173Z" transform="translate(-17.71 -0.47)"/><path class="cls-44" d="M136,268h9v18h-9Z" transform="translate(-17.71 -0.47)"/><path class="cls-45" d="M228,259h9v18h-9Z" transform="translate(-17.71 -0.47)"/><path class="cls-20" d="M274,250h9v18h-9Z" transform="translate(-17.71 -0.47)"/><path class="cls-45" d="M219,241h9v18h-9Z" transform="translate(-17.71 -0.47)"/><path class="cls-23" d="M228,333h18v8H228Z" transform="translate(-17.71 -0.47)"/><path class="cls-20" d="M274,324h18v8H274Z" transform="translate(-17.71 -0.47)"/><path class="cls-20" d="M274,269h18v8H274Z" transform="translate(-17.71 -0.47)"/><path class="cls-20" d="M210,195h8v18h-8Z" transform="translate(-17.71 -0.47)"/><path class="cls-20" d="M219,186h18v8H219Z" transform="translate(-17.71 -0.47)"/><path class="cls-46" d="M255,277h1v9h9v37h-1V287h-8v9h-1v-9H228v-1h27Z" transform="translate(-17.71 -0.47)"/><path class="cls-47" d="M301,360h10v9H301Z" transform="translate(-17.71 -0.47)"/><path class="cls-48" d="M246,305h10v9H246Z" transform="translate(-17.71 -0.47)"/><path class="cls-48" d="M146,250h9v18h-1v-9h-8Z" transform="translate(-17.71 -0.47)"/><path class="cls-49" d="M246,351h9v9h-9Z" transform="translate(-17.71 -0.47)"/><path class="cls-49" d="M228,323h9v9h-9Z" transform="translate(-17.71 -0.47)"/><path class="cls-20" d="M274,314h9v9h-9Z" transform="translate(-17.71 -0.47)"/><path class="cls-50" d="M210,287h9v9h-9Z" transform="translate(-17.71 -0.47)"/><path class="cls-43" d="M127,287h9v9h-9Z" transform="translate(-17.71 -0.47)"/><path class="cls-43" d="M118,268h9v9h-9Z" transform="translate(-17.71 -0.47)"/><path class="cls-51" d="M201,259h9v9h-9Z" transform="translate(-17.71 -0.47)"/><path class="cls-52" d="M237,250h9v9h-9Z" transform="translate(-17.71 -0.47)"/><path class="cls-20" d="M219,213h9v9h-9Z" transform="translate(-17.71 -0.47)"/><path class="cls-20" d="M228,195h9v9h-9Z" transform="translate(-17.71 -0.47)"/><path class="cls-53" d="M273,287h1v8h9v1h-9v27h9v1h-9v8h-1v-8h-8v-1h8V296h-8v-1h8Z" transform="translate(-17.71 -0.47)"/><path class="cls-52" d="M136,342h9v8h-9Z" transform="translate(-17.71 -0.47)"/><path class="cls-52" d="M265,333h9v8h-9Z" transform="translate(-17.71 -0.47)"/><path class="cls-49" d="M246,333h9v8h-9Z" transform="translate(-17.71 -0.47)"/><path class="cls-52" d="M237,324h9v8h-9Z" transform="translate(-17.71 -0.47)"/><path class="cls-52" d="M136,324h9v8h-9Z" transform="translate(-17.71 -0.47)"/><path class="cls-20" d="M293,314h8v9h-8Z" transform="translate(-17.71 -0.47)"/><path class="cls-20" d="M201,314h8v9h-8Z" transform="translate(-17.71 -0.47)"/><path class="cls-29" d="M201,305h8v9h-8Z" transform="translate(-17.71 -0.47)"/><path class="cls-20" d="M293,296h8v9h-8Z" transform="translate(-17.71 -0.47)"/><path class="cls-20" d="M201,296h8v9h-8Z" transform="translate(-17.71 -0.47)"/><path class="cls-20" d="M274,287h9v8h-9Z" transform="translate(-17.71 -0.47)"/><path class="cls-20" d="M219,278h9v8h-9Z" transform="translate(-17.71 -0.47)"/><path class="cls-20" d="M182,278h9v8h-9Z" transform="translate(-17.71 -0.47)"/><path class="cls-20" d="M265,259h8v9h-8Z" transform="translate(-17.71 -0.47)"/><path class="cls-20" d="M192,195h8v9h-8Z" transform="translate(-17.71 -0.47)"/><path class="cls-20" d="M219,177h9v8h-9Z" transform="translate(-17.71 -0.47)"/><path class="cls-20" d="M247,342h8v8h-8Z" transform="translate(-17.71 -0.47)"/><path class="cls-20" d="M238,342h8v8h-8Z" transform="translate(-17.71 -0.47)"/><path class="cls-20" d="M155,342h8v8h-8Z" transform="translate(-17.71 -0.47)"/><path class="cls-20" d="M146,342h8v8h-8Z" transform="translate(-17.71 -0.47)"/><path class="cls-20" d="M302,333h8v8h-8Z" transform="translate(-17.71 -0.47)"/><path class="cls-20" d="M293,333h8v8h-8Z" transform="translate(-17.71 -0.47)"/><path class="cls-20" d="M256,333h8v8h-8Z" transform="translate(-17.71 -0.47)"/><path class="cls-20" d="M201,333h8v8h-8Z" transform="translate(-17.71 -0.47)"/><path class="cls-20" d="M155,333h8v8h-8Z" transform="translate(-17.71 -0.47)"/><path class="cls-20" d="M146,333h8v8h-8Z" transform="translate(-17.71 -0.47)"/><path class="cls-20" d="M137,333h8v8h-8Z" transform="translate(-17.71 -0.47)"/><path class="cls-20" d="M302,324h8v8h-8Z" transform="translate(-17.71 -0.47)"/><path class="cls-20" d="M293,324h8v8h-8Z" transform="translate(-17.71 -0.47)"/><path class="cls-20" d="M265,324h8v8h-8Z" transform="translate(-17.71 -0.47)"/><path class="cls-20" d="M256,324h8v8h-8Z" transform="translate(-17.71 -0.47)"/><path class="cls-20" d="M247,324h8v8h-8Z" transform="translate(-17.71 -0.47)"/><path class="cls-20" d="M192,324h8v8h-8Z" transform="translate(-17.71 -0.47)"/><path class="cls-20" d="M155,324h8v8h-8Z" transform="translate(-17.71 -0.47)"/><path class="cls-20" d="M146,324h8v8h-8Z" transform="translate(-17.71 -0.47)"/><path class="cls-20" d="M302,287h8v8h-8Z" transform="translate(-17.71 -0.47)"/><path class="cls-20" d="M293,287h8v8h-8Z" transform="translate(-17.71 -0.47)"/><path class="cls-20" d="M265,287h8v8h-8Z" transform="translate(-17.71 -0.47)"/><path class="cls-20" d="M247,287h8v8h-8Z" transform="translate(-17.71 -0.47)"/><path class="cls-20" d="M238,287h8v8h-8Z" transform="translate(-17.71 -0.47)"/><path class="cls-20" d="M201,287h8v8h-8Z" transform="translate(-17.71 -0.47)"/><path class="cls-20" d="M146,287h8v8h-8Z" transform="translate(-17.71 -0.47)"/><path class="cls-20" d="M302,278h8v8h-8Z" transform="translate(-17.71 -0.47)"/><path class="cls-20" d="M265,278h8v8h-8Z" transform="translate(-17.71 -0.47)"/><path class="cls-20" d="M256,278h8v8h-8Z" transform="translate(-17.71 -0.47)"/><path class="cls-20" d="M210,278h8v8h-8Z" transform="translate(-17.71 -0.47)"/><path class="cls-20" d="M201,278h8v8h-8Z" transform="translate(-17.71 -0.47)"/><path class="cls-20" d="M137,278h8v8h-8Z" transform="translate(-17.71 -0.47)"/><path class="cls-20" d="M293,269h8v8h-8Z" transform="translate(-17.71 -0.47)"/><path class="cls-20" d="M265,269h8v8h-8Z" transform="translate(-17.71 -0.47)"/><path class="cls-20" d="M201,241h8v8h-8Z" transform="translate(-17.71 -0.47)"/><path class="cls-20" d="M302,232h8v8h-8Z" transform="translate(-17.71 -0.47)"/><path class="cls-20" d="M293,232h8v8h-8Z" transform="translate(-17.71 -0.47)"/><path class="cls-20" d="M256,232h8v8h-8Z" transform="translate(-17.71 -0.47)"/><path class="cls-20" d="M247,232h8v8h-8Z" transform="translate(-17.71 -0.47)"/><path class="cls-20" d="M210,232h8v8h-8Z" transform="translate(-17.71 -0.47)"/><path class="cls-20" d="M192,232h8v8h-8Z" transform="translate(-17.71 -0.47)"/><path class="cls-20" d="M155,232h8v8h-8Z" transform="translate(-17.71 -0.47)"/><path class="cls-20" d="M146,232h8v8h-8Z" transform="translate(-17.71 -0.47)"/><path class="cls-20" d="M302,223h8v8h-8Z" transform="translate(-17.71 -0.47)"/><path class="cls-20" d="M247,223h8v8h-8Z" transform="translate(-17.71 -0.47)"/><path class="cls-20" d="M192,223h8v8h-8Z" transform="translate(-17.71 -0.47)"/><path class="cls-20" d="M302,186h8v8h-8Z" transform="translate(-17.71 -0.47)"/><path class="cls-20" d="M247,186h8v8h-8Z" transform="translate(-17.71 -0.47)"/><path class="cls-20" d="M210,186h8v8h-8Z" transform="translate(-17.71 -0.47)"/><path class="cls-20" d="M192,186h8v8h-8Z" transform="translate(-17.71 -0.47)"/><path class="cls-20" d="M302,177h8v8h-8Z" transform="translate(-17.71 -0.47)"/><path class="cls-20" d="M256,177h8v8h-8Z" transform="translate(-17.71 -0.47)"/><path class="cls-20" d="M247,177h8v8h-8Z" transform="translate(-17.71 -0.47)"/><path class="cls-20" d="M192,177h8v8h-8Z" transform="translate(-17.71 -0.47)"/><path class="cls-54" d="M273,259h1v9h9v1h-9v8h-1v-8h-8v-1h8Z" transform="translate(-17.71 -0.47)"/></svg>