<svg id="Layer_1" data-name="Layer 1" xmlns="http://www.w3.org/2000/svg" viewBox="0 0 594.77 685.83"><defs><style>.cls-1{fill:#f6b593;}.cls-2{fill:#fefefe;}.cls-3{fill:#7c3aed;}.cls-4{fill:#747a7f;}.cls-5{fill:#6a7176;}.cls-6{fill:#394148;}.cls-7{fill:#abaeb2;}.cls-8{fill:#fcfcfc;}.cls-9{fill:#fafafa;}.cls-10{fill:#3a4349;}.cls-11{fill:#444c52;}.cls-12{fill:#656c71;}.cls-13{fill:#3a434a;}.cls-14{fill:#fdfdfe;}.cls-15{fill:#93979b;}.cls-16{fill:#686f74;}.cls-17{fill:#696f75;}.cls-18{fill:#3d454c;}.cls-19{fill:#91969a;}.cls-20{fill:#374047;}.cls-21{fill:#81878b;}.cls-22{fill:#f9f9fa;}.cls-23{fill:#384148;}.cls-24{fill:#3b444a;}.cls-25{fill:#fbfbfb;}.cls-26{fill:#82888c;}.cls-27{fill:#999ea1;}.cls-28{fill:#40484f;}.cls-29{fill:#fff;}.cls-30{fill:#3f474e;}.cls-31{fill:#424b51;}.cls-32{fill:#3b434a;}.cls-33{fill:#888d91;}.cls-34{fill:#7a8084;}.cls-35{fill:#4b535a;}.cls-36{fill:#3e464d;}.cls-37{fill:#a0a4a7;}.cls-38{fill:#767b81;}.cls-39{fill:#969b9f;}.cls-40{fill:#3e474e;}.cls-41{fill:#4b545a;}.cls-42{fill:#3c454c;}.cls-43{fill:#434b52;}.cls-44{fill:#394248;}.cls-45{fill:#a5a9ac;}.cls-46{fill:#485057;}.cls-47{fill:#464e54;}.cls-48{fill:#f9f9f9;}.cls-49{fill:#f4f4f5;}.cls-50{fill:#3f484e;}.cls-51{fill:#394249;}.cls-52{fill:#545c62;}.cls-53{fill:#555c62;}</style></defs><path class="cls-1" d="M85.17.26h96.08q17.5,0,35-.05h94.48a36.25,36.25,0,0,1,25.56,10.32c6.08,8,9.29,15.05,9.32,25.21v2.42q0,3.95.06,7.89l.06,5.49q.07,7.22.13,14.41.06,7.36.14,14.72.15,14.43.26,28.86l1.18-2.44,1.59-3.23,1.56-3.19A49.64,49.64,0,0,1,377.1,77c7.12-2.06,15.4-3.47,22.46-.57,7.79,5.73,9.89,16.57,11.3,25.57.74,6,1,12.07,1.32,18.13.11,2.37.24,4.73.36,7.1q.49,9.17.95,18.35c1.46,28.82,7.78,55.55,15.45,83.27,8.76,31.68,16.82,62.92,19.94,95.72.48,4.56,1,9.12,1.59,13.68,2.08,16.79,4.06,33.56,5.38,50.44,2.67,33.92,5.77,68.06,11.5,101.62l.46,2.68c2.3,12.83,5.36,23.57,14.17,33.39l1.6,1.82c1.56,1.77,3.13,3.53,4.71,5.3l2.54,2.84,4.46,5c1.8,2,3.56,4,5.31,6,6.78,7.78,13.78,15.38,21.14,22.61,1.64,1.67,3.16,3.42,4.68,5.21,3.76,4.38,7.86,8.41,12,12.45,2.83,2.79,5.52,5.63,8.11,8.65,3.64,4.18,7.48,8.1,11.43,12l2.14,2.13,6.7,6.65,8.84,8.78,2,2c3.83,3.82,7.47,7.74,11,11.86a12.59,12.59,0,0,0,3.73,3.43c2.86,3.64,2.42,6.86,2.31,11.36v2.61c0,2.74-.07,5.48-.12,8.22v5.58q-.07,6.84-.2,13.67-43.67.4-87.34.61h-12.4q-16.61.08-33.23.26-17.06.17-34.12.2-9.57,0-19.15.14-9,.12-18,.09c-2.21,0-4.42,0-6.61.07-17.49.35-17.49.35-22.8-4a57.79,57.79,0,0,1-7.42-9.37c-1.19-1.39-2.39-2.78-3.62-4.12L348,666.53c-3.52-4-7.12-8-10.72-12l-1.54-1.7a178.06,178.06,0,0,0-17.46-17.61c-1.51-1.28-3-2.61-4.4-4-14.24-13.53-31.49-22.4-48.75-31.48-23-12.09-44.51-24.6-63.66-42.29l-1.78-1.64L198,554.16l-1.74-1.6a17.28,17.28,0,0,1-3.41-4.55c-2.59-3.93-5.08-6.89-9.81-8.07-7.19-.93-14.44-.67-21.68-.55h-7.09q-9.31,0-18.63.11c-8.75.07-17.5.07-26.25.08q-7,0-14,.07H86.06c-11.28,0-19.35-2.27-27.76-10-11.45-12.07-10.73-25.14-10.54-40.82V482q0-9,.13-18c0-6.14.07-12.28.1-18.42q.13-18,.3-36l1.65-.77,2.17-1.05,2.15-1c3.93-2.25,6.08-5.52,8.34-9.41,1.62-6.46,1.56-12.9-1.69-18.82-2.14-2.54-4.6-4.1-7.37-5.93-5.06-3.38-5.06-3.38-6-6.28a21.39,21.39,0,0,1,.75-5.74l2.56-.23c9.82-1.13,14.59-3.92,21.44-10.77v144h253v-458h-253v214c-5.09-2.55-9-6.05-13.31-9.78a8.94,8.94,0,0,0-3.93-2.1,15.77,15.77,0,0,1-6.76-5.12c-1.4-6.42-1.18-12.8-1.09-19.34v-6c0-5.44,0-10.88.07-16.32v-17.1q0-14.36.11-28.72.1-16.58.1-33.16,0-17.69.08-35.35V66.38q0-8,.08-16V44.52c0-14.23,1-24.06,11.23-34.77C66.82,2.4,74.56.23,85.17.26Z" transform="translate(0 -0.21)"/><path class="cls-2" d="M72.29,35.53h253v458h-253l-1-142-8,7c-5.57,3.37-12.23,2.53-18.39,1.35-32.23-8-32.23-8-39.86-19.19-2.95-8.52.93-18.2,4.5-25.91,3-5.64,6.37-10.67,11.75-14.25,9.28-1.27,18.66.83,27,5v-9l-2.52-.75c-14.2-5.09-28.72-14.93-36.54-28.08-2.21-5.1-1.78-9,.17-14.09,4.89-10.4,11.37-19.82,21.89-25.08,10.88-1.45,20,4.55,28.37,10.87,2.58,2,5.11,4.06,7.63,6.13l5,4Z" transform="translate(0 -0.21)"/><path class="cls-3" d="M85.17.26h96.08q17.5,0,35-.05h94.48a36.25,36.25,0,0,1,25.56,10.32c6.13,8.11,9.3,15.12,9.29,25.35V64.05c0,5,0,10.08.06,15.12V96.49a150.44,150.44,0,0,1-4,36c-6,27-6.36,59.31.58,86.13,3.57,14.14,3.54,28,3.49,42.52v243a35.79,35.79,0,0,1-10.17,25.13c-12.09,11.44-24.77,11-40.5,10.85H250.9q-17.81,0-35.61-.06Q198,540,180.77,540H85.64c-11.08-.09-19.08-2.49-27.34-10.07-11.45-12.07-10.73-25.14-10.54-40.82v-6.88q0-9,.13-18c0-6.14.07-12.28.1-18.42q.13-18.24.3-36.24l1.65-.77,2.17-1.05,2.15-1c3.93-2.25,6.08-5.52,8.34-9.41,1.62-6.46,1.56-12.9-1.69-18.82-2.14-2.54-4.6-4.1-7.37-5.93-5.06-3.38-5.06-3.38-6-6.28a21.39,21.39,0,0,1,.75-5.74l2.56-.23c9.82-1.13,14.59-3.92,21.44-10.77v144h253v-458h-253v214c-5.09-2.55-9-6.05-13.31-9.78a8.94,8.94,0,0,0-3.93-2.1,15.77,15.77,0,0,1-6.76-5.12c-1.4-6.42-1.18-12.8-1.09-19.34v-6c0-5.44,0-10.88.07-16.32v-17.1q0-14.36.11-28.72.1-16.58.1-33.16,0-17.69.08-35.35V66.38q0-8,.08-16V44.52c0-14.23,1-24.06,11.23-34.77C66.82,2.4,74.56.23,85.17.26Z" transform="translate(0 -0.21)"/><path class="cls-4" d="M173.29,212.53h10v27h8v-18h10v-9h9v9h9v19h-9v18h-9v-18h-9v9h-9v9h9v10h-18v26h8v-18h28v9h27v-9h10v-9h-9v-18h9v9h9v-9h9v18h9v-18h18v9h-8v18h9q0,12.5,0,25V338c0,2.53,0,2.53-1,3.53-1.34.09-2.69.11-4,.1h-5l-9-.1v27h-9v-9h-9v9h-55v-18h9v9h9v-18h18v9h-9v9h10v-9h27v-10h9v-8h-18v8h-18v-9h-19v-9h-9v9h-9v-18h-9v10h-9v8h9v10h-10v-9h-9v-37h-18v-10h9v-9h-9v-9h18v-9h-27v9h-10v-9h-8v-9h54v-9h-9Z" transform="translate(0 -0.21)"/><path class="cls-1" d="M40.29,228.53c10.26,3.82,18.67,10,27,17l2.79,2.29c5.85,5,14.48,12.58,15.45,20.71a36.5,36.5,0,0,1-4.24,19q-2,2.09-4.11,4.05c-4.24,4.64-4.81,8.11-4.74,14.29l.16,3.29v3.31a35.49,35.49,0,0,0,3.69,16.06c1.27,8.79-.43,15.68-5.32,23-3.94,5.08-8.49,8.31-14.89,9.41-15.9.82-35.31-7.58-48-16.7a10.79,10.79,0,0,1-4-8.42c.78-12.64,5.36-24.12,14.21-33.29,4.73-3.15,9.46-2.54,15-2a69.57,69.57,0,0,1,15,5v-9l-2.52-.75c-14.2-5.09-28.72-14.93-36.54-28.08-2.21-5.1-1.78-9,.17-14.09C15.14,241.41,24.87,226,40.29,228.53Z" transform="translate(0 -0.21)"/><path class="cls-5" d="M228.29,175.53l31.94-.06h29.51c2.55.06,2.55.06,3.55,1.06.09,2,.12,4,.11,6V208.6c0,10.54,0,21.08-.06,31.94h-65Z" transform="translate(0 -0.21)"/><path class="cls-6" d="M100.29,175.53h64v65h-64Z" transform="translate(0 -0.21)"/><path class="cls-2" d="M100.29,304.53h64v64h-64Z" transform="translate(0 -0.21)"/><path class="cls-1" d="M36.41,301.15c13.14,3.7,30.07,10.57,37.88,22.38,3,6.11,3.08,13,1.31,19.54-3,7.38-7.69,13.56-15.13,16.8-13.81,4.19-31.85-4.24-44.18-10.34C6,343.6,6,343.6,4.29,338.53,3.41,325.68,8.68,314,16.68,304.2,22.05,298.63,29.29,299.74,36.41,301.15Z" transform="translate(0 -0.21)"/><path class="cls-7" d="M173.29,212.53h10v27h8v-18h10v-9h9v9h9v19h-9v18h-9v-18h-9v9h-9v9h9v10h-18v26h8v37h-9v-36h-18v-10h9v-9h-9v-9h18v-9h-27v9h-10v-9h-8v-9h54v-9h-9Z" transform="translate(0 -0.21)"/><path class="cls-1" d="M48.29,134.53v75c-18-9-37.55-30.31-45-49l-.89-2.16c-2.56-6.79-3.53-13.2-.61-20a22.82,22.82,0,0,1,12.36-10.44C26.75,125.74,37.1,128.93,48.29,134.53Z" transform="translate(0 -0.21)"/><path class="cls-1" d="M33.44,360.41a85.49,85.49,0,0,1,20.85,11.12l1.88,1.28A20.7,20.7,0,0,1,64.67,387c.32,6.91-1.32,12.13-6,17.3-5.18,4.83-10.91,6.84-18.07,6.62-12.6-2-25.24-9.67-34.35-18.38-2-4.06-1.4-8.43-.32-12.69C10.53,366.25,18.18,356.14,33.44,360.41Z" transform="translate(0 -0.21)"/><path class="cls-8" d="M109.29,185.53h46v45h-46Z" transform="translate(0 -0.21)"/><path class="cls-9" d="M238.29,185.53h45v45h-45Z" transform="translate(0 -0.21)"/><path class="cls-10" d="M100.29,304.53h64v64h-64Zm9,9v46h46v-46Z" transform="translate(0 -0.21)"/><path class="cls-11" d="M238.29,249.53h9v9h9v-9h9v18h9v-18h18v9h-9v18h-27v9h9v10h9v9h-18v9h9v10h9v8h-19v-8h-8v-38h-9v-9h9v-9h-9Z" transform="translate(0 -0.21)"/><path class="cls-12" d="M256.29,276.53h27v9l9,1v45h-18v-8h-9v-10h-9v-9h18v-9h-9v-10h-9Z" transform="translate(0 -0.21)"/><path class="cls-13" d="M219.29,341.53h18v9h-9v9h10v-9h27v-9h9v27h-9v-9h-9v9h-55v-18h9v9h9Z" transform="translate(0 -0.21)"/><path class="cls-14" d="M192.29,240.53h9v18h18v18h-37v18h-8v-26h18v-10h-9v-9h9Z" transform="translate(0 -0.21)"/><path class="cls-2" d="M238.29,286.53h8v36h-27v-18h-18v-9h37Z" transform="translate(0 -0.21)"/><path class="cls-15" d="M210.29,322.53h9v9h19v9h18v-8h18v8h-9v10h-27v9h-10v-9h9v-9h-27v-9h-9v-1h9Z" transform="translate(0 -0.21)"/><path class="cls-16" d="M283.29,258.53h1v18h9q0,12.5,0,25V338c0,2.53,0,2.53-1,3.53-2,.09-4,.11-6,.1H274.84l-9.55-.1v-1h9v-8h-18v8h-18v-9h-19v-9l13.5-.06h3.84a115.27,115.27,0,0,1,18.66,1.06v8h28v-8h1v8h8v-45h-18v-1h9Z" transform="translate(0 -0.21)"/><path class="cls-17" d="M118.29,322.53h28v28h-28Z" transform="translate(0 -0.21)"/><path class="cls-18" d="M118.29,194.53h28v27h-28Z" transform="translate(0 -0.21)"/><path class="cls-19" d="M228.29,175.53l25-.05h36.47c2.53.05,2.53.05,3.53,1.05.09,2,.12,4,.11,6v35.31q0,11.35,0,22.7h-1v-9H237.29v-46h1v45h45v-45h-36v-1h36v-8h-55Z" transform="translate(0 -0.21)"/><path class="cls-20" d="M247.29,194.53h27v27h-27Z" transform="translate(0 -0.21)"/><path class="cls-10" d="M128.29,249.53h54v18h-9v-9h-27v9h-10v-9h-8Z" transform="translate(0 -0.21)"/><path class="cls-21" d="M201.29,176.53h9v8h9v19h-9v-9h-9v18h-10q0-6.72-.06-13.44v-11c.06-2.59.06-2.59,1.06-3.59,1.52-.07,3-.08,4.56-.06h4.44Z" transform="translate(0 -0.21)"/><path class="cls-22" d="M201.29,212.53h9v9h9v19h-9v18h-9Z" transform="translate(0 -0.21)"/><path class="cls-23" d="M192.29,295.53h9v9h18v18h-9v9h-9v-18h-9Z" transform="translate(0 -0.21)"/><path class="cls-23" d="M100.29,194.53h9v37h18v8h-27Z" transform="translate(0 -0.21)"/><path class="cls-24" d="M100.29,175.53h64v1h-27v8h18v1h-46v9h-9Z" transform="translate(0 -0.21)"/><path class="cls-25" d="M256.29,332.53h18v8h-9v10h-27v-9h18Z" transform="translate(0 -0.21)"/><path class="cls-26" d="M283.29,258.53h1v18h9q0,12.5,0,25V338c0,2.53,0,2.53-1,3.53-2,.09-4,.11-6,.1H274.84l-9.55-.1v-1h9v-8h-18v-1h27v-8h1v8h8v-45h-18v-1h9Z" transform="translate(0 -0.21)"/><path class="cls-9" d="M345.29,237.53A43.42,43.42,0,0,1,349,248.1l.44,1.92c.32,1.34.62,2.68.93,4q.69,3,1.4,6c5.57,24.16,5.57,24.16,4.57,31.46l-2,3h-9Z" transform="translate(0 -0.21)"/><path class="cls-27" d="M118.29,267.53h10v18h8c1,1,1,1,1.1,3.07l-.1,6.93h-10v-9h-9v9h-9v-10h9Z" transform="translate(0 -0.21)"/><path class="cls-28" d="M173.29,350.53h19v18h-19Z" transform="translate(0 -0.21)"/><path class="cls-22" d="M256.29,276.53h27v9h-9v10h-9v-10h-9Z" transform="translate(0 -0.21)"/><path class="cls-29" d="M256.29,304.53h27v9h-9v9h-9v-9h-9Z" transform="translate(0 -0.21)"/><path class="cls-3" d="M48.29,296.53l2.59,1a30.7,30.7,0,0,0,10,1.2H64.2c3.46-.11,3.46-.11,8.12-1.17v23l-9-6c-1.74-1.1-3.49-2.19-5.25-3.25l-2.39-1.45a55.67,55.67,0,0,0-7.39-3.33Z" transform="translate(0 -0.21)"/><path class="cls-30" d="M173.29,295.53h9v36h-9Z" transform="translate(0 -0.21)"/><path class="cls-31" d="M201.29,286.53h36v9h-36Z" transform="translate(0 -0.21)"/><path class="cls-32" d="M137.29,176.53h27v18h-9v-10h-18Z" transform="translate(0 -0.21)"/><path class="cls-23" d="M247.29,176.53h36v8h-36Z" transform="translate(0 -0.21)"/><path class="cls-33" d="M173.29,175.53h9c1,1,1,1,1.11,3.59V194c0,3.18,0,6.37-.05,9.55H173.29Z" transform="translate(0 -0.21)"/><path class="cls-34" d="M109.29,230.53h46v1h-9v8h18v1h-64v-1h27v-8h-18Z" transform="translate(0 -0.21)"/><path class="cls-35" d="M173.29,212.53h9v28h-9Z" transform="translate(0 -0.21)"/><path class="cls-36" d="M155.29,267.53h18v18h-9v-9h-9Z" transform="translate(0 -0.21)"/><path class="cls-20" d="M100.29,249.53h18v18h-9v-9h-9Z" transform="translate(0 -0.21)"/><path class="cls-37" d="M183.29,304.53h9v19h-9v8h9v10h-10v-9h-9v-1h9v-9h9v-9h-8Z" transform="translate(0 -0.21)"/><path class="cls-20" d="M284.29,295.53h8v27h-8Z" transform="translate(0 -0.21)"/><path class="cls-20" d="M247.29,295.53h8v27h-8Z" transform="translate(0 -0.21)"/><path class="cls-20" d="M247.29,231.53h27v8h-27Z" transform="translate(0 -0.21)"/><path class="cls-20" d="M284.29,194.53h8v27h-8Z" transform="translate(0 -0.21)"/><path class="cls-20" d="M229.29,194.53h8v27h-8Z" transform="translate(0 -0.21)"/><path class="cls-38" d="M100.29,175.53h64v1h-27v8h18v1h-46v-1h19v-8h-28Z" transform="translate(0 -0.21)"/><path class="cls-39" d="M283.29,258.53h1v18h9v64h-1v-54h-18v-1h9Z" transform="translate(0 -0.21)"/><path class="cls-40" d="M210.29,221.53h9v19h-9Z" transform="translate(0 -0.21)"/><path class="cls-41" d="M192.29,221.53h9v19h-9Z" transform="translate(0 -0.21)"/><path class="cls-20" d="M256.29,295.53h18v9h-18Z" transform="translate(0 -0.21)"/><path class="cls-42" d="M155.29,286.53h18v9h-18Z" transform="translate(0 -0.21)"/><path class="cls-43" d="M118.29,267.53h9v18h-9Z" transform="translate(0 -0.21)"/><path class="cls-44" d="M210.29,258.53h9v18h-9Z" transform="translate(0 -0.21)"/><path class="cls-20" d="M256.29,249.53h9v18h-9Z" transform="translate(0 -0.21)"/><path class="cls-44" d="M201.29,240.53h9v18h-9Z" transform="translate(0 -0.21)"/><path class="cls-23" d="M210.29,332.53h18v8h-18Z" transform="translate(0 -0.21)"/><path class="cls-20" d="M256.29,323.53h18v8h-18Z" transform="translate(0 -0.21)"/><path class="cls-20" d="M256.29,268.53h18v8h-18Z" transform="translate(0 -0.21)"/><path class="cls-20" d="M192.29,194.53h8v18h-8Z" transform="translate(0 -0.21)"/><path class="cls-20" d="M201.29,185.53h18v8h-18Z" transform="translate(0 -0.21)"/><path class="cls-45" d="M237.29,276.53h1v9h9v37h-1v-36h-8v9h-1v-9h-27v-1h27Z" transform="translate(0 -0.21)"/><path class="cls-46" d="M283.29,359.53h10v9h-10Z" transform="translate(0 -0.21)"/><path class="cls-47" d="M228.29,304.53h10v9h-10Z" transform="translate(0 -0.21)"/><path class="cls-47" d="M128.29,249.53h9v18h-1v-9h-8Z" transform="translate(0 -0.21)"/><path class="cls-48" d="M228.29,350.53h9v9h-9Z" transform="translate(0 -0.21)"/><path class="cls-48" d="M210.29,322.53h9v9h-9Z" transform="translate(0 -0.21)"/><path class="cls-20" d="M256.29,313.53h9v9h-9Z" transform="translate(0 -0.21)"/><path class="cls-49" d="M192.29,286.53h9v9h-9Z" transform="translate(0 -0.21)"/><path class="cls-42" d="M109.29,286.53h9v9h-9Z" transform="translate(0 -0.21)"/><path class="cls-42" d="M100.29,267.53h9v9h-9Z" transform="translate(0 -0.21)"/><path class="cls-50" d="M183.29,258.53h9v9h-9Z" transform="translate(0 -0.21)"/><path class="cls-51" d="M219.29,249.53h9v9h-9Z" transform="translate(0 -0.21)"/><path class="cls-20" d="M201.29,212.53h9v9h-9Z" transform="translate(0 -0.21)"/><path class="cls-20" d="M210.29,194.53h9v9h-9Z" transform="translate(0 -0.21)"/><path class="cls-52" d="M255.29,286.53h1v8h9v1h-9v27h9v1h-9v8h-1v-8h-8v-1h8v-27h-8v-1h8Z" transform="translate(0 -0.21)"/><path class="cls-51" d="M118.29,341.53h9v8h-9Z" transform="translate(0 -0.21)"/><path class="cls-51" d="M247.29,332.53h9v8h-9Z" transform="translate(0 -0.21)"/><path class="cls-48" d="M228.29,332.53h9v8h-9Z" transform="translate(0 -0.21)"/><path class="cls-51" d="M219.29,323.53h9v8h-9Z" transform="translate(0 -0.21)"/><path class="cls-51" d="M118.29,323.53h9v8h-9Z" transform="translate(0 -0.21)"/><path class="cls-20" d="M275.29,313.53h8v9h-8Z" transform="translate(0 -0.21)"/><path class="cls-20" d="M183.29,313.53h8v9h-8Z" transform="translate(0 -0.21)"/><path class="cls-29" d="M183.29,304.53h8v9h-8Z" transform="translate(0 -0.21)"/><path class="cls-20" d="M275.29,295.53h8v9h-8Z" transform="translate(0 -0.21)"/><path class="cls-20" d="M183.29,295.53h8v9h-8Z" transform="translate(0 -0.21)"/><path class="cls-20" d="M256.29,286.53h9v8h-9Z" transform="translate(0 -0.21)"/><path class="cls-20" d="M201.29,277.53h9v8h-9Z" transform="translate(0 -0.21)"/><path class="cls-20" d="M164.29,277.53h9v8h-9Z" transform="translate(0 -0.21)"/><path class="cls-20" d="M247.29,258.53h8v9h-8Z" transform="translate(0 -0.21)"/><path class="cls-20" d="M174.29,194.53h8v9h-8Z" transform="translate(0 -0.21)"/><path class="cls-20" d="M201.29,176.53h9v8h-9Z" transform="translate(0 -0.21)"/><path class="cls-20" d="M229.29,341.53h8v8h-8Z" transform="translate(0 -0.21)"/><path class="cls-20" d="M220.29,341.53h8v8h-8Z" transform="translate(0 -0.21)"/><path class="cls-20" d="M137.29,341.53h8v8h-8Z" transform="translate(0 -0.21)"/><path class="cls-20" d="M128.29,341.53h8v8h-8Z" transform="translate(0 -0.21)"/><path class="cls-20" d="M284.29,332.53h8v8h-8Z" transform="translate(0 -0.21)"/><path class="cls-20" d="M275.29,332.53h8v8h-8Z" transform="translate(0 -0.21)"/><path class="cls-20" d="M238.29,332.53h8v8h-8Z" transform="translate(0 -0.21)"/><path class="cls-20" d="M183.29,332.53h8v8h-8Z" transform="translate(0 -0.21)"/><path class="cls-20" d="M137.29,332.53h8v8h-8Z" transform="translate(0 -0.21)"/><path class="cls-20" d="M128.29,332.53h8v8h-8Z" transform="translate(0 -0.21)"/><path class="cls-20" d="M119.29,332.53h8v8h-8Z" transform="translate(0 -0.21)"/><path class="cls-20" d="M284.29,323.53h8v8h-8Z" transform="translate(0 -0.21)"/><path class="cls-20" d="M275.29,323.53h8v8h-8Z" transform="translate(0 -0.21)"/><path class="cls-20" d="M247.29,323.53h8v8h-8Z" transform="translate(0 -0.21)"/><path class="cls-20" d="M238.29,323.53h8v8h-8Z" transform="translate(0 -0.21)"/><path class="cls-20" d="M229.29,323.53h8v8h-8Z" transform="translate(0 -0.21)"/><path class="cls-20" d="M174.29,323.53h8v8h-8Z" transform="translate(0 -0.21)"/><path class="cls-20" d="M137.29,323.53h8v8h-8Z" transform="translate(0 -0.21)"/><path class="cls-20" d="M128.29,323.53h8v8h-8Z" transform="translate(0 -0.21)"/><path class="cls-20" d="M284.29,286.53h8v8h-8Z" transform="translate(0 -0.21)"/><path class="cls-20" d="M275.29,286.53h8v8h-8Z" transform="translate(0 -0.21)"/><path class="cls-20" d="M247.29,286.53h8v8h-8Z" transform="translate(0 -0.21)"/><path class="cls-20" d="M229.29,286.53h8v8h-8Z" transform="translate(0 -0.21)"/><path class="cls-20" d="M220.29,286.53h8v8h-8Z" transform="translate(0 -0.21)"/><path class="cls-20" d="M183.29,286.53h8v8h-8Z" transform="translate(0 -0.21)"/><path class="cls-20" d="M128.29,286.53h8v8h-8Z" transform="translate(0 -0.21)"/><path class="cls-20" d="M284.29,277.53h8v8h-8Z" transform="translate(0 -0.21)"/><path class="cls-20" d="M247.29,277.53h8v8h-8Z" transform="translate(0 -0.21)"/><path class="cls-20" d="M238.29,277.53h8v8h-8Z" transform="translate(0 -0.21)"/><path class="cls-20" d="M192.29,277.53h8v8h-8Z" transform="translate(0 -0.21)"/><path class="cls-20" d="M183.29,277.53h8v8h-8Z" transform="translate(0 -0.21)"/><path class="cls-20" d="M119.29,277.53h8v8h-8Z" transform="translate(0 -0.21)"/><path class="cls-20" d="M275.29,268.53h8v8h-8Z" transform="translate(0 -0.21)"/><path class="cls-20" d="M247.29,268.53h8v8h-8Z" transform="translate(0 -0.21)"/><path class="cls-20" d="M183.29,240.53h8v8h-8Z" transform="translate(0 -0.21)"/><path class="cls-20" d="M284.29,231.53h8v8h-8Z" transform="translate(0 -0.21)"/><path class="cls-20" d="M275.29,231.53h8v8h-8Z" transform="translate(0 -0.21)"/><path class="cls-20" d="M238.29,231.53h8v8h-8Z" transform="translate(0 -0.21)"/><path class="cls-20" d="M229.29,231.53h8v8h-8Z" transform="translate(0 -0.21)"/><path class="cls-20" d="M192.29,231.53h8v8h-8Z" transform="translate(0 -0.21)"/><path class="cls-20" d="M174.29,231.53h8v8h-8Z" transform="translate(0 -0.21)"/><path class="cls-20" d="M137.29,231.53h8v8h-8Z" transform="translate(0 -0.21)"/><path class="cls-20" d="M128.29,231.53h8v8h-8Z" transform="translate(0 -0.21)"/><path class="cls-20" d="M284.29,222.53h8v8h-8Z" transform="translate(0 -0.21)"/><path class="cls-20" d="M229.29,222.53h8v8h-8Z" transform="translate(0 -0.21)"/><path class="cls-20" d="M174.29,222.53h8v8h-8Z" transform="translate(0 -0.21)"/><path class="cls-20" d="M284.29,185.53h8v8h-8Z" transform="translate(0 -0.21)"/><path class="cls-20" d="M229.29,185.53h8v8h-8Z" transform="translate(0 -0.21)"/><path class="cls-20" d="M192.29,185.53h8v8h-8Z" transform="translate(0 -0.21)"/><path class="cls-20" d="M174.29,185.53h8v8h-8Z" transform="translate(0 -0.21)"/><path class="cls-20" d="M284.29,176.53h8v8h-8Z" transform="translate(0 -0.21)"/><path class="cls-20" d="M238.29,176.53h8v8h-8Z" transform="translate(0 -0.21)"/><path class="cls-20" d="M229.29,176.53h8v8h-8Z" transform="translate(0 -0.21)"/><path class="cls-20" d="M174.29,176.53h8v8h-8Z" transform="translate(0 -0.21)"/><path class="cls-53" d="M255.29,258.53h1v9h9v1h-9v8h-1v-8h-8v-1h8Z" transform="translate(0 -0.21)"/></svg>