<?xml version="1.0" encoding="utf-8"?>
<!-- Generator: Adobe Illustrator 25.4.1, SVG Export Plug-In . SVG Version: 6.00 Build 0)  -->
<svg version="1.1" id="Layer_1" xmlns="http://www.w3.org/2000/svg" xmlns:xlink="http://www.w3.org/1999/xlink" x="0px" y="0px"
	 viewBox="0 0 1569 389" style="enable-background:new 0 0 1569 389;" xml:space="preserve">
<style type="text/css">
	.st0{fill:#FFFFFF;stroke:#818285;stroke-miterlimit:10;}
	.st1{fill:none;}
	.st2{fill:url(#XMLID_00000165946653350909274320000015680400347969608867_);}
	.st3{fill:url(#XMLID_00000161624377026516317440000002580644818071815867_);}
	.st4{fill:url(#XMLID_00000053519994070617420560000008824227798654288313_);}
	.st5{fill:#167EC2;}
	.st6{fill:#010101;}
	.st7{fill:url(#XMLID_00000029767642864649972400000001686025987696911285_);}
	.st8{fill:url(#XMLID_00000057832157144021291220000014235965248409533076_);}
	.st9{fill:url(#XMLID_00000034060334074605830740000009730796360900332682_);}
	.st10{fill:url(#XMLID_00000136377087905206195280000003379816222411116461_);}
	.st11{fill:url(#XMLID_00000025443984153767098280000008574719620737469584_);}
	.st12{fill:url(#XMLID_00000104680086445648477240000017333208355103781018_);}
	.st13{fill:url(#XMLID_00000078734878378261486500000002959386124522996122_);}
	.st14{fill:url(#XMLID_00000106111811510704668100000012525279086330635199_);}
	.st15{fill:#FFFFFF;}
</style>
<g>
	<path id="XMLID_1320_" class="st0" d="M372.1,193.4L189.9,11.3h-0.1L9.6,194.1v0.1l112.1,113.3c0.1,0.1,0,0.1-0.1,0.1H30.8
		c-3.7,0-6.7,3-6.7,6.7v57c0,4.3,3.4,7.6,7.6,7.6H349c3.6,0,6.6-3,6.6-6.6v-58.6c0-3.4-2.7-6.1-6.1-6.1h-90.1
		c-0.1,0-0.1-0.1-0.1-0.1L372,193.6C372.2,193.5,372.2,193.5,372.1,193.4z"/>
	<g id="XMLID_42_">
		<g id="XMLID_1306_">
			<polygon id="XMLID_1319_" class="st1" points="197.3,292.8 187,304.3 196,304.3 206.8,292.8 			"/>
			<polygon id="XMLID_1318_" class="st1" points="218.9,292.8 208.6,304.3 217.6,304.3 228.3,292.8 			"/>
			<polygon id="XMLID_1317_" class="st1" points="175.8,292.8 165.4,304.3 174.6,304.3 185.3,292.8 			"/>
			<polygon id="XMLID_1316_" class="st1" points="154.3,292.8 143.9,304.3 153,304.3 163.8,292.8 			"/>
			<path id="XMLID_1313_" class="st1" d="M290.6,237.1c7.9,0,13.2-1.7,16.4-3.1l-1.5-6.6c-3.4,1.4-7.2,2.6-13.7,2.6
				c-8.9,0-16.7-5-16.9-17.4h34.6c0.1-0.9,0.3-2.5,0.3-4.3c0-9.2-4.3-23.6-20.3-23.6c-14.3,0-23.1,11.9-23.1,27.1
				C266.3,227.1,275.3,237.1,290.6,237.1z M288.6,191.4c10.1,0,12.5,9,12.4,14.9h-26C275.7,199.8,279.6,191.4,288.6,191.4z"/>
			
				<linearGradient id="XMLID_00000041998765491665559010000007730579185481898141_" gradientUnits="userSpaceOnUse" x1="603.9731" y1="474.584" x2="603.9731" y2="352.4079" gradientTransform="matrix(2.6667 0 0 -2.6667 -1380.7151 1294.7089)">
				<stop  offset="0" style="stop-color:#2BACE2"/>
				<stop  offset="0.4095" style="stop-color:#1284C7"/>
				<stop  offset="0.8157" style="stop-color:#0F60AD"/>
				<stop  offset="1" style="stop-color:#07519F"/>
			</linearGradient>
			<path id="XMLID_1310_" style="fill:url(#XMLID_00000041998765491665559010000007730579185481898141_);" d="M154.3,292.8h9.4
				L153,304.3h12.4l10.3-11.5h9.4l-10.7,11.5h12.4l10.3-11.5h9.4l-10.7,11.5h12.4l10.3-11.5h9.4l-10.7,11.5H248l75.7-75.7
				c-0.6-2.3-0.9-5.2-0.9-8.4v-27.4h-7.6v-7h7.6v-12l8.8-2.3V186h12.8v7h-12.8v27.1c0,0.3,0,0.6,0,0.9l26.7-26.7L191,26.6
				l-57.9,57.9c27.8-1,51.3,20.1,50.5,61.1L209,90.8h32.5l-58.2,117.3c-2.5,6.3-2.7,56,29.7,28.7c0,0,0.1-0.3,0.4-0.5v-36.5
				c0-5.2-0.1-9.4-0.4-13.6h7.9l0.5,8.3h0.3c2.5-4.8,8.1-9.4,16.3-9.4c6.8,0,17.4,4.1,17.4,21.3v30h-8.9v-28.9
				c0-8.1-3-14.9-11.4-14.9c-5.9,0-10.5,4.3-12,9.3c-0.4,1.2-0.6,2.7-0.6,4.3v28.9c0,0.1,0,0.3,0,0.4v0.9l0,0
				c-7.6,20.5-60.8,68.1-55.1-9.4c-12.5,22-40.2,40.8-65.9,45.2l26.3,26.3l4.9-5.6h9.4l-9.7,10.3l1.2,1.2h10.2L154.3,292.8z
				 M289.4,184.8c16,0,20.3,14.5,20.3,23.6c0,1.8-0.3,3.4-0.3,4.3h-34.6c0.3,12.3,7.9,17.4,16.9,17.4c6.5,0,10.3-1.2,13.7-2.6
				l1.5,6.6c-3.1,1.4-8.5,3.1-16.4,3.1c-15.1,0-24.1-10.2-24.1-25.3C266.3,196.7,275.1,184.8,289.4,184.8z"/>
			
				<linearGradient id="XMLID_00000166665521817647085380000008307994868468552078_" gradientUnits="userSpaceOnUse" x1="532.7803" y1="474.5843" x2="532.7803" y2="352.4063" gradientTransform="matrix(2.6667 0 0 -2.6667 -1380.7151 1294.7089)">
				<stop  offset="0" style="stop-color:#2BACE2"/>
				<stop  offset="0.4095" style="stop-color:#1284C7"/>
				<stop  offset="0.8157" style="stop-color:#0F60AD"/>
				<stop  offset="1" style="stop-color:#07519F"/>
			</linearGradient>
			<path id="XMLID_1309_" style="fill:url(#XMLID_00000166665521817647085380000008307994868468552078_);" d="M56.6,161.1l-33.1,33
				l23.8,23.8C47.3,202.7,50.1,183.9,56.6,161.1z"/>
			
				<linearGradient id="XMLID_00000072997175115225229610000012878626386003614634_" gradientUnits="userSpaceOnUse" x1="564.8962" y1="474.5836" x2="564.8962" y2="352.4077" gradientTransform="matrix(2.6667 0 0 -2.6667 -1380.7151 1294.7089)">
				<stop  offset="0" style="stop-color:#2BACE2"/>
				<stop  offset="0.4095" style="stop-color:#1284C7"/>
				<stop  offset="0.8157" style="stop-color:#0F60AD"/>
				<stop  offset="1" style="stop-color:#07519F"/>
			</linearGradient>
			<path id="XMLID_1308_" style="fill:url(#XMLID_00000072997175115225229610000012878626386003614634_);" d="M127.6,243.6
				c40-32.7,39.9-66,45.1-78.1c4.8-64.8-45.5-106.3-81.9-4.3C52.6,283.4,113.3,256.3,127.6,243.6z"/>
			<path id="XMLID_1307_" class="st5" d="M288.6,191.4c-9,0-13,8.5-13.7,14.9H301C301.2,200.3,298.7,191.4,288.6,191.4z"/>
		</g>
		<g id="XMLID_43_">
			<path id="XMLID_1303_" class="st6" d="M52.7,336.1H58v25.3h-5.3v-5c-2.6,3.9-5.8,5.7-9.7,5.7c-3.4,0-6.2-1.3-8.5-3.9
				s-3.5-5.8-3.5-9.6c0-3.5,1.2-6.6,3.6-9.3c2.3-2.6,5.2-4,8.4-4c1.9,0,3.9,0.5,5.7,1.7c1.8,1,3.1,2.5,4.1,4.3L52.7,336.1
				L52.7,336.1z M53.3,348.7c0-2.3-0.8-4.3-2.5-5.9c-1.7-1.7-3.6-2.5-5.9-2.5c-2.2,0-4.3,0.8-5.9,2.5c-1.7,1.7-2.5,3.6-2.5,5.8
				c0,2.3,0.8,4.4,2.5,6.1s3.6,2.5,5.9,2.5c2.3,0,4.3-0.8,5.9-2.5C52.6,353,53.3,351,53.3,348.7z"/>
			<path id="XMLID_1302_" class="st6" d="M66.6,321.6h5.3v39.8h-5.3V321.6z"/>
			<path id="XMLID_1299_" class="st6" d="M85.8,336.1v5c2.6-3.9,5.8-5.8,9.8-5.8c3.2,0,6.1,1.3,8.4,3.9s3.5,5.7,3.5,9.3
				c0,3.6-1.2,6.8-3.6,9.4c-2.3,2.7-5.2,4-8.4,4c-1.9,0-3.6-0.5-5.4-1.4c-1.7-1-3.1-2.5-4.3-4.3v16.9h-5.3v-37H85.8z M101.9,348.6
				c0-2.2-0.8-4.1-2.5-5.8c-1.7-1.7-3.6-2.5-5.9-2.5s-4.3,0.8-5.9,2.5c-1.7,1.7-2.6,3.6-2.6,5.8c0,2.3,0.8,4.3,2.5,5.9
				c1.7,1.7,3.6,2.6,5.9,2.6s4.4-0.8,6.1-2.5C101,353,101.9,350.9,101.9,348.6z"/>
			<path id="XMLID_1298_" class="st6" d="M113.1,321.6h5.3v18.6c1.4-1.7,2.8-3,4.1-3.7c1.3-0.8,2.8-1.2,4.6-1.2c2.2,0,4,0.8,5.6,2.5
				s2.3,3.6,2.3,5.9v17.6h-5.3v-16c0-1.5-0.4-2.8-1.2-3.9c-0.8-0.9-1.8-1.4-3.2-1.4c-1.9,0-3.6,0.8-4.9,2.2
				c-1.4,1.4-2.1,3.2-2.1,5.3v13.9H113L113.1,321.6L113.1,321.6z"/>
			<path id="XMLID_1295_" class="st6" d="M163.1,336.1h5.3v25.3h-5.3v-5c-2.6,3.9-5.8,5.7-9.7,5.7c-3.4,0-6.2-1.3-8.5-3.9
				s-3.5-5.8-3.5-9.6c0-3.5,1.2-6.6,3.6-9.3c2.3-2.6,5.2-4,8.4-4c1.9,0,3.9,0.5,5.7,1.7c1.8,1,3.1,2.5,4.1,4.3v-5.2H163.1z
				 M163.8,348.7c0-2.3-0.8-4.3-2.5-5.9c-1.7-1.7-3.6-2.5-5.9-2.5c-2.2,0-4.3,0.8-5.9,2.5c-1.7,1.7-2.5,3.6-2.5,5.8
				c0,2.3,0.8,4.4,2.5,6.1s3.6,2.5,5.9,2.5c2.3,0,4.3-0.8,5.9-2.5C163,353,163.8,351,163.8,348.7z"/>
			<path id="XMLID_1294_" class="st6" d="M175.5,357.8c0-1.2,0.4-2.1,1.2-3c0.8-0.8,1.8-1.2,3-1.2s2.1,0.4,3,1.2
				c0.8,0.8,1.2,1.8,1.2,3s-0.4,2.1-1.2,3c-0.8,0.8-1.8,1.2-3,1.2s-2.1-0.4-3-1.2C175.9,359.8,175.5,358.9,175.5,357.8z"/>
			<path id="XMLID_1293_" class="st6" d="M189.2,361.2v-25.3h5.2v4.1c1.5-1.7,3-3,4.1-3.7c1.3-0.8,2.6-1.2,4.1-1.2
				c2.3,0,4.3,0.8,5.8,2.3c1.7,1.5,2.5,3.4,2.5,5.4v18.3h-5.3v-16.7c0-1.4-0.4-2.5-1.3-3.4c-0.9-0.9-2.1-1.3-3.4-1.3
				c-1.8,0-3.4,0.8-4.6,2.2c-1.3,1.5-1.9,3.4-1.9,5.4v13.8h-5.2L189.2,361.2L189.2,361.2z"/>
			<path id="XMLID_61_" class="st6" d="M242.8,349.7h-21.6c0.5,2.6,1.5,4.5,3.2,5.7s3.5,1.8,5.4,1.8c3,0,5.6-1.3,7.6-3.7l3.9,3
				c-3,3.7-6.8,5.7-11.8,5.7c-3.7,0-6.8-1.3-9.4-3.9c-2.6-2.6-3.7-5.8-3.7-9.6c0-3.6,1.3-6.7,3.9-9.3c2.6-2.6,5.7-3.9,9.4-3.9
				c3.6,0,6.7,1.3,9.3,4C241.6,342,242.8,345.5,242.8,349.7z M221.9,345.5h15.4c-1.7-3.5-4.3-5.2-7.6-5.2
				C226,340.2,223.4,342,221.9,345.5z"/>
			<path id="XMLID_60_" class="st6" d="M250.7,328.7h5.3v7.4h5.3v4.9H256v20.4h-5.3V341h-4.1v-4.9h4.1V328.7z"/>
			<path id="XMLID_59_" class="st6" d="M265,357.8c0-1.2,0.4-2.1,1.2-3c0.8-0.8,1.8-1.2,3-1.2s2.1,0.4,3,1.2c0.8,0.8,1.2,1.8,1.2,3
				s-0.4,2.1-1.2,3c-0.8,0.8-1.8,1.2-3,1.2s-2.1-0.4-3-1.2C265.4,359.8,265,358.9,265,357.8z"/>
			<path id="XMLID_47_" class="st6" d="M280.5,321.6h5.3v19.5c2.3-3.7,5.6-5.7,9.7-5.7c3.2,0,6.1,1.3,8.5,3.9
				c2.5,2.6,3.6,5.7,3.6,9.3c0,3.6-1.2,6.7-3.5,9.4c-2.3,2.7-5.2,4-8.3,4c-2.1,0-3.9-0.5-5.8-1.7c-1.8-1-3.2-2.6-4.3-4.4v5.3h-5.3
				L280.5,321.6L280.5,321.6z M301.9,348.6c0-2.3-0.8-4.3-2.5-5.9c-1.7-1.7-3.6-2.5-5.9-2.5s-4.3,0.8-5.9,2.5
				c-1.7,1.7-2.5,3.6-2.5,5.9s0.8,4.4,2.5,5.9c1.7,1.7,3.7,2.5,6.2,2.5c2.2,0,4.1-0.8,5.8-2.5C301.2,352.8,301.9,350.9,301.9,348.6z
				"/>
			<path id="XMLID_44_" class="st6" d="M335.5,321.6h5.3v39.8h-5.2v-5.3c-2.5,4-5.8,5.9-9.8,5.9c-3.2,0-6.1-1.3-8.5-4
				c-2.3-2.6-3.5-5.8-3.5-9.6c0-3.6,1.2-6.7,3.6-9.3c2.5-2.6,5.3-3.9,8.5-3.9c1.9,0,3.9,0.5,5.6,1.7s3.1,2.6,4.1,4.3v-19.6H335.5z
				 M336,348.6c0-2.3-0.8-4.3-2.5-5.9c-1.7-1.7-3.6-2.5-5.9-2.5s-4.4,0.8-6.1,2.5s-2.5,3.6-2.5,5.9c0,2.2,0.8,4.3,2.5,5.9
				c1.7,1.7,3.6,2.6,5.8,2.6c2.3,0,4.4-0.8,6.1-2.5C335.3,353,336,350.9,336,348.6z"/>
		</g>
	</g>
</g>
<g id="XMLID_1426_">
	
		<linearGradient id="XMLID_00000165213939644645930990000008590946375017442439_" gradientUnits="userSpaceOnUse" x1="425.6" y1="324.1654" x2="570.75" y2="469.3154" gradientTransform="matrix(1 0 0 1 0 -205.1654)">
		<stop  offset="0" style="stop-color:#00AEEF"/>
		<stop  offset="0.4095" style="stop-color:#0084CB"/>
		<stop  offset="0.8157" style="stop-color:#005EAD"/>
		<stop  offset="1" style="stop-color:#014EA2"/>
	</linearGradient>
	<path id="XMLID_1442_" style="fill:url(#XMLID_00000165213939644645930990000008590946375017442439_);" d="M578.4,233.8
		c-3.9-3.9-8.9-13.3-14.9-28.3L500.1,47h-2.5l-62.7,154.1c-6,14.7-11,24.5-15,29.2c-4.1,4.7-9.3,7.6-15.6,8.6v5.3h58.4v-5.3
		c-9.1-0.8-14.9-1.9-17.2-3.4c-3.9-2.6-5.9-6.6-5.9-12c0-4.1,1.2-9.3,3.6-15.5l7.4-18.8h62l9.3,24.1c2.4,6.3,3.7,9.8,3.9,10.7
		c0.5,1.8,0.8,3.6,0.8,5.3c0,2.8-1,5-2.9,6.5c-2.8,2.1-7.6,3.1-14.4,3.1h-3.5v5.3h84.9v-5.3C585.4,238.5,581.3,236.8,578.4,233.8z
		 M455.1,178.6l26.9-66.5l26.2,66.5H455.1z"/>
	
		<linearGradient id="XMLID_00000149368898860640480300000009526301312623081383_" gradientUnits="userSpaceOnUse" x1="563.775" y1="291.6903" x2="693.1249" y2="421.0405" gradientTransform="matrix(1 0 0 1 0 -205.1654)">
		<stop  offset="0" style="stop-color:#00AEEF"/>
		<stop  offset="0.4095" style="stop-color:#0084CB"/>
		<stop  offset="0.8157" style="stop-color:#005EAD"/>
		<stop  offset="1" style="stop-color:#014EA2"/>
	</linearGradient>
	<path id="XMLID_1441_" style="fill:url(#XMLID_00000149368898860640480300000009526301312623081383_);" d="M664.8,239.1v5.1h-65.4
		v-5.1c5.3-0.2,9.3-1.9,11.9-5.1c1.7-2.2,2.6-8,2.6-17.4v-138c0-9.3-1-15.3-3-17.9s-5.8-4.1-11.5-4.5v-5.3h50.8v165.6
		c0,9.4,1,15.4,3,18C655.1,237.2,659,238.7,664.8,239.1z"/>
	
		<linearGradient id="XMLID_00000060019087291076365850000000465615701624060292_" gradientUnits="userSpaceOnUse" x1="649.4719" y1="339.0935" x2="781.8219" y2="471.4435" gradientTransform="matrix(1 0 0 1 0 -205.1654)">
		<stop  offset="0" style="stop-color:#00AEEF"/>
		<stop  offset="0.4095" style="stop-color:#0084CB"/>
		<stop  offset="0.8157" style="stop-color:#005EAD"/>
		<stop  offset="1" style="stop-color:#014EA2"/>
	</linearGradient>
	<path id="XMLID_1438_" style="fill:url(#XMLID_00000060019087291076365850000000465615701624060292_);" d="M797.8,141.8
		c-3.8-10.8-9.4-19.4-16.6-25.6c-7.3-6.2-15.4-9.3-24.3-9.3c-7.4,0-14.3,2.2-20.6,6.7c-4.4,3-8.7,8-13,14.8v-17.5h-50.8v5.3
		c5.7,0.4,9.5,1.9,11.5,4.5s3,8.6,3,18v140.6c0,9.1-0.8,14.8-2.6,17c-2.6,3.1-6.5,4.8-11.9,5v5.3h69v-5.3c-6.1,0-10.1-0.6-12.2-1.7
		c-2.1-1.2-3.6-2.9-4.6-5.4s-1.5-7.1-1.5-14v-49.6c4.8,6,9.3,10.2,13.6,12.7c5.8,3.2,12,4.8,18.7,4.8c9.1,0,17.5-2.9,25-8.7
		s13.2-14.4,17.1-25.5c3.9-11.1,5.9-23.5,5.9-37C803.5,164.4,801.6,152.7,797.8,141.8z M758.7,225.5c-3,5.4-6.9,8.1-11.5,8.1
		c-8.5,0-16.4-5.8-23.8-17.4v-71.1c5.6-13.9,12.8-20.8,21.5-20.8c5.5,0,9.9,2.8,13.2,8.4c4.9,8.4,7.4,24.2,7.4,47.2
		C765.4,202.3,763.1,217.5,758.7,225.5z"/>
	
		<linearGradient id="XMLID_00000103986264603033805150000006061861086197638036_" gradientUnits="userSpaceOnUse" x1="788.0751" y1="292.0904" x2="950.1251" y2="454.1404" gradientTransform="matrix(1 0 0 1 0 -205.1654)">
		<stop  offset="0" style="stop-color:#00AEEF"/>
		<stop  offset="0.4095" style="stop-color:#0084CB"/>
		<stop  offset="0.8157" style="stop-color:#005EAD"/>
		<stop  offset="1" style="stop-color:#014EA2"/>
	</linearGradient>
	<path id="XMLID_1437_" style="fill:url(#XMLID_00000103986264603033805150000006061861086197638036_);" d="M954.9,239.1v5.1h-61.4
		v-5.1c4.3-0.7,7.6-2.6,9.7-5.7c1.5-2.4,2.3-8.5,2.3-18.1v-59.4c0-11-0.4-17.9-1.2-20.8c-0.8-2.8-2.1-5-3.9-6.5
		c-1.9-1.5-3.9-2.4-6.3-2.4c-3.4,0-6.8,1.3-10.1,3.9c-3.3,2.6-6.8,7.2-10.6,13.7v71.4c0,9.5,0.6,15.4,1.9,17.8c1.6,3.2,5,5.2,10.1,6
		v5.1H824v-5c5.1-0.6,8.7-2.4,10.9-5.4c1.5-2.1,2.2-8.2,2.2-18.4V79.9c0-10.1-0.8-16.3-2.5-18.8c-1.7-2.4-5.2-4.1-10.6-4.8V51h49.4
		v77.1c6.6-7.7,12.7-13.1,18.3-16.3c5.5-3.2,11.3-4.8,17.2-4.8c7.6,0,14.1,2.4,19.5,7.2c5.4,4.7,9,10.3,10.8,16.7s2.6,17.2,2.6,32.4
		v52c0,10.2,0.9,16.5,2.6,19C946.1,236.8,949.6,238.4,954.9,239.1z"/>
	
		<linearGradient id="XMLID_00000080204268527221828600000004196303775209471898_" gradientUnits="userSpaceOnUse" x1="977.0934" y1="338.0991" x2="1081.6951" y2="442.7009" gradientTransform="matrix(1 0 0 1 0 -205.1654)">
		<stop  offset="0" style="stop-color:#00AEEF"/>
		<stop  offset="0.4095" style="stop-color:#0084CB"/>
		<stop  offset="0.8157" style="stop-color:#005EAD"/>
		<stop  offset="1" style="stop-color:#014EA2"/>
	</linearGradient>
	<path id="XMLID_1434_" style="fill:url(#XMLID_00000080204268527221828600000004196303775209471898_);" d="M1086.9,222.5
		c-2.4,3.5-4.6,5.3-6.9,5.3c-1.1,0-2.1-0.4-3-1.2c-0.9-0.7-1.5-1.9-1.9-3.5c-0.5-1.5-0.7-5.4-0.7-11.5v-51.7
		c0-14.4-0.6-23.5-1.8-27.5c-2-6.3-6.3-12.1-13-17.5c-6.7-5.3-15.8-8.1-27.3-8.1c-9.5,0-18.7,1.7-27.4,5
		c-8.8,3.3-15.7,8.1-20.6,14.3c-4.9,6.2-7.4,12.8-7.4,19.6c0,4.9,1.8,9.1,5.5,12.7c3.7,3.6,8.2,5.4,13.7,5.4c5.1,0,9.2-1.7,12.4-4.9
		c3.1-3.3,4.7-7.2,4.7-11.9c0-3.8-1.6-7.7-4.9-11.8c-2.4-2.9-3.6-5.4-3.6-7.4c0-2.3,1.1-4.3,3.4-6c3.6-2.7,8.2-4.1,13.9-4.1
		c3.4,0,6.5,1,9.3,2.9c2.7,1.9,4.6,4.2,5.6,6.8c1,2.6,1.5,9,1.5,19v13.4c-26.7,13.5-44,24.3-51.9,32.4c-8,8.1-11.9,17.3-11.9,27.4
		c0,7.5,2.3,13.7,6.9,18.7c4.6,5,10.3,7.5,17.2,7.5c11.8,0,25-7.2,39.8-21.5c0.9,7.2,3.2,12.6,7.1,16.2c3.9,3.6,9.3,5.3,16.2,5.3
		c5.9,0,11.1-1.6,15.7-4.8s9.1-8.3,13.4-15.3L1086.9,222.5z M1038.3,214.1c-5.7,5.3-10.7,8-15,8c-3.9,0-6.9-1.3-9-3.9
		c-2.9-3.3-4.3-7.2-4.3-11.5c0-5.2,1.7-10.4,5.1-15.5c5.1-7.7,12.8-14.9,23.3-21.7L1038.3,214.1L1038.3,214.1z"/>
	
		<linearGradient id="XMLID_00000011026793500058775520000006666437199550844576_" gradientUnits="userSpaceOnUse" x1="1162.35" y1="259.0153" x2="1340.4501" y2="437.1154" gradientTransform="matrix(1 0 0 1 0 -205.1654)">
		<stop  offset="0" style="stop-color:#00AEEF"/>
		<stop  offset="0.4095" style="stop-color:#0084CB"/>
		<stop  offset="0.8157" style="stop-color:#005EAD"/>
		<stop  offset="1" style="stop-color:#014EA2"/>
	</linearGradient>
	<path id="XMLID_1433_" style="fill:url(#XMLID_00000011026793500058775520000006666437199550844576_);" d="M1346.8,51v5.3
		c-7.4,1-12.4,2.4-15,4.1s-4.5,4.4-6,8.1c-1.4,3.8-2.1,10.2-2.1,19.3v160.9h-4.4l-118.7-161v122.8c0,11.1,2.3,18.6,6.9,22.5
		s9.9,5.8,15.9,5.8h4.2v5.3h-62.3v-5.3c9.7-0.1,16.4-2.3,20.2-6.5c3.8-4.3,5.7-11.6,5.7-21.8V74.2l-3.8-5.1c-3.7-5.1-7-8.5-9.9-10.1
		s-6.9-2.5-12.3-2.7V51h62.3l86.6,119.8v-83c0-11.6-1.5-19.4-4.5-23.5c-4.1-5.5-11.1-8.2-20.8-8V51H1346.8L1346.8,51z"/>
	
		<linearGradient id="XMLID_00000035497371531063817940000010107302223373078963_" gradientUnits="userSpaceOnUse" x1="1371.427" y1="339.7064" x2="1459.6545" y2="427.9338" gradientTransform="matrix(1 0 0 1 0 -205.1654)">
		<stop  offset="0" style="stop-color:#00AEEF"/>
		<stop  offset="0.4095" style="stop-color:#0084CB"/>
		<stop  offset="0.8157" style="stop-color:#005EAD"/>
		<stop  offset="1" style="stop-color:#014EA2"/>
	</linearGradient>
	<path id="XMLID_1428_" style="fill:url(#XMLID_00000035497371531063817940000010107302223373078963_);" d="M1446.6,221.7
		c-4.2,3.2-8.9,4.8-14.1,4.8c-8.4,0-15.6-3.9-21.5-11.8c-7.8-10.3-12-24.2-12.8-41.9h66.5c-0.7-21.8-5.6-38.2-14.6-49.2
		s-19.7-16.6-32-16.6c-14.7,0-27.5,6.6-38.4,19.7c-10.9,13.2-16.4,30.9-16.4,53.1c0,18.2,3.7,33.4,11.2,45.6
		c9.2,15.2,22.8,22.8,40.8,22.8c10.5,0,19.6-3.1,27.6-9.2c8-6.1,15.2-16.6,21.8-31.3l-4.4-3.1
		C1455.3,212.8,1450.8,218.6,1446.6,221.7z M1397.5,158.3c0-14.7,2.5-26.3,7.6-34.8c2.9-4.9,6.5-7.3,11-7.3c3,0,5.5,0.9,7.2,2.6
		c3.2,2.9,5.6,7.3,7.1,13c1.5,5.7,2.3,16.2,2.3,31.5h-35.2V158.3z"/>
	
		<linearGradient id="XMLID_00000082335691377238554640000010511680114788679045_" gradientUnits="userSpaceOnUse" x1="1475.1222" y1="315.7434" x2="1573.3942" y2="414.0154" gradientTransform="matrix(1 0 0 1 0 -205.1654)">
		<stop  offset="0" style="stop-color:#00AEEF"/>
		<stop  offset="0.4095" style="stop-color:#0084CB"/>
		<stop  offset="0.8157" style="stop-color:#005EAD"/>
		<stop  offset="1" style="stop-color:#014EA2"/>
	</linearGradient>
	<path id="XMLID_1427_" style="fill:url(#XMLID_00000082335691377238554640000010511680114788679045_);" d="M1527.8,125.1v82.2
		c0,7.7,0.3,12.7,1,14.9c0.6,2.2,1.8,4.1,3.4,5.4c1.7,1.4,3.2,2.1,4.5,2.1c5.6,0,10.9-4.7,15.9-14.1l3.9,3.1
		c-7,18.2-18.3,27.4-34.1,27.4c-7.7,0-14.2-2.4-19.5-7c-5.3-4.7-8.7-9.9-10.2-15.8c-0.8-3.2-1.3-12-1.3-26.2v-72h-15.8v-5
		c10.9-8.4,20.2-17.3,27.8-26.6c7.6-9.3,14.3-19.7,20-31.2h4.3V111h28.8v14.1H1527.8z"/>
</g>
<g>
	<path class="st15" d="M443,361.6c-0.8,26.5-44.3,23.4-38.2-13.5c-2.8-24.6,39-29.5,38.3-4h-8.1c-0.2-15.5-25.9-16.7-21.8,13.5
		c-2.4,15.3,21.8,20.7,21.8,3.9H443z"/>
	<path class="st15" d="M459.5,371.3H483v6.7h-31.9v-50.3h8.4V371.3z"/>
	<path class="st15" d="M528.8,357.4c-3,34-47.5,25.5-41.1-9C490.5,313.9,535.3,323.6,528.8,357.4z M520.4,348.3
		c1.3-18.6-25.9-18.8-24.4,0c-0.5,9.2-0.4,23.8,11.9,23.6C520.6,372.2,521,357.8,520.4,348.3z"/>
	<path class="st15" d="M576.1,327.8c-1.4,16.4,7.7,52.6-19.7,51c-27,1.6-17.9-34.9-19.3-51h8.4v33.1c-0.1,6.9,4.2,11.2,10.9,11.2
		c6.8,0,11.4-4.2,11.3-11.2c0,0,0-33.1,0-33.1H576.1z"/>
	<path class="st15" d="M585.9,378v-50.3c22.9-1.5,40.7,1.1,38.1,29C624.5,378.5,602.1,379.1,585.9,378z M594.3,334.5v36.8
		c10.4,1.3,22.1-1.9,21.4-14.6C617.1,340.1,611.4,332.6,594.3,334.5z"/>
	<path class="st15" d="M647.7,364.5c0.1-6.5,3.9-9.5,9.3-13.5c-8.6-8.7-5.5-24.7,8.2-24c16.5,0.5,15,19.2,2.2,24.9l10.4,12.4
		c1.9-3,2.9-6.6,2.9-10.3h7c0,5.9-1.5,11.5-5.2,15.9l6.6,7.9l-0.1,0.2h-9.5l-2.8-3.3C667,382.3,647.4,379.2,647.7,364.5z M664.3,372
		c2.9,0,5.8-0.9,8.2-2.5l-11.2-13.3C653.4,360.3,654.9,372.4,664.3,372z M660,339.6c0.1,2.8,1.4,4.8,3.3,7.2
		C679.7,339.4,662.4,325.6,660,339.6z"/>
	<path class="st15" d="M748.7,334.5h-15.5V378h-8.4v-43.5h-15.3v-6.7h39.2V334.5z"/>
	<path class="st15" d="M783.2,355.4h-19.7v15.9h23.2v6.7h-31.6v-50.3h31.3v6.7h-23v14.2h19.7V355.4z"/>
	<path class="st15" d="M831,361.6c-0.8,26.5-44.3,23.4-38.2-13.5c-2.8-24.6,39-29.5,38.3-4h-8.1c-0.2-15.5-25.9-16.7-21.8,13.5
		c-2.4,15.3,21.8,20.7,21.8,3.9H831z"/>
	<path class="st15" d="M878.4,378H870v-21.4h-22.5V378h-8.4v-50.3h8.4v22.1H870v-22.1h8.4V378z"/>
	<path class="st15" d="M928.2,378h-8.4l-22.3-36.2l-0.2,0.1V378H889v-50.3h8.4l22.3,36.2l0.2-0.1v-36.1h8.4V378z"/>
	<path class="st15" d="M978.3,357.4c-3,34-47.5,25.5-41.1-9C939.9,313.9,984.8,323.6,978.3,357.4z M969.9,348.3
		c1.3-18.6-25.9-18.8-24.4,0c-0.5,9.2-0.4,23.8,11.9,23.6C970.1,372.2,970.5,357.8,969.9,348.3z"/>
	<path class="st15" d="M995.6,371.3h23.5v6.7h-31.9v-50.3h8.4V371.3z"/>
	<path class="st15" d="M1064.8,357.4c-3,34-47.5,25.5-41.1-9C1026.5,313.9,1071.4,323.6,1064.8,357.4z M1056.4,348.3
		c1.3-18.6-25.9-18.8-24.4,0c-0.5,9.2-0.4,23.8,11.9,23.6C1056.7,372.2,1057,357.8,1056.4,348.3z"/>
	<path class="st15" d="M1111,371.2c-11.1,14.2-40.2,7.6-38.7-13.1c-0.1-8.2-0.9-19.7,5.6-25.4c9.6-10.7,34.2-6.1,32.6,10.4h-8
		c0.6-9.8-13.3-12.6-18.6-5.5c-4.4,4.4-3,14.6-3.2,20.5c-1.2,12.2,13.8,18.2,22,10.8v-10.4h-10.5v-6.3h18.9V371.2z"/>
	<path class="st15" d="M1138.3,352.2l12.1-24.4h9.4l-17.4,32.7V378h-8.4v-18.1l-17.2-32.2h9.4L1138.3,352.2z"/>
	<path class="st15" d="M1210.2,365.1c-0.3-5.7-4.2-6.8-10.1-8.7c-45.7-13.9,12.4-50.6,18-14h-8.1c0.9-10.5-18.4-12.1-18.5-1.5
		c3.1,12,28.6,7.6,27.1,24.1c-0.2,19.6-38.1,17.7-36.6-2.1h8.1C1189.1,373.8,1209.8,375.8,1210.2,365.1z"/>
	<path class="st15" d="M1266.7,357.4c-3,34-47.5,25.5-41.1-9C1228.4,313.9,1273.2,323.6,1266.7,357.4z M1258.3,348.3
		c1.3-18.6-25.9-18.8-24.4,0c-0.5,9.2-0.4,23.8,11.9,23.6C1258.5,372.2,1258.9,357.8,1258.3,348.3z"/>
	<path class="st15" d="M1284,371.3h23.5v6.7h-31.9v-50.3h8.4V371.3z"/>
	<path class="st15" d="M1352.2,327.8c-1.4,16.4,7.7,52.6-19.7,51c-27,1.6-17.9-34.9-19.3-51h8.4v33.1c-0.1,6.9,4.2,11.2,10.9,11.2
		c6.8,0,11.4-4.2,11.3-11.2c0,0,0-33.1,0-33.1H1352.2z"/>
	<path class="st15" d="M1397.1,334.5h-15.5V378h-8.4v-43.5h-15.3v-6.7h39.2V334.5z"/>
	<path class="st15" d="M1412.5,378h-8.4v-50.3h8.4V378z"/>
	<path class="st15" d="M1463.3,357.4c-3,34-47.5,25.5-41.1-9C1425,313.9,1469.8,323.6,1463.3,357.4z M1454.9,348.3
		c1.3-18.6-25.9-18.8-24.4,0c-0.5,9.2-0.4,23.8,11.9,23.6C1455.1,372.2,1455.5,357.8,1454.9,348.3z"/>
	<path class="st15" d="M1511.4,378h-8.4l-22.3-36.2l-0.2,0.1V378h-8.4v-50.3h8.4l22.3,36.2l0.2-0.1v-36.1h8.4V378z"/>
	<path class="st15" d="M1548.5,365.1c-0.3-5.7-4.2-6.8-10.1-8.7c-45.7-13.9,12.4-50.6,18-14h-8.1c0.9-10.5-18.4-12.1-18.5-1.5
		c3.1,12,28.6,7.6,27.1,24.1c-0.2,19.6-38.1,17.7-36.6-2.1h8.1C1527.4,373.8,1548,375.8,1548.5,365.1z"/>
</g>
</svg>
