<svg xmlns="http://www.w3.org/2000/svg" version="1.1" xmlns:xlink="http://www.w3.org/1999/xlink" width="512" height="512" x="0" y="0" viewBox="0 0 512 512" style="enable-background:new 0 0 512 512" xml:space="preserve" class=""><g><path d="M185.014 232.889c-5.054 0-9.99-2.549-12.817-7.178-4.322-7.075-2.095-16.304 4.98-20.625l142.002-88.777c7.09-4.336 16.304-2.095 20.625 4.98 4.321 7.075 2.095 16.304-4.98 20.625l-142.002 88.777a14.916 14.916 0 0 1-7.808 2.198z" style="" fill="#C5C9F7" data-original="#c5c9f7"></path><path d="M326.986 397.889c-2.666 0-5.362-.703-7.808-2.197l-142.002-86.777c-7.075-4.321-9.302-13.55-4.98-20.625 4.307-7.075 13.55-9.316 20.625-4.98l142.002 86.777c7.075 4.321 9.301 13.55 4.98 20.625-2.826 4.628-7.763 7.177-12.817 7.177z" style="" fill="#A8AFF1" data-original="#a8aff1"></path><path d="M391 0c-49.501 0-90 40.499-90 90 0 49.499 40.499 90 90 90s90-40.501 90-90c0-49.501-40.499-90-90-90z" style="" fill="#7C3AED" data-original="#17ace8" class="" opacity="0.5803921568627451"></path><path d="M391 332c-49.501 0-90 40.499-90 90 0 49.499 40.499 90 90 90s90-40.501 90-90c0-49.501-40.499-90-90-90z" style="" fill="#7C3AED" data-original="#1689fc" class="" opacity="1"></path><path d="M121 167c-49.501 0-90 40.499-90 90 0 49.499 40.499 90 90 90s90-40.501 90-90c0-49.501-40.499-90-90-90z" style="" fill="#7C3AED" data-original="#17ace8" class="" opacity="0.5803921568627451"></path><path d="M121 347c49.501 0 90-40.501 90-90H31c0 49.499 40.499 90 90 90z" style="" fill="#7C3AED" data-original="#1689fc" class="" opacity="1"></path></g></svg>