<svg xmlns="http://www.w3.org/2000/svg" version="1.1" xmlns:xlink="http://www.w3.org/1999/xlink" width="512" height="512" x="0" y="0" viewBox="0 0 512 512" style="enable-background:new 0 0 512 512" xml:space="preserve" class=""><g><path fill="#7C3AED" d="M451 105v392c0 8.28-6.72 15-15 15H76c-8.28 0-15-6.72-15-15V15c0-8.28 6.72-15 15-15h270l28 75z" opacity="0.5019607843137255" data-original="#f3f5f9" class=""></path><path fill="#E1E6F0" d="M451 497V105l-77-30-28-75h-90v512h180c8.28 0 15-6.72 15-15z" opacity="1" data-original="#e1e6f0" class=""></path><path fill="#7C3AED" d="M451 105h-90c-8.284 0-15-6.716-15-15V0c3.98 0 7.79 1.58 10.61 4.39l90 90c2.81 2.82 4.39 6.63 4.39 10.61z" opacity="1" data-original="#73d3e6" class=""></path><g fill="#404B80"><path d="M316 182h60c8.284 0 15-6.716 15-15s-6.716-15-15-15h-60c-8.284 0-15 6.716-15 15s6.716 15 15 15zM376 212h-60c-8.284 0-15 6.716-15 15s6.716 15 15 15h60c8.284 0 15-6.716 15-15s-6.716-15-15-15zM376 272h-60c-8.284 0-15 6.716-15 15s6.716 15 15 15h60c8.284 0 15-6.716 15-15s-6.716-15-15-15z" fill="#7C3AED" opacity="1" data-original="#404b80" class=""></path></g><path fill="#4D6799" d="M376 332H136c-8.284 0-15 6.716-15 15s6.716 15 15 15h240c8.284 0 15-6.716 15-15s-6.716-15-15-15zM376 392H136c-8.284 0-15 6.716-15 15s6.716 15 15 15h240c8.284 0 15-6.716 15-15s-6.716-15-15-15z" opacity="1" data-original="#4d6799" class=""></path><path fill="#7C3AED" d="M136 212c8.284 0 15-6.716 15-15v-15h30v90h-15c-8.284 0-15 6.716-15 15s6.716 15 15 15h60c8.284 0 15-6.716 15-15s-6.716-15-15-15h-15v-90h30v15c0 8.284 6.716 15 15 15s15-6.716 15-15v-30c0-8.284-6.716-15-15-15H136c-8.284 0-15 6.716-15 15v30c0 8.284 6.716 15 15 15z" opacity="1" data-original="#73d3e6" class=""></path><g fill="#404B80"><path d="M376 392H256v30h120c8.284 0 15-6.716 15-15s-6.716-15-15-15zM376 332H256v30h120c8.284 0 15-6.716 15-15s-6.716-15-15-15z" fill="#7C3AED" opacity="1" data-original="#404b80" class=""></path></g></g></svg>