<svg xmlns="http://www.w3.org/2000/svg" version="1.1" xmlns:xlink="http://www.w3.org/1999/xlink" width="512" height="512" x="0" y="0" viewBox="0 0 512.001 512" style="enable-background:new 0 0 512 512" xml:space="preserve" class=""><g><path d="M299.605 312.102c-24.043-24.043-63.164-24.043-87.207 0-24.043 24.043-24.043 63.164 0 87.203 12.02 12.023 27.813 18.035 43.602 18.035 15.793 0 31.582-6.012 43.605-18.035 24.043-24.04 24.043-63.16 0-87.203Zm0 0" style="stroke:none;fill-rule:nonzero;fill-opacity:1;" fill="#7C3AED" data-original="#00c8c8" class="" opacity="0.6196078431372549"></path><path d="M299.605 312.102c-12.023-12.024-27.812-18.036-43.605-18.036V417.34c15.793 0 31.582-6.012 43.605-18.035 24.043-24.04 24.043-63.16 0-87.203Zm0 0" style="stroke:none;fill-rule:nonzero;fill-opacity:1;" fill="#7C3AED" data-original="#00a0aa" class="" opacity="1"></path><path d="M107.164 206.867a15.288 15.288 0 0 0 0 21.629l55.488 55.488c5.973 5.973 15.657 5.977 21.63 0 39.546-39.543 103.89-39.543 143.437 0a15.231 15.231 0 0 0 10.812 4.48c3.914 0 7.828-1.491 10.813-4.48l55.492-55.488a15.304 15.304 0 0 0 4.48-10.816c0-4.055-1.613-7.946-4.48-10.813-82.066-82.07-215.606-82.07-297.672 0Zm0 0" style="stroke:none;fill-rule:nonzero;fill-opacity:1;" fill="#7C3AED" data-original="#00c8c8" class="" opacity="0.6196078431372549"></path><path d="M256 145.316v109.012c25.973 0 51.945 9.887 71.719 29.66a15.248 15.248 0 0 0 10.812 4.48c3.914 0 7.828-1.491 10.813-4.48l55.492-55.492a15.295 15.295 0 0 0 0-21.629c-41.031-41.035-94.934-61.55-148.836-61.55Zm0 0" style="stroke:none;fill-rule:nonzero;fill-opacity:1;" fill="#7C3AED" data-original="#00a0aa" class="" opacity="1"></path><path d="M507.52 104.184c-33.938-33.938-73.536-60.227-117.696-78.133C347.2 8.766 302.176 0 256 0c-46.172 0-91.2 8.766-133.824 26.05C78.016 43.958 38.418 70.247 4.48 104.185c-5.972 5.972-5.972 15.656 0 21.629l55.493 55.492c5.968 5.972 15.656 5.972 21.629 0 96.164-96.164 252.632-96.164 348.796 0a15.263 15.263 0 0 0 10.817 4.48c3.914 0 7.828-1.496 10.812-4.48l55.493-55.493c5.976-5.972 5.976-15.656 0-21.628Zm0 0" style="stroke:none;fill-rule:nonzero;fill-opacity:1;" fill="#7C3AED" data-original="#00c8c8" class="" opacity="0.6196078431372549"></path><path d="M389.824 26.05C347.2 8.767 302.176 0 256 0v109.184c63.16 0 126.316 24.039 174.398 72.12a15.263 15.263 0 0 0 10.817 4.481c3.914 0 7.828-1.492 10.812-4.48l55.493-55.493c5.972-5.972 5.972-15.656 0-21.628-33.938-33.938-73.536-60.227-117.696-78.133Zm0 0" style="stroke:none;fill-rule:nonzero;fill-opacity:1;" fill="#7C3AED" data-original="#00a0aa" class="" opacity="1"></path></g></svg>